<mxfile host="65bd71144e">
    <diagram id="TUJgr57NHX3Dv-rvW0OL" name="Page-1">
        <mxGraphModel dx="7804" dy="7195" grid="1" gridSize="10" guides="1" tooltips="1" connect="1" arrows="1" fold="1" page="1" pageScale="1" pageWidth="2339" pageHeight="3300" math="0" shadow="0">
            <root>
                <mxCell id="skvkwWqHoztt7yABa-7v-0"/>
                <mxCell id="skvkwWqHoztt7yABa-7v-1" parent="skvkwWqHoztt7yABa-7v-0"/>
                <mxCell id="222" value="" style="rounded=0;whiteSpace=wrap;html=1;strokeWidth=5;fillColor=#C7F9CC;strokeColor=#FFFFFF;" parent="skvkwWqHoztt7yABa-7v-1" vertex="1">
                    <mxGeometry x="2" y="960" width="1752" height="1752" as="geometry"/>
                </mxCell>
                <mxCell id="203" value="" style="rounded=0;whiteSpace=wrap;html=1;strokeWidth=7;fillColor=#22577A;strokeColor=#FFFFFF;" parent="skvkwWqHoztt7yABa-7v-1" vertex="1">
                    <mxGeometry x="30" y="-900" width="450" height="820" as="geometry"/>
                </mxCell>
                <mxCell id="218" value="" style="rounded=0;whiteSpace=wrap;html=1;strokeWidth=7;fillColor=#38A3A5;strokeColor=#FFFFFF;" parent="skvkwWqHoztt7yABa-7v-1" vertex="1">
                    <mxGeometry x="510" y="-900" width="450" height="820" as="geometry"/>
                </mxCell>
                <mxCell id="219" value="" style="rounded=0;whiteSpace=wrap;html=1;strokeWidth=7;fillColor=#57CC99;strokeColor=#FFFFFF;" parent="skvkwWqHoztt7yABa-7v-1" vertex="1">
                    <mxGeometry x="990" y="-900" width="450" height="820" as="geometry"/>
                </mxCell>
                <mxCell id="220" value="" style="rounded=0;whiteSpace=wrap;html=1;strokeWidth=7;fillColor=#80ED99;strokeColor=#FFFFFF;" parent="skvkwWqHoztt7yABa-7v-1" vertex="1">
                    <mxGeometry x="1500" y="-900" width="450" height="820" as="geometry"/>
                </mxCell>
                <mxCell id="221" value="" style="rounded=0;whiteSpace=wrap;html=1;strokeWidth=7;fillColor=#C7F9CC;strokeColor=#FFFFFF;" parent="skvkwWqHoztt7yABa-7v-1" vertex="1">
                    <mxGeometry x="2010" y="-900" width="450" height="820" as="geometry"/>
                </mxCell>
                <mxCell id="201" value="" style="rounded=0;whiteSpace=wrap;html=1;strokeWidth=5;fillColor=#80ED99;strokeColor=#FFFFFF;" parent="skvkwWqHoztt7yABa-7v-1" vertex="1">
                    <mxGeometry x="586" y="373" width="1168" height="584" as="geometry"/>
                </mxCell>
                <mxCell id="Msj7Maj7df4tfXAj90HZ-104" value="" style="group" parent="skvkwWqHoztt7yABa-7v-1" vertex="1" connectable="0">
                    <mxGeometry x="1160" y="1760" width="487.18" height="250" as="geometry"/>
                </mxCell>
                <mxCell id="Msj7Maj7df4tfXAj90HZ-3" value="" style="ellipse;whiteSpace=wrap;html=1;aspect=fixed;fontSize=30;fillColor=#FFFF00;opacity=70;strokeWidth=3;container=0;" parent="Msj7Maj7df4tfXAj90HZ-104" vertex="1">
                    <mxGeometry x="108.97449426604882" width="19.23070109284942" height="19.23070109284942" as="geometry"/>
                </mxCell>
                <mxCell id="Msj7Maj7df4tfXAj90HZ-10" value="" style="ellipse;whiteSpace=wrap;html=1;aspect=fixed;fontSize=30;fillColor=#FF0000;opacity=70;strokeWidth=3;container=0;" parent="Msj7Maj7df4tfXAj90HZ-104" vertex="1">
                    <mxGeometry x="32.05132184295548" y="211.53846153846163" width="19.23070109284942" height="19.23070109284942" as="geometry"/>
                </mxCell>
                <mxCell id="Msj7Maj7df4tfXAj90HZ-11" style="edgeStyle=none;html=1;fontSize=30;endArrow=none;endFill=0;strokeWidth=2;" parent="Msj7Maj7df4tfXAj90HZ-104" source="Msj7Maj7df4tfXAj90HZ-12" target="Msj7Maj7df4tfXAj90HZ-10" edge="1">
                    <mxGeometry relative="1" as="geometry"/>
                </mxCell>
                <mxCell id="Msj7Maj7df4tfXAj90HZ-12" value="" style="ellipse;whiteSpace=wrap;html=1;aspect=fixed;fontSize=30;fillColor=#0000FF;opacity=70;strokeWidth=3;container=0;" parent="Msj7Maj7df4tfXAj90HZ-104" vertex="1">
                    <mxGeometry x="64.10264368591096" y="224.35897435897445" width="19.23070109284942" height="19.23070109284942" as="geometry"/>
                </mxCell>
                <mxCell id="Msj7Maj7df4tfXAj90HZ-13" style="edgeStyle=none;html=1;fontSize=30;endArrow=none;endFill=0;strokeWidth=2;" parent="Msj7Maj7df4tfXAj90HZ-104" source="Msj7Maj7df4tfXAj90HZ-14" target="Msj7Maj7df4tfXAj90HZ-10" edge="1">
                    <mxGeometry relative="1" as="geometry"/>
                </mxCell>
                <mxCell id="Msj7Maj7df4tfXAj90HZ-14" value="" style="ellipse;whiteSpace=wrap;html=1;aspect=fixed;fontSize=30;fillColor=#0000FF;opacity=70;strokeWidth=3;container=0;" parent="Msj7Maj7df4tfXAj90HZ-104" vertex="1">
                    <mxGeometry y="224.35897435897445" width="19.23070109284942" height="19.23070109284942" as="geometry"/>
                </mxCell>
                <mxCell id="Msj7Maj7df4tfXAj90HZ-20" value="" style="ellipse;whiteSpace=wrap;html=1;aspect=fixed;fontSize=30;fillColor=#FF0000;opacity=70;strokeWidth=3;container=0;" parent="Msj7Maj7df4tfXAj90HZ-104" vertex="1">
                    <mxGeometry x="32.05132184295548" y="147.4358974358975" width="19.23070109284942" height="19.23070109284942" as="geometry"/>
                </mxCell>
                <mxCell id="Msj7Maj7df4tfXAj90HZ-22" style="edgeStyle=none;html=1;entryX=0.5;entryY=1;entryDx=0;entryDy=0;fontSize=30;endArrow=none;endFill=0;strokeWidth=2;" parent="Msj7Maj7df4tfXAj90HZ-104" source="Msj7Maj7df4tfXAj90HZ-10" target="Msj7Maj7df4tfXAj90HZ-20" edge="1">
                    <mxGeometry relative="1" as="geometry"/>
                </mxCell>
                <mxCell id="Msj7Maj7df4tfXAj90HZ-21" value="" style="ellipse;whiteSpace=wrap;html=1;aspect=fixed;fontSize=30;fillColor=#FF0000;opacity=70;strokeWidth=3;container=0;" parent="Msj7Maj7df4tfXAj90HZ-104" vertex="1">
                    <mxGeometry x="32.05132184295548" y="89.74358974358977" width="19.23070109284942" height="19.23070109284942" as="geometry"/>
                </mxCell>
                <mxCell id="Msj7Maj7df4tfXAj90HZ-23" style="edgeStyle=none;html=1;fontSize=30;endArrow=none;endFill=0;strokeWidth=2;" parent="Msj7Maj7df4tfXAj90HZ-104" source="Msj7Maj7df4tfXAj90HZ-20" target="Msj7Maj7df4tfXAj90HZ-21" edge="1">
                    <mxGeometry relative="1" as="geometry"/>
                </mxCell>
                <mxCell id="Msj7Maj7df4tfXAj90HZ-27" style="edgeStyle=none;html=1;fontSize=30;endArrow=none;endFill=0;strokeWidth=2;curved=1;entryX=0;entryY=1;entryDx=0;entryDy=0;exitX=0;exitY=0;exitDx=0;exitDy=0;" parent="Msj7Maj7df4tfXAj90HZ-104" source="Msj7Maj7df4tfXAj90HZ-20" target="Msj7Maj7df4tfXAj90HZ-21" edge="1">
                    <mxGeometry relative="1" as="geometry">
                        <Array as="points">
                            <mxPoint x="25.64105747436442" y="128.2051282051283"/>
                        </Array>
                        <mxPoint x="5.7435968742576895" y="102.56410256410257" as="targetPoint"/>
                        <mxPoint x="6.27625443068894" y="151.05837661534483" as="sourcePoint"/>
                    </mxGeometry>
                </mxCell>
                <mxCell id="Msj7Maj7df4tfXAj90HZ-28" value="" style="ellipse;whiteSpace=wrap;html=1;aspect=fixed;fontSize=30;fillColor=#FFFF00;opacity=70;strokeWidth=3;container=0;" parent="Msj7Maj7df4tfXAj90HZ-104" vertex="1">
                    <mxGeometry x="32.05132184295548" y="25.64102564102562" width="19.23070109284942" height="19.23070109284942" as="geometry"/>
                </mxCell>
                <mxCell id="Msj7Maj7df4tfXAj90HZ-34" style="edgeStyle=none;curved=1;html=1;fontSize=30;endArrow=none;endFill=0;strokeWidth=2;" parent="Msj7Maj7df4tfXAj90HZ-104" source="Msj7Maj7df4tfXAj90HZ-21" target="Msj7Maj7df4tfXAj90HZ-28" edge="1">
                    <mxGeometry relative="1" as="geometry"/>
                </mxCell>
                <mxCell id="Msj7Maj7df4tfXAj90HZ-38" style="edgeStyle=none;curved=1;html=1;entryX=0;entryY=1;entryDx=0;entryDy=0;fontSize=30;endArrow=none;endFill=0;strokeWidth=2;" parent="Msj7Maj7df4tfXAj90HZ-104" source="Msj7Maj7df4tfXAj90HZ-29" target="Msj7Maj7df4tfXAj90HZ-3" edge="1">
                    <mxGeometry relative="1" as="geometry"/>
                </mxCell>
                <mxCell id="Msj7Maj7df4tfXAj90HZ-29" value="" style="ellipse;whiteSpace=wrap;html=1;aspect=fixed;fontSize=30;fillColor=#FF0000;opacity=70;strokeWidth=3;container=0;" parent="Msj7Maj7df4tfXAj90HZ-104" vertex="1">
                    <mxGeometry x="83.3334367916844" y="25.64102564102562" width="19.23070109284942" height="19.23070109284942" as="geometry"/>
                </mxCell>
                <mxCell id="Msj7Maj7df4tfXAj90HZ-35" style="edgeStyle=none;curved=1;html=1;entryX=0;entryY=0.5;entryDx=0;entryDy=0;fontSize=30;endArrow=none;endFill=0;strokeWidth=2;" parent="Msj7Maj7df4tfXAj90HZ-104" source="Msj7Maj7df4tfXAj90HZ-28" target="Msj7Maj7df4tfXAj90HZ-29" edge="1">
                    <mxGeometry relative="1" as="geometry"/>
                </mxCell>
                <mxCell id="Msj7Maj7df4tfXAj90HZ-30" value="" style="ellipse;whiteSpace=wrap;html=1;aspect=fixed;fontSize=30;fillColor=#FF0000;opacity=70;strokeWidth=3;container=0;" parent="Msj7Maj7df4tfXAj90HZ-104" vertex="1">
                    <mxGeometry x="192.30793105773307" y="25.64102564102562" width="19.23070109284942" height="19.23070109284942" as="geometry"/>
                </mxCell>
                <mxCell id="Msj7Maj7df4tfXAj90HZ-31" value="" style="ellipse;whiteSpace=wrap;html=1;aspect=fixed;fontSize=30;fillColor=#FFFF00;opacity=70;strokeWidth=3;container=0;" parent="Msj7Maj7df4tfXAj90HZ-104" vertex="1">
                    <mxGeometry x="166.66687358336864" width="19.23070109284942" height="19.23070109284942" as="geometry"/>
                </mxCell>
                <mxCell id="Msj7Maj7df4tfXAj90HZ-44" style="edgeStyle=none;curved=1;html=1;entryX=0;entryY=0.5;entryDx=0;entryDy=0;fontSize=30;endArrow=none;endFill=0;strokeWidth=2;" parent="Msj7Maj7df4tfXAj90HZ-104" source="Msj7Maj7df4tfXAj90HZ-3" target="Msj7Maj7df4tfXAj90HZ-31" edge="1">
                    <mxGeometry relative="1" as="geometry"/>
                </mxCell>
                <mxCell id="Msj7Maj7df4tfXAj90HZ-42" style="edgeStyle=none;curved=1;html=1;entryX=1;entryY=1;entryDx=0;entryDy=0;fontSize=30;endArrow=none;endFill=0;strokeWidth=2;" parent="Msj7Maj7df4tfXAj90HZ-104" source="Msj7Maj7df4tfXAj90HZ-30" target="Msj7Maj7df4tfXAj90HZ-31" edge="1">
                    <mxGeometry relative="1" as="geometry"/>
                </mxCell>
                <mxCell id="Msj7Maj7df4tfXAj90HZ-32" value="" style="ellipse;whiteSpace=wrap;html=1;aspect=fixed;fontSize=30;fillColor=#FFFF00;opacity=70;strokeWidth=3;container=0;" parent="Msj7Maj7df4tfXAj90HZ-104" vertex="1">
                    <mxGeometry x="108.97449426604882" y="57.692307692307736" width="19.23070109284942" height="19.23070109284942" as="geometry"/>
                </mxCell>
                <mxCell id="Msj7Maj7df4tfXAj90HZ-39" style="edgeStyle=none;curved=1;html=1;entryX=0;entryY=0;entryDx=0;entryDy=0;fontSize=30;endArrow=none;endFill=0;strokeWidth=2;" parent="Msj7Maj7df4tfXAj90HZ-104" source="Msj7Maj7df4tfXAj90HZ-29" target="Msj7Maj7df4tfXAj90HZ-32" edge="1">
                    <mxGeometry relative="1" as="geometry"/>
                </mxCell>
                <mxCell id="Msj7Maj7df4tfXAj90HZ-41" style="edgeStyle=none;curved=1;html=1;entryX=0;entryY=1;entryDx=0;entryDy=0;fontSize=30;endArrow=none;endFill=0;strokeWidth=2;" parent="Msj7Maj7df4tfXAj90HZ-104" source="Msj7Maj7df4tfXAj90HZ-33" target="Msj7Maj7df4tfXAj90HZ-30" edge="1">
                    <mxGeometry relative="1" as="geometry"/>
                </mxCell>
                <mxCell id="Msj7Maj7df4tfXAj90HZ-33" value="" style="ellipse;whiteSpace=wrap;html=1;aspect=fixed;fontSize=30;fillColor=#FFFF00;opacity=70;strokeWidth=3;container=0;" parent="Msj7Maj7df4tfXAj90HZ-104" vertex="1">
                    <mxGeometry x="166.66687358336864" y="57.692307692307736" width="19.23070109284942" height="19.23070109284942" as="geometry"/>
                </mxCell>
                <mxCell id="Msj7Maj7df4tfXAj90HZ-40" style="edgeStyle=none;curved=1;html=1;entryX=0;entryY=0.5;entryDx=0;entryDy=0;fontSize=30;endArrow=none;endFill=0;strokeWidth=2;" parent="Msj7Maj7df4tfXAj90HZ-104" source="Msj7Maj7df4tfXAj90HZ-32" target="Msj7Maj7df4tfXAj90HZ-33" edge="1">
                    <mxGeometry relative="1" as="geometry"/>
                </mxCell>
                <mxCell id="Msj7Maj7df4tfXAj90HZ-45" style="edgeStyle=none;html=1;fontSize=30;endArrow=none;endFill=0;strokeWidth=2;curved=1;entryX=1;entryY=1;entryDx=0;entryDy=0;exitX=1;exitY=0;exitDx=0;exitDy=0;" parent="Msj7Maj7df4tfXAj90HZ-104" source="Msj7Maj7df4tfXAj90HZ-20" target="Msj7Maj7df4tfXAj90HZ-21" edge="1">
                    <mxGeometry relative="1" as="geometry">
                        <Array as="points">
                            <mxPoint x="57.69237931731999" y="130.76923076923083"/>
                        </Array>
                        <mxPoint x="57.694557706051235" y="108.97218058833215" as="targetPoint"/>
                        <mxPoint x="57.694557706051235" y="153.0662809501294" as="sourcePoint"/>
                    </mxGeometry>
                </mxCell>
                <mxCell id="Msj7Maj7df4tfXAj90HZ-59" value="" style="ellipse;whiteSpace=wrap;html=1;aspect=fixed;fontSize=30;fillColor=#FFFF00;opacity=70;strokeWidth=3;direction=east;rotation=90;container=0;" parent="Msj7Maj7df4tfXAj90HZ-104" vertex="1">
                    <mxGeometry x="301.92345176064094" y="89.74358974358977" width="19.23070109284942" height="19.23070109284942" as="geometry"/>
                </mxCell>
                <mxCell id="Msj7Maj7df4tfXAj90HZ-60" style="edgeStyle=none;curved=1;html=1;fontSize=30;endArrow=none;endFill=0;strokeWidth=2;entryX=0;entryY=1;entryDx=0;entryDy=0;" parent="Msj7Maj7df4tfXAj90HZ-104" source="Msj7Maj7df4tfXAj90HZ-62" target="Msj7Maj7df4tfXAj90HZ-59" edge="1">
                    <mxGeometry relative="1" as="geometry"/>
                </mxCell>
                <mxCell id="Msj7Maj7df4tfXAj90HZ-62" value="" style="ellipse;whiteSpace=wrap;html=1;aspect=fixed;fontSize=30;fillColor=#FF0000;opacity=70;strokeWidth=3;direction=east;rotation=90;container=0;" parent="Msj7Maj7df4tfXAj90HZ-104" vertex="1">
                    <mxGeometry x="269.23110348082633" y="70.51282051282054" width="19.23070109284942" height="19.23070109284942" as="geometry"/>
                </mxCell>
                <mxCell id="Msj7Maj7df4tfXAj90HZ-64" value="" style="ellipse;whiteSpace=wrap;html=1;aspect=fixed;fontSize=30;fillColor=#FF0000;opacity=70;strokeWidth=3;direction=east;rotation=90;container=0;" parent="Msj7Maj7df4tfXAj90HZ-104" vertex="1">
                    <mxGeometry x="269.23110348082633" y="166.6666666666667" width="19.23070109284942" height="19.23070109284942" as="geometry"/>
                </mxCell>
                <mxCell id="Msj7Maj7df4tfXAj90HZ-65" value="" style="ellipse;whiteSpace=wrap;html=1;aspect=fixed;fontSize=30;fillColor=#FFFF00;opacity=70;strokeWidth=3;direction=east;rotation=90;container=0;" parent="Msj7Maj7df4tfXAj90HZ-104" vertex="1">
                    <mxGeometry x="301.92345176064094" y="147.4358974358975" width="19.23070109284942" height="19.23070109284942" as="geometry"/>
                </mxCell>
                <mxCell id="Msj7Maj7df4tfXAj90HZ-58" style="edgeStyle=none;curved=1;html=1;fontSize=30;endArrow=none;endFill=0;strokeWidth=2;entryX=0;entryY=0.5;entryDx=0;entryDy=0;" parent="Msj7Maj7df4tfXAj90HZ-104" source="Msj7Maj7df4tfXAj90HZ-59" target="Msj7Maj7df4tfXAj90HZ-65" edge="1">
                    <mxGeometry relative="1" as="geometry"/>
                </mxCell>
                <mxCell id="Msj7Maj7df4tfXAj90HZ-63" style="edgeStyle=none;curved=1;html=1;fontSize=30;endArrow=none;endFill=0;strokeWidth=2;entryX=1;entryY=1;entryDx=0;entryDy=0;" parent="Msj7Maj7df4tfXAj90HZ-104" source="Msj7Maj7df4tfXAj90HZ-64" target="Msj7Maj7df4tfXAj90HZ-65" edge="1">
                    <mxGeometry relative="1" as="geometry"/>
                </mxCell>
                <mxCell id="Msj7Maj7df4tfXAj90HZ-67" value="" style="ellipse;whiteSpace=wrap;html=1;aspect=fixed;fontSize=30;fillColor=#FFFF00;opacity=70;strokeWidth=3;direction=east;rotation=90;container=0;" parent="Msj7Maj7df4tfXAj90HZ-104" vertex="1">
                    <mxGeometry x="237.17978163787092" y="89.74358974358977" width="19.23070109284942" height="19.23070109284942" as="geometry"/>
                </mxCell>
                <mxCell id="Msj7Maj7df4tfXAj90HZ-61" style="edgeStyle=none;curved=1;html=1;fontSize=30;endArrow=none;endFill=0;strokeWidth=2;entryX=0;entryY=0;entryDx=0;entryDy=0;" parent="Msj7Maj7df4tfXAj90HZ-104" source="Msj7Maj7df4tfXAj90HZ-62" target="Msj7Maj7df4tfXAj90HZ-67" edge="1">
                    <mxGeometry relative="1" as="geometry"/>
                </mxCell>
                <mxCell id="Msj7Maj7df4tfXAj90HZ-69" value="" style="ellipse;whiteSpace=wrap;html=1;aspect=fixed;fontSize=30;fillColor=#FFFF00;opacity=70;strokeWidth=3;direction=east;rotation=90;container=0;" parent="Msj7Maj7df4tfXAj90HZ-104" vertex="1">
                    <mxGeometry x="237.17978163787092" y="147.4358974358975" width="19.23070109284942" height="19.23070109284942" as="geometry"/>
                </mxCell>
                <mxCell id="Msj7Maj7df4tfXAj90HZ-101" style="edgeStyle=none;curved=1;html=1;entryX=1;entryY=0;entryDx=0;entryDy=0;fontSize=30;endArrow=none;endFill=0;strokeColor=#000000;strokeWidth=2;" parent="Msj7Maj7df4tfXAj90HZ-104" source="Msj7Maj7df4tfXAj90HZ-64" target="Msj7Maj7df4tfXAj90HZ-69" edge="1">
                    <mxGeometry relative="1" as="geometry"/>
                </mxCell>
                <mxCell id="Msj7Maj7df4tfXAj90HZ-66" style="edgeStyle=none;curved=1;html=1;fontSize=30;endArrow=none;endFill=0;strokeWidth=2;entryX=0;entryY=0.5;entryDx=0;entryDy=0;" parent="Msj7Maj7df4tfXAj90HZ-104" source="Msj7Maj7df4tfXAj90HZ-67" target="Msj7Maj7df4tfXAj90HZ-69" edge="1">
                    <mxGeometry relative="1" as="geometry"/>
                </mxCell>
                <mxCell id="Msj7Maj7df4tfXAj90HZ-95" style="edgeStyle=none;curved=1;html=1;fontSize=30;endArrow=none;endFill=0;strokeWidth=2;" parent="Msj7Maj7df4tfXAj90HZ-104" source="Msj7Maj7df4tfXAj90HZ-72" target="Msj7Maj7df4tfXAj90HZ-62" edge="1">
                    <mxGeometry relative="1" as="geometry"/>
                </mxCell>
                <mxCell id="Msj7Maj7df4tfXAj90HZ-96" style="edgeStyle=none;curved=1;html=1;entryX=1;entryY=0.5;entryDx=0;entryDy=0;fontSize=30;endArrow=none;endFill=0;strokeWidth=2;" parent="Msj7Maj7df4tfXAj90HZ-104" source="Msj7Maj7df4tfXAj90HZ-72" target="Msj7Maj7df4tfXAj90HZ-30" edge="1">
                    <mxGeometry relative="1" as="geometry"/>
                </mxCell>
                <mxCell id="Msj7Maj7df4tfXAj90HZ-72" value="" style="ellipse;whiteSpace=wrap;html=1;aspect=fixed;fontSize=30;fillColor=#FF0000;opacity=70;strokeWidth=3;container=0;" parent="Msj7Maj7df4tfXAj90HZ-104" vertex="1">
                    <mxGeometry x="269.23110348082633" y="25.64102564102562" width="19.23070109284942" height="19.23070109284942" as="geometry"/>
                </mxCell>
                <mxCell id="Msj7Maj7df4tfXAj90HZ-73" value="" style="ellipse;whiteSpace=wrap;html=1;aspect=fixed;fontSize=30;fillColor=#FFFF00;opacity=70;strokeWidth=3;direction=east;rotation=90;container=0;" parent="Msj7Maj7df4tfXAj90HZ-104" vertex="1">
                    <mxGeometry x="429.487712695604" y="25.64102564102562" width="19.23070109284942" height="19.23070109284942" as="geometry"/>
                </mxCell>
                <mxCell id="Msj7Maj7df4tfXAj90HZ-97" style="edgeStyle=none;curved=1;html=1;entryX=0.5;entryY=1;entryDx=0;entryDy=0;fontSize=30;endArrow=none;endFill=0;strokeWidth=2;" parent="Msj7Maj7df4tfXAj90HZ-104" source="Msj7Maj7df4tfXAj90HZ-72" target="Msj7Maj7df4tfXAj90HZ-73" edge="1">
                    <mxGeometry relative="1" as="geometry"/>
                </mxCell>
                <mxCell id="Msj7Maj7df4tfXAj90HZ-94" style="edgeStyle=none;curved=1;html=1;entryX=1;entryY=0.5;entryDx=0;entryDy=0;fontSize=30;endArrow=none;endFill=0;strokeWidth=2;" parent="Msj7Maj7df4tfXAj90HZ-104" source="Msj7Maj7df4tfXAj90HZ-74" target="Msj7Maj7df4tfXAj90HZ-64" edge="1">
                    <mxGeometry relative="1" as="geometry"/>
                </mxCell>
                <mxCell id="Msj7Maj7df4tfXAj90HZ-74" value="" style="ellipse;whiteSpace=wrap;html=1;aspect=fixed;fontSize=30;fillColor=#FF0000;opacity=70;strokeWidth=3;container=0;" parent="Msj7Maj7df4tfXAj90HZ-104" vertex="1">
                    <mxGeometry x="269.23110348082633" y="211.53846153846163" width="19.23070109284942" height="19.23070109284942" as="geometry"/>
                </mxCell>
                <mxCell id="Msj7Maj7df4tfXAj90HZ-75" style="edgeStyle=none;html=1;fontSize=30;endArrow=none;endFill=0;strokeWidth=2;" parent="Msj7Maj7df4tfXAj90HZ-104" source="Msj7Maj7df4tfXAj90HZ-76" target="Msj7Maj7df4tfXAj90HZ-74" edge="1">
                    <mxGeometry relative="1" as="geometry"/>
                </mxCell>
                <mxCell id="Msj7Maj7df4tfXAj90HZ-76" value="" style="ellipse;whiteSpace=wrap;html=1;aspect=fixed;fontSize=30;fillColor=#0000FF;opacity=70;strokeWidth=3;container=0;" parent="Msj7Maj7df4tfXAj90HZ-104" vertex="1">
                    <mxGeometry x="301.92345176064094" y="224.35897435897445" width="19.23070109284942" height="19.23070109284942" as="geometry"/>
                </mxCell>
                <mxCell id="Msj7Maj7df4tfXAj90HZ-77" style="edgeStyle=none;html=1;fontSize=30;endArrow=none;endFill=0;strokeWidth=2;" parent="Msj7Maj7df4tfXAj90HZ-104" source="Msj7Maj7df4tfXAj90HZ-78" target="Msj7Maj7df4tfXAj90HZ-74" edge="1">
                    <mxGeometry relative="1" as="geometry"/>
                </mxCell>
                <mxCell id="Msj7Maj7df4tfXAj90HZ-78" value="" style="ellipse;whiteSpace=wrap;html=1;aspect=fixed;fontSize=30;fillColor=#0000FF;opacity=70;strokeWidth=3;container=0;" parent="Msj7Maj7df4tfXAj90HZ-104" vertex="1">
                    <mxGeometry x="237.17978163787092" y="224.35897435897445" width="19.23070109284942" height="19.23070109284942" as="geometry"/>
                </mxCell>
                <mxCell id="Msj7Maj7df4tfXAj90HZ-79" value="" style="ellipse;whiteSpace=wrap;html=1;aspect=fixed;fontSize=30;fillColor=#FF0000;opacity=70;strokeWidth=3;container=0;" parent="Msj7Maj7df4tfXAj90HZ-104" vertex="1">
                    <mxGeometry x="429.487712695604" y="211.53846153846163" width="19.23070109284942" height="19.23070109284942" as="geometry"/>
                </mxCell>
                <mxCell id="Msj7Maj7df4tfXAj90HZ-80" style="edgeStyle=none;html=1;fontSize=30;endArrow=none;endFill=0;strokeWidth=2;" parent="Msj7Maj7df4tfXAj90HZ-104" source="Msj7Maj7df4tfXAj90HZ-81" target="Msj7Maj7df4tfXAj90HZ-79" edge="1">
                    <mxGeometry relative="1" as="geometry"/>
                </mxCell>
                <mxCell id="Msj7Maj7df4tfXAj90HZ-81" value="" style="ellipse;whiteSpace=wrap;html=1;aspect=fixed;fontSize=30;fillColor=#0000FF;opacity=70;strokeWidth=3;container=0;" parent="Msj7Maj7df4tfXAj90HZ-104" vertex="1">
                    <mxGeometry x="461.5390345385596" y="230.76923076923077" width="19.23070109284942" height="19.23070109284942" as="geometry"/>
                </mxCell>
                <mxCell id="Msj7Maj7df4tfXAj90HZ-82" style="edgeStyle=none;html=1;fontSize=30;endArrow=none;endFill=0;strokeWidth=2;" parent="Msj7Maj7df4tfXAj90HZ-104" source="Msj7Maj7df4tfXAj90HZ-83" target="Msj7Maj7df4tfXAj90HZ-79" edge="1">
                    <mxGeometry relative="1" as="geometry"/>
                </mxCell>
                <mxCell id="Msj7Maj7df4tfXAj90HZ-83" value="" style="ellipse;whiteSpace=wrap;html=1;aspect=fixed;fontSize=30;fillColor=#0000FF;opacity=70;strokeWidth=3;container=0;" parent="Msj7Maj7df4tfXAj90HZ-104" vertex="1">
                    <mxGeometry x="397.4363908526484" y="230.76923076923077" width="19.23070109284942" height="19.23070109284942" as="geometry"/>
                </mxCell>
                <mxCell id="Msj7Maj7df4tfXAj90HZ-84" value="" style="ellipse;whiteSpace=wrap;html=1;aspect=fixed;fontSize=30;fillColor=#FFFFFF;opacity=70;strokeWidth=3;container=0;" parent="Msj7Maj7df4tfXAj90HZ-104" vertex="1">
                    <mxGeometry x="429.487712695604" y="99.35897435897441" width="19.23070109284942" height="19.23070109284942" as="geometry"/>
                </mxCell>
                <mxCell id="Msj7Maj7df4tfXAj90HZ-98" style="edgeStyle=none;curved=1;html=1;fontSize=30;endArrow=none;endFill=0;strokeWidth=2;" parent="Msj7Maj7df4tfXAj90HZ-104" source="Msj7Maj7df4tfXAj90HZ-73" target="Msj7Maj7df4tfXAj90HZ-84" edge="1">
                    <mxGeometry relative="1" as="geometry"/>
                </mxCell>
                <mxCell id="Msj7Maj7df4tfXAj90HZ-85" style="edgeStyle=none;html=1;fontSize=30;endArrow=none;endFill=0;strokeWidth=2;" parent="Msj7Maj7df4tfXAj90HZ-104" source="Msj7Maj7df4tfXAj90HZ-86" target="Msj7Maj7df4tfXAj90HZ-84" edge="1">
                    <mxGeometry relative="1" as="geometry"/>
                </mxCell>
                <mxCell id="Msj7Maj7df4tfXAj90HZ-86" value="" style="ellipse;whiteSpace=wrap;html=1;aspect=fixed;fontSize=30;fillColor=#0000FF;opacity=70;strokeWidth=3;container=0;" parent="Msj7Maj7df4tfXAj90HZ-104" vertex="1">
                    <mxGeometry x="467.94929890715053" y="108.97435897435898" width="19.23070109284942" height="19.23070109284942" as="geometry"/>
                </mxCell>
                <mxCell id="Msj7Maj7df4tfXAj90HZ-87" style="edgeStyle=none;html=1;fontSize=30;endArrow=none;endFill=0;strokeWidth=2;" parent="Msj7Maj7df4tfXAj90HZ-104" source="Msj7Maj7df4tfXAj90HZ-88" target="Msj7Maj7df4tfXAj90HZ-84" edge="1">
                    <mxGeometry relative="1" as="geometry"/>
                </mxCell>
                <mxCell id="Msj7Maj7df4tfXAj90HZ-88" value="" style="ellipse;whiteSpace=wrap;html=1;aspect=fixed;fontSize=30;fillColor=#0000FF;opacity=70;strokeWidth=3;container=0;" parent="Msj7Maj7df4tfXAj90HZ-104" vertex="1">
                    <mxGeometry x="391.0261264840573" y="108.97435897435898" width="19.23070109284942" height="19.23070109284942" as="geometry"/>
                </mxCell>
                <mxCell id="Msj7Maj7df4tfXAj90HZ-89" value="" style="ellipse;whiteSpace=wrap;html=1;aspect=fixed;fontSize=30;fillColor=#FFFFFF;opacity=70;strokeWidth=3;container=0;" parent="Msj7Maj7df4tfXAj90HZ-104" vertex="1">
                    <mxGeometry x="429.487712695604" y="153.8461538461539" width="19.23070109284942" height="19.23070109284942" as="geometry"/>
                </mxCell>
                <mxCell id="Msj7Maj7df4tfXAj90HZ-100" style="edgeStyle=none;curved=1;html=1;entryX=0.5;entryY=1;entryDx=0;entryDy=0;fontSize=30;endArrow=none;endFill=0;strokeWidth=2;" parent="Msj7Maj7df4tfXAj90HZ-104" source="Msj7Maj7df4tfXAj90HZ-79" target="Msj7Maj7df4tfXAj90HZ-89" edge="1">
                    <mxGeometry relative="1" as="geometry"/>
                </mxCell>
                <mxCell id="Msj7Maj7df4tfXAj90HZ-99" style="edgeStyle=none;curved=1;html=1;entryX=0.5;entryY=0;entryDx=0;entryDy=0;fontSize=30;endArrow=none;endFill=0;strokeWidth=2;strokeColor=#33FF33;" parent="Msj7Maj7df4tfXAj90HZ-104" source="Msj7Maj7df4tfXAj90HZ-84" target="Msj7Maj7df4tfXAj90HZ-89" edge="1">
                    <mxGeometry relative="1" as="geometry"/>
                </mxCell>
                <mxCell id="Msj7Maj7df4tfXAj90HZ-90" style="edgeStyle=none;html=1;fontSize=30;endArrow=none;endFill=0;strokeWidth=2;" parent="Msj7Maj7df4tfXAj90HZ-104" source="Msj7Maj7df4tfXAj90HZ-91" target="Msj7Maj7df4tfXAj90HZ-89" edge="1">
                    <mxGeometry relative="1" as="geometry"/>
                </mxCell>
                <mxCell id="Msj7Maj7df4tfXAj90HZ-91" value="" style="ellipse;whiteSpace=wrap;html=1;aspect=fixed;fontSize=30;fillColor=#0000FF;opacity=70;strokeWidth=3;container=0;" parent="Msj7Maj7df4tfXAj90HZ-104" vertex="1">
                    <mxGeometry x="467.94929890715053" y="147.4358974358975" width="19.23070109284942" height="19.23070109284942" as="geometry"/>
                </mxCell>
                <mxCell id="Msj7Maj7df4tfXAj90HZ-92" style="edgeStyle=none;html=1;fontSize=30;endArrow=none;endFill=0;strokeWidth=2;" parent="Msj7Maj7df4tfXAj90HZ-104" source="Msj7Maj7df4tfXAj90HZ-93" target="Msj7Maj7df4tfXAj90HZ-89" edge="1">
                    <mxGeometry relative="1" as="geometry"/>
                </mxCell>
                <mxCell id="Msj7Maj7df4tfXAj90HZ-93" value="" style="ellipse;whiteSpace=wrap;html=1;aspect=fixed;fontSize=30;fillColor=#0000FF;opacity=70;strokeWidth=3;container=0;" parent="Msj7Maj7df4tfXAj90HZ-104" vertex="1">
                    <mxGeometry x="391.0261264840573" y="147.4358974358975" width="19.23070109284942" height="19.23070109284942" as="geometry"/>
                </mxCell>
                <mxCell id="198" value="" style="group;fillColor=#FFFFFF;strokeColor=#FFFFFF;fontColor=#FFFFFF;" parent="skvkwWqHoztt7yABa-7v-1" vertex="1" connectable="0">
                    <mxGeometry width="2339.0000000000005" height="373" as="geometry"/>
                </mxCell>
                <mxCell id="skvkwWqHoztt7yABa-7v-3" value="" style="rounded=0;whiteSpace=wrap;html=1;fontFamily=DM Sans;fontSource=https%3A%2F%2Ffonts.googleapis.com%2Fcss%3Ffamily%3DDM%2BSans;fontSize=85;fillColor=#22577A;strokeColor=#FFFFFF;strokeWidth=5;" parent="198" vertex="1">
                    <mxGeometry width="2339.0000000000005" height="373" as="geometry"/>
                </mxCell>
                <mxCell id="skvkwWqHoztt7yABa-7v-4" value="" style="rounded=0;whiteSpace=wrap;html=1;fontFamily=DM Sans;fontSource=https%3A%2F%2Ffonts.googleapis.com%2Fcss%3Ffamily%3DDM%2BSans;fontSize=85;strokeColor=none;fillColor=#FFFFFF;fontColor=#FFFFFF;" parent="198" vertex="1">
                    <mxGeometry x="470.70849565217384" y="275.7881351351351" width="780.1480260869562" height="7.107162162162162" as="geometry"/>
                </mxCell>
                <mxCell id="skvkwWqHoztt7yABa-7v-2" value="&lt;font style=&quot;font-size: 140px&quot; data-font-src=&quot;https://fonts.googleapis.com/css?family=DM+Sans&quot;&gt;Smater Circuits&lt;/font&gt;" style="text;html=1;align=center;verticalAlign=middle;resizable=0;points=[];autosize=1;fontStyle=1;fontSize=100;fontFamily=DM Sans;fontSource=https%3A%2F%2Ffonts.googleapis.com%2Fcss%3Ffamily%3DDM%2BSans;fillColor=none;fontColor=#FFFFFF;" parent="198" vertex="1">
                    <mxGeometry x="453.75310051521996" y="115.9295521235521" width="1020" height="140" as="geometry"/>
                </mxCell>
                <mxCell id="160" value="" style="shape=image;verticalLabelPosition=bottom;labelBackgroundColor=#ffffff;verticalAlign=top;aspect=fixed;imageAspect=0;image=data:image/svg+xml,PHN2ZyB4bWxucz0iaHR0cDovL3d3dy53My5vcmcvMjAwMC9zdmciIHhtbG5zOnhsaW5rPSJodHRwOi8vd3d3LnczLm9yZy8xOTk5L3hsaW5rIiB2aWV3Qm94PSIwIDAgMjg2IDY0Ij48Zz48Zz48ZGVmcz48cGF0aCBpZD0iU1ZHSURfMV8iIGQ9Ik00Ny41IDE3LjZMMjUgNC44djUyLjZsOS01LjJWMzcuNGw2LjggMy45LS4xLTEwLjEtNi43LTMuOXYtNS45bDEzLjUgNy45eiIvPjwvZGVmcz48Y2xpcFBhdGggaWQ9IlNWR0lEXzJfIj48dXNlIHhsaW5rOmhyZWY9IiNTVkdJRF8xXyIgb3ZlcmZsb3c9InZpc2libGUiLz48L2NsaXBQYXRoPjxnIGNsaXAtcGF0aD0idXJsKCNTVkdJRF8yXykiPjxsaW5lYXJHcmFkaWVudCBpZD0iU1ZHSURfM18iIGdyYWRpZW50VW5pdHM9InVzZXJTcGFjZU9uVXNlIiB4MT0iLTEuNiIgeTE9IjMzNS4wNSIgeDI9IjUzLjYiIHkyPSIzMzUuMDUiIGdyYWRpZW50VHJhbnNmb3JtPSJ0cmFuc2xhdGUoMCAtMzA0KSI+PHN0b3Agb2Zmc2V0PSIwIiBzdG9wLWNvbG9yPSIjZmY2ZjAwIi8+PHN0b3Agb2Zmc2V0PSIxIiBzdG9wLWNvbG9yPSIjZmZhODAwIi8+PC9saW5lYXJHcmFkaWVudD48cGF0aCBkPSJNLTEuNiA0LjZoNTUuMnY1Mi45SC0xLjZWNC42eiIgZmlsbD0idXJsKCNTVkdJRF8zXykiLz48L2c+PC9nPjwvZz48Zz48Zz48ZGVmcz48cGF0aCBpZD0iU1ZHSURfNF8iIGQ9Ik0uNSAxNy42TDIzIDQuOHY1Mi42bC05LTUuMlYyMS40TC41IDI5LjN6Ii8+PC9kZWZzPjxjbGlwUGF0aCBpZD0iU1ZHSURfNV8iPjx1c2UgeGxpbms6aHJlZj0iI1NWR0lEXzRfIiBvdmVyZmxvdz0idmlzaWJsZSIvPjwvY2xpcFBhdGg+PGcgY2xpcC1wYXRoPSJ1cmwoI1NWR0lEXzVfKSI+PGxpbmVhckdyYWRpZW50IGlkPSJTVkdJRF82XyIgZ3JhZGllbnRVbml0cz0idXNlclNwYWNlT25Vc2UiIHgxPSItMS45IiB5MT0iMzM1LjA1IiB4Mj0iNTMuMyIgeTI9IjMzNS4wNSIgZ3JhZGllbnRUcmFuc2Zvcm09InRyYW5zbGF0ZSgwIC0zMDQpIj48c3RvcCBvZmZzZXQ9IjAiIHN0b3AtY29sb3I9IiNmZjZmMDAiLz48c3RvcCBvZmZzZXQ9IjEiIHN0b3AtY29sb3I9IiNmZmE4MDAiLz48L2xpbmVhckdyYWRpZW50PjxwYXRoIGQ9Ik0tMS45IDQuNmg1NS4ydjUyLjlILTEuOVY0LjZ6IiBmaWxsPSJ1cmwoI1NWR0lEXzZfKSIvPjwvZz48L2c+PC9nPjxwYXRoIHN0eWxlPSJmaWxsOiM0MjUwNjYiIGQ9Ik04OC4yIDIxLjFoLTEwdjI3LjdoLTUuNlYyMS4xaC0xMHYtNC41aDI1LjZ2NC41eiIvPjxwYXRoIHN0eWxlPSJmaWxsOiM0MjUwNjYiIGQ9Ik05NC45IDQ5LjJjLTMuNCAwLTYuMi0xLjEtOC4zLTMuMi0yLjEtMi4xLTMuMi01LTMuMi04LjZ2LS43YzAtMi4yLjQtNC40IDEuNC02LjQuOS0xLjggMi4yLTMuMyAzLjktNC40IDEuNy0xLjEgMy42LTEuNiA1LjYtMS42IDMuMyAwIDUuOCAxIDcuNiAzLjFzMi43IDUgMi43IDguOHYyLjJIODguOWMuMSAxLjguOCAzLjQgMiA0LjcgMS4yIDEuMiAyLjcgMS44IDQuNCAxLjcgMi40LjEgNC42LTEuMSA2LTNsMi45IDIuOGMtMSAxLjQtMi4zIDIuNi0zLjggMy4zLTEuOCAxLTMuNiAxLjQtNS41IDEuM3ptLS42LTIwLjVjLTEuNC0uMS0yLjcuNS0zLjYgMS41LTEgMS4yLTEuNiAyLjctMS43IDQuM2gxMC4zdi0uNGMtLjEtMS44LS42LTMuMi0xLjQtNC4xLTEtLjgtMi4zLTEuNC0zLjYtMS4zem0xOS40LTMuOWwuMiAyLjhjMS43LTIuMSA0LjMtMy4zIDctMy4yIDUgMCA3LjUgMi45IDcuNiA4LjZ2MTUuOGgtNS40VjMzLjNjMC0xLjUtLjMtMi42LTEtMy40LS43LS43LTEuNy0xLjEtMy4yLTEuMS0yLjEtLjEtNCAxLjEtNC45IDIuOXYxN2gtNS40di0yNGw1LjEuMXptMzIuMiAxNy41YzAtLjktLjQtMS43LTEuMi0yLjItMS4yLS43LTIuNi0xLjEtMy45LTEuMy0xLjYtLjMtMy4xLS44LTQuNi0xLjUtMi43LTEuMy00LTMuMi00LTUuNiAwLTIgMS00IDIuNi01LjIgMS43LTEuNCA0LTIuMSA2LjYtMi4xIDIuOSAwIDUuMi43IDYuOSAyLjEgMS43IDEuMyAyLjcgMy40IDIuNiA1LjVoLTUuNGMwLTEtLjQtMS45LTEuMi0yLjYtLjktLjctMS45LTEuMS0zLjEtMS0xIDAtMiAuMi0yLjkuOC0uNy41LTEuMSAxLjMtMS4xIDIuMiAwIC44LjQgMS41IDEgMS45LjcuNSAyLjEuOSA0LjIgMS40IDEuNy4zIDMuNC45IDUgMS43IDEuMS41IDIgMS4zIDIuNyAyLjMuNiAxIC45IDIuMS45IDMuMyAwIDIuMS0xIDQtMi43IDUuMi0xLjggMS4zLTQuMSAyLTcgMi0xLjggMC0zLjYtLjMtNS4yLTEuMS0xLjQtLjYtMi43LTEuNi0zLjYtMi45LS44LTEuMi0xLjMtMi42LTEuMy00aDUuMmMwIDEuMS41IDIuMiAxLjQgMi45IDEgLjcgMi4zIDEuMSAzLjUgMSAxLjQgMCAyLjUtLjMgMy4yLS44IDEtLjQgMS40LTEuMiAxLjQtMnptOC4xLTUuN2MwLTIuMi40LTQuNCAxLjQtNi4zLjktMS44IDIuMi0zLjMgMy45LTQuMyAxLjgtMSAzLjgtMS42IDUuOC0xLjUgMy4yIDAgNS45IDEgNy45IDMuMXMzLjEgNC44IDMuMyA4LjN2MS4zYzAgMi4yLS40IDQuMy0xLjQgNi4zLS44IDEuOC0yLjIgMy4zLTMuOSA0LjMtMS44IDEtMy44IDEuNi01LjkgMS41LTMuNCAwLTYuMS0xLjEtOC4xLTMuNC0yLTIuMi0zLTUuMi0zLjEtOWwuMS0uM3ptNS4zLjVjMCAyLjUuNSA0LjQgMS41IDUuOCAxLjggMi4zIDUuMSAyLjggNy41IDEgLjQtLjMuNy0uNiAxLTEgMS0xLjQgMS41LTMuNSAxLjUtNi4yIDAtMi40LS41LTQuMy0xLjYtNS44LTEuNy0yLjMtNS0yLjgtNy40LTEuMS0uNC4zLS44LjctMS4xIDEtLjggMS40LTEuNCAzLjUtMS40IDYuM3ptMzMuMS03LjNjLS43LS4xLTEuNS0uMi0yLjItLjItMi41IDAtNC4xLjktNSAyLjh2MTYuNGgtNS40di0yNGg1LjFsLjEgMi43YzEuMy0yLjEgMy4xLTMuMSA1LjQtMy4xLjYgMCAxLjMuMSAxLjkuM2wuMSA1LjF6bTIyLjUgNS4zaC0xM3YxMy43aC01LjZWMTYuNmgyMC41djQuNWgtMTQuOXY5LjZoMTN2NC40em0xMC43IDEzLjdoLTUuNFYxNi41aDUuNHYzMi4zem0zLjktMTIuMmMwLTIuMi40LTQuNCAxLjQtNi4zLjktMS44IDIuMi0zLjMgMy45LTQuMyAxLjgtMSAzLjgtMS42IDUuOC0xLjUgMy4yIDAgNS45IDEgNy45IDMuMXMzLjEgNC44IDMuMyA4LjN2MS4zYzAgMi4yLS40IDQuMy0xLjMgNi4zLS44IDEuOC0yLjIgMy4zLTMuOSA0LjMtMS44IDEtMy44IDEuNi01LjkgMS41LTMuNCAwLTYuMS0xLjEtOC4xLTMuNC0yLTIuMi0zLjEtNS4yLTMuMS05di0uM3ptNS40LjVjMCAyLjUuNSA0LjQgMS41IDUuOCAxIDEuNCAyLjYgMi4yIDQuMyAyLjEgMS43LjEgMy4zLS43IDQuMi0yLjEgMS0xLjQgMS41LTMuNSAxLjUtNi4yIDAtMi40LS41LTQuMy0xLjYtNS44LTEuNy0yLjMtNS0yLjgtNy40LTEuMS0uNC4zLS44LjctMS4xIDEtLjkgMS40LTEuNCAzLjUtMS40IDYuM3ptNDEuMiA0LjNsMy44LTE2LjVoNS4ybC02LjUgMjRoLTQuNGwtNS4xLTE2LjUtNS4xIDE2LjVoLTQuNGwtNi42LTI0aDUuM2wzLjkgMTYuNCA0LjktMTYuNGg0LjFsNC45IDE2LjV6Ii8+PC9zdmc+;" parent="skvkwWqHoztt7yABa-7v-1" vertex="1">
                    <mxGeometry x="740" y="560" width="804.39" height="180" as="geometry"/>
                </mxCell>
                <mxCell id="164" value="" style="group;strokeWidth=10;" parent="skvkwWqHoztt7yABa-7v-1" vertex="1" connectable="0">
                    <mxGeometry x="310" y="1779.9999999999995" width="551.46" height="270.1400000000001" as="geometry"/>
                </mxCell>
                <mxCell id="2" value="" style="endArrow=none;html=1;fontSize=30;strokeColor=#000000;strokeWidth=10;curved=1;sketch=1;startArrow=none;" parent="164" edge="1">
                    <mxGeometry width="50" height="50" relative="1" as="geometry">
                        <mxPoint x="52.16513513513564" y="251.5096551724139" as="sourcePoint"/>
                        <mxPoint x="52.16513513513514" y="36.739040000000045" as="targetPoint"/>
                    </mxGeometry>
                </mxCell>
                <mxCell id="3" value="" style="endArrow=none;html=1;fontSize=30;strokeColor=#000000;strokeWidth=10;curved=1;sketch=1;" parent="164" edge="1">
                    <mxGeometry width="50" height="50" relative="1" as="geometry">
                        <mxPoint x="84" y="260.3031779310345" as="sourcePoint"/>
                        <mxPoint x="16" y="260.3031779310345" as="targetPoint"/>
                    </mxGeometry>
                </mxCell>
                <mxCell id="4" value="" style="endArrow=none;html=1;fontSize=30;strokeColor=#000000;strokeWidth=10;curved=1;sketch=1;" parent="164" edge="1">
                    <mxGeometry width="50" height="50" relative="1" as="geometry">
                        <mxPoint x="164.45058851351348" y="37.26068965517241" as="sourcePoint"/>
                        <mxPoint x="52.66815608108105" y="37.26068965517241" as="targetPoint"/>
                    </mxGeometry>
                </mxCell>
                <mxCell id="6" value="" style="rounded=0;whiteSpace=wrap;html=1;sketch=1;fontSize=30;strokeColor=#000000;strokeWidth=10;fillColor=none;" parent="164" vertex="1">
                    <mxGeometry x="164.45058851351348" y="9.315172413793103" width="111.78243243243243" height="55.89103448275861" as="geometry"/>
                </mxCell>
                <mxCell id="13" value="" style="endArrow=none;html=1;fontSize=30;strokeColor=#000000;strokeWidth=10;curved=1;sketch=1;" parent="164" edge="1">
                    <mxGeometry width="50" height="50" relative="1" as="geometry">
                        <mxPoint x="537.0586966216221" y="147.99945931034492" as="sourcePoint"/>
                        <mxPoint x="462.5370750000004" y="147.99945931034492" as="targetPoint"/>
                    </mxGeometry>
                </mxCell>
                <mxCell id="14" value="" style="endArrow=none;html=1;fontSize=30;strokeColor=#000000;strokeWidth=10;curved=1;sketch=1;" parent="164" edge="1">
                    <mxGeometry width="50" height="50" relative="1" as="geometry">
                        <mxPoint x="537.0586966216221" y="166.62980413793113" as="sourcePoint"/>
                        <mxPoint x="462.5370750000004" y="166.62980413793113" as="targetPoint"/>
                    </mxGeometry>
                </mxCell>
                <mxCell id="10" value="" style="endArrow=none;html=1;fontSize=30;strokeColor=#000000;strokeWidth=10;curved=1;sketch=1;startArrow=none;" parent="164" source="18" edge="1">
                    <mxGeometry width="50" height="50" relative="1" as="geometry">
                        <mxPoint x="499.7978858108108" y="37.26068965517241" as="sourcePoint"/>
                        <mxPoint x="276.23302094594635" y="36.739040000000045" as="targetPoint"/>
                    </mxGeometry>
                </mxCell>
                <mxCell id="7" value="" style="group;strokeWidth=10;" parent="164" vertex="1" connectable="0">
                    <mxGeometry x="322.80903445945944" y="93.15172413793103" width="102.46722972972974" height="111.78206896551723" as="geometry"/>
                </mxCell>
                <mxCell id="8" value="" style="rounded=0;whiteSpace=wrap;html=1;sketch=1;fontSize=30;strokeColor=#000000;strokeWidth=10;fillColor=none;direction=south;" parent="7" vertex="1">
                    <mxGeometry width="55.891216216216215" height="111.78206896551723" as="geometry"/>
                </mxCell>
                <mxCell id="9" value="" style="rounded=0;whiteSpace=wrap;html=1;sketch=0;fontSize=30;strokeColor=#000000;strokeWidth=10;fillColor=#000000;direction=south;" parent="7" vertex="1">
                    <mxGeometry x="1.8630405405405406" y="1.8630344827586205" width="52.16513513513514" height="108.05599999999998" as="geometry"/>
                </mxCell>
                <mxCell id="44" value="" style="rounded=1;whiteSpace=wrap;html=1;fillColor=none;strokeWidth=4;strokeColor=#FF0000;rotation=90;align=left;" parent="7" vertex="1">
                    <mxGeometry x="-40.03903445945929" y="17.73827586206893" width="135.96" height="76.3" as="geometry"/>
                </mxCell>
                <mxCell id="17" value="" style="endArrow=none;html=1;fontSize=30;strokeColor=#000000;strokeWidth=10;curved=1;sketch=1;" parent="164" edge="1">
                    <mxGeometry width="50" height="50" relative="1" as="geometry">
                        <mxPoint x="499.79788581081124" y="149.04275862068965" as="sourcePoint"/>
                        <mxPoint x="499.7978858108108" y="37.26068965517241" as="targetPoint"/>
                    </mxGeometry>
                </mxCell>
                <mxCell id="18" value="" style="ellipse;whiteSpace=wrap;html=1;aspect=fixed;sketch=1;fontSize=30;strokeColor=#000000;strokeWidth=10;fillColor=#000000;" parent="164" vertex="1">
                    <mxGeometry x="345.1655209459459" y="31.67158620689655" width="11.178206896551723" height="11.178206896551723" as="geometry"/>
                </mxCell>
                <mxCell id="19" value="" style="endArrow=none;html=1;fontSize=30;strokeColor=#000000;strokeWidth=10;curved=1;sketch=1;" parent="164" target="18" edge="1">
                    <mxGeometry width="50" height="50" relative="1" as="geometry">
                        <mxPoint x="499.79788581081124" y="37.26068965517241" as="sourcePoint"/>
                        <mxPoint x="276.23302094594635" y="36.73904000000047" as="targetPoint"/>
                    </mxGeometry>
                </mxCell>
                <mxCell id="22" value="" style="rounded=1;whiteSpace=wrap;html=1;fillColor=none;strokeWidth=4;strokeColor=#FF0000;" parent="164" vertex="1">
                    <mxGeometry x="152.91" y="-2.74" width="134.86" height="80" as="geometry"/>
                </mxCell>
                <mxCell id="12" value="" style="endArrow=none;html=1;fontSize=30;strokeColor=#000000;strokeWidth=10;curved=1;sketch=1;" parent="164" edge="1">
                    <mxGeometry width="50" height="50" relative="1" as="geometry">
                        <mxPoint x="383" y="260.5081117241378" as="sourcePoint"/>
                        <mxPoint x="318" y="260.5081117241378" as="targetPoint"/>
                    </mxGeometry>
                </mxCell>
                <mxCell id="15" value="" style="endArrow=none;html=1;fontSize=30;strokeColor=#000000;strokeWidth=10;curved=1;sketch=1;" parent="164" edge="1">
                    <mxGeometry width="50" height="50" relative="1" as="geometry">
                        <mxPoint x="531" y="260.5081117241378" as="sourcePoint"/>
                        <mxPoint x="467" y="260.5081117241378" as="targetPoint"/>
                    </mxGeometry>
                </mxCell>
                <mxCell id="16" value="" style="endArrow=none;html=1;fontSize=30;strokeColor=#000000;strokeWidth=10;curved=1;sketch=1;" parent="164" edge="1">
                    <mxGeometry width="50" height="50" relative="1" as="geometry">
                        <mxPoint x="499.7978858108108" y="260.8248275862069" as="sourcePoint"/>
                        <mxPoint x="499.79788581081124" y="167.67310344827584" as="targetPoint"/>
                    </mxGeometry>
                </mxCell>
                <mxCell id="54" value="" style="rounded=1;whiteSpace=wrap;html=1;fillColor=none;strokeWidth=4;strokeColor=#FF0000;" parent="164" vertex="1">
                    <mxGeometry x="451.8" y="130.41" width="93.56" height="49.59" as="geometry"/>
                </mxCell>
                <mxCell id="60" value="" style="endArrow=none;html=1;fontSize=30;strokeColor=#000000;strokeWidth=10;curved=1;sketch=1;" parent="164" edge="1">
                    <mxGeometry width="50" height="50" relative="1" as="geometry">
                        <mxPoint x="52.16513513513514" y="260.30317793103495" as="sourcePoint"/>
                        <mxPoint x="52.16513513512564" y="251.5096551724139" as="targetPoint"/>
                    </mxGeometry>
                </mxCell>
                <mxCell id="11" value="" style="endArrow=none;html=1;fontSize=30;strokeColor=#000000;strokeWidth=10;curved=1;sketch=1;" parent="164" edge="1">
                    <mxGeometry width="50" height="50" relative="1" as="geometry">
                        <mxPoint x="350.23299121621665" y="260.8248275862069" as="sourcePoint"/>
                        <mxPoint x="350.23299121621665" y="37.26068965517241" as="targetPoint"/>
                    </mxGeometry>
                </mxCell>
                <mxCell id="51" value="" style="rounded=1;whiteSpace=wrap;html=1;fillColor=none;strokeWidth=4;strokeColor=#FF0000;rotation=90;" parent="164" vertex="1">
                    <mxGeometry x="3.99" y="103.77000000000001" width="95.34" height="89.51" as="geometry"/>
                </mxCell>
                <mxCell id="5" value="" style="ellipse;whiteSpace=wrap;html=1;aspect=fixed;fontSize=30;strokeWidth=10;fillColor=none;sketch=1;strokeColor=#000000;" parent="164" vertex="1">
                    <mxGeometry x="14.904324324324325" y="111.26041931034487" width="74.52137931034483" height="74.52137931034483" as="geometry"/>
                </mxCell>
                <mxCell id="165" value="" style="ellipse;whiteSpace=wrap;html=1;aspect=fixed;strokeWidth=10;fillColor=#000000;" parent="164" vertex="1">
                    <mxGeometry x="348.25" y="34.75999999999999" width="5" height="5" as="geometry"/>
                </mxCell>
                <mxCell id="183" value="" style="rounded=1;whiteSpace=wrap;html=1;fillColor=none;strokeWidth=4;strokeColor=#FF0000;" parent="164" vertex="1">
                    <mxGeometry x="4.66" y="240" width="94" height="30.14" as="geometry"/>
                </mxCell>
                <mxCell id="184" value="" style="rounded=1;whiteSpace=wrap;html=1;fillColor=none;strokeWidth=4;strokeColor=#FF0000;" parent="164" vertex="1">
                    <mxGeometry x="303.75" y="240" width="94" height="30.14" as="geometry"/>
                </mxCell>
                <mxCell id="185" value="" style="rounded=1;whiteSpace=wrap;html=1;fillColor=none;strokeWidth=4;strokeColor=#FF0000;" parent="164" vertex="1">
                    <mxGeometry x="451.8" y="240" width="95" height="30.14" as="geometry"/>
                </mxCell>
                <mxCell id="213" value="" style="group" parent="skvkwWqHoztt7yABa-7v-1" connectable="0" vertex="1">
                    <mxGeometry x="1280.0034367916842" y="1640" width="128.20519535889844" height="76.92300878515698" as="geometry"/>
                </mxCell>
                <mxCell id="71" value="" style="ellipse;whiteSpace=wrap;html=1;aspect=fixed;fontSize=30;fillColor=#FFFF00;opacity=70;strokeWidth=3;container=0;" parent="213" vertex="1">
                    <mxGeometry x="25.64105747436497" width="19.23070109284942" height="19.23070109284942" as="geometry"/>
                </mxCell>
                <mxCell id="72" style="edgeStyle=none;curved=1;html=1;entryX=0;entryY=1;entryDx=0;entryDy=0;fontSize=30;endArrow=none;endFill=0;strokeWidth=2;" parent="213" source="73" target="71" edge="1">
                    <mxGeometry relative="1" as="geometry"/>
                </mxCell>
                <mxCell id="73" value="" style="ellipse;whiteSpace=wrap;html=1;aspect=fixed;fontSize=30;fillColor=#FF0000;opacity=70;strokeWidth=3;container=0;" parent="213" vertex="1">
                    <mxGeometry y="25.641025641025408" width="19.23070109284942" height="19.23070109284942" as="geometry"/>
                </mxCell>
                <mxCell id="74" value="" style="ellipse;whiteSpace=wrap;html=1;aspect=fixed;fontSize=30;fillColor=#FF0000;opacity=70;strokeWidth=3;container=0;" parent="213" vertex="1">
                    <mxGeometry x="108.97449426604908" y="25.641025641025408" width="19.23070109284942" height="19.23070109284942" as="geometry"/>
                </mxCell>
                <mxCell id="75" value="" style="ellipse;whiteSpace=wrap;html=1;aspect=fixed;fontSize=30;fillColor=#FFFF00;opacity=70;strokeWidth=3;container=0;" parent="213" vertex="1">
                    <mxGeometry x="83.33343679168411" width="19.23070109284942" height="19.23070109284942" as="geometry"/>
                </mxCell>
                <mxCell id="76" style="edgeStyle=none;curved=1;html=1;entryX=0;entryY=0.5;entryDx=0;entryDy=0;fontSize=30;endArrow=none;endFill=0;strokeWidth=2;" parent="213" source="71" target="75" edge="1">
                    <mxGeometry relative="1" as="geometry"/>
                </mxCell>
                <mxCell id="77" style="edgeStyle=none;curved=1;html=1;entryX=1;entryY=1;entryDx=0;entryDy=0;fontSize=30;endArrow=none;endFill=0;strokeWidth=2;" parent="213" source="74" target="75" edge="1">
                    <mxGeometry relative="1" as="geometry"/>
                </mxCell>
                <mxCell id="78" value="" style="ellipse;whiteSpace=wrap;html=1;aspect=fixed;fontSize=30;fillColor=#FFFF00;opacity=70;strokeWidth=3;container=0;" parent="213" vertex="1">
                    <mxGeometry x="25.64105747436497" y="57.69230769230762" width="19.23070109284942" height="19.23070109284942" as="geometry"/>
                </mxCell>
                <mxCell id="79" style="edgeStyle=none;curved=1;html=1;entryX=0;entryY=0;entryDx=0;entryDy=0;fontSize=30;endArrow=none;endFill=0;strokeWidth=2;" parent="213" source="73" target="78" edge="1">
                    <mxGeometry relative="1" as="geometry"/>
                </mxCell>
                <mxCell id="80" style="edgeStyle=none;curved=1;html=1;entryX=0;entryY=1;entryDx=0;entryDy=0;fontSize=30;endArrow=none;endFill=0;strokeWidth=2;" parent="213" source="81" target="74" edge="1">
                    <mxGeometry relative="1" as="geometry"/>
                </mxCell>
                <mxCell id="81" value="" style="ellipse;whiteSpace=wrap;html=1;aspect=fixed;fontSize=30;fillColor=#FFFF00;opacity=70;strokeWidth=3;container=0;" parent="213" vertex="1">
                    <mxGeometry x="83.33343679168411" y="57.69230769230762" width="19.23070109284942" height="19.23070109284942" as="geometry"/>
                </mxCell>
                <mxCell id="82" style="edgeStyle=none;curved=1;html=1;entryX=0;entryY=0.5;entryDx=0;entryDy=0;fontSize=30;endArrow=none;endFill=0;strokeWidth=2;" parent="213" source="78" target="81" edge="1">
                    <mxGeometry relative="1" as="geometry"/>
                </mxCell>
                <mxCell id="216" value="" style="rounded=0;whiteSpace=wrap;html=1;strokeWidth=5;fillColor=#C7F9CC;strokeColor=#FFFFFF;" parent="skvkwWqHoztt7yABa-7v-1" vertex="1">
                    <mxGeometry x="1754" y="373" width="584" height="584" as="geometry"/>
                </mxCell>
                <mxCell id="224" value="" style="rounded=0;whiteSpace=wrap;html=1;strokeWidth=5;fillColor=#38A3A5;strokeColor=#FFFFFF;" parent="skvkwWqHoztt7yABa-7v-1" vertex="1">
                    <mxGeometry x="1755" y="960" width="584" height="584" as="geometry"/>
                </mxCell>
                <mxCell id="179" value="" style="shape=image;verticalLabelPosition=bottom;labelBackgroundColor=#ffffff;verticalAlign=top;aspect=fixed;imageAspect=0;image=data:image/svg+xml,PHN2ZyB4bWxuczpkYz0iaHR0cDovL3B1cmwub3JnL2RjL2VsZW1lbnRzLzEuMS8iIHhtbG5zOmNjPSJodHRwOi8vY3JlYXRpdmVjb21tb25zLm9yZy9ucyMiIHhtbG5zOnJkZj0iaHR0cDovL3d3dy53My5vcmcvMTk5OS8wMi8yMi1yZGYtc3ludGF4LW5zIyIgeG1sbnM6c3ZnPSJodHRwOi8vd3d3LnczLm9yZy8yMDAwL3N2ZyIgeG1sbnM9Imh0dHA6Ly93d3cudzMub3JnLzIwMDAvc3ZnIiB4bWxuczpzb2RpcG9kaT0iaHR0cDovL3NvZGlwb2RpLnNvdXJjZWZvcmdlLm5ldC9EVEQvc29kaXBvZGktMC5kdGQiIHhtbG5zOmlua3NjYXBlPSJodHRwOi8vd3d3Lmlua3NjYXBlLm9yZy9uYW1lc3BhY2VzL2lua3NjYXBlIiB3aWR0aD0iMjEwbW0iIGhlaWdodD0iMjEwbW0iIHZpZXdCb3g9IjAgMCAyMTAgMjEwIiB2ZXJzaW9uPSIxLjEiIGlkPSJzdmcxNjc3IiBpbmtzY2FwZTp2ZXJzaW9uPSIwLjkyLjMgKDI0MDU1NDYsIDIwMTgtMDMtMTEpIiBzb2RpcG9kaTpkb2NuYW1lPSJMb2dvLnN2ZyI+CiAgPGRlZnMgaWQ9ImRlZnMxNjcxIi8+CiAgPHNvZGlwb2RpOm5hbWVkdmlldyBpZD0iYmFzZSIgcGFnZWNvbG9yPSIjZmZmZmZmIiBib3JkZXJjb2xvcj0iIzY2NjY2NiIgYm9yZGVyb3BhY2l0eT0iMS4wIiBpbmtzY2FwZTpwYWdlb3BhY2l0eT0iMC4wIiBpbmtzY2FwZTpwYWdlc2hhZG93PSIyIiBpbmtzY2FwZTp6b29tPSIwLjQ5NDk3NDc1IiBpbmtzY2FwZTpjeD0iMzg5LjA3MDUzIiBpbmtzY2FwZTpjeT0iNTYyLjI3NDU5IiBpbmtzY2FwZTpkb2N1bWVudC11bml0cz0ibW0iIGlua3NjYXBlOmN1cnJlbnQtbGF5ZXI9ImxheWVyMSIgc2hvd2dyaWQ9ImZhbHNlIiBpbmtzY2FwZTp3aW5kb3ctd2lkdGg9IjE5MjAiIGlua3NjYXBlOndpbmRvdy1oZWlnaHQ9IjEwMjciIGlua3NjYXBlOndpbmRvdy14PSItOCIgaW5rc2NhcGU6d2luZG93LXk9Ii04IiBpbmtzY2FwZTp3aW5kb3ctbWF4aW1pemVkPSIxIiB1bml0cz0iaW4iIGhlaWdodD0iOWluIi8+CiAgCiAgPGcgaW5rc2NhcGU6bGFiZWw9IkViZW5lIDEiIGlua3NjYXBlOmdyb3VwbW9kZT0ibGF5ZXIiIGlkPSJsYXllcjEiIHRyYW5zZm9ybT0idHJhbnNsYXRlKDAsLTg3KSI+CiAgICA8cGF0aCBzdHlsZT0iZmlsbDojYWRkOGU2O2ZpbGwtb3BhY2l0eToxO3N0cm9rZTpub25lO3N0cm9rZS13aWR0aDowLjY3NjgwMDkxcHg7c3Ryb2tlLWxpbmVjYXA6YnV0dDtzdHJva2UtbGluZWpvaW46bWl0ZXI7c3Ryb2tlLW9wYWNpdHk6MSIgZD0ibSAzMC4yNDQ5MjUsMjE4LjQ2NDA0IC0xMy42NzM0MzMsMjIuMjE5MzggNC4zNjg4NjksNi4yNjU4NyA2Ljk2Mjk3OSwyLjY1NjA3IDEyLjkzODUyMywtMjguNTc3NTUgeiIgaWQ9InBhdGg4NDctNTQtMS01Mi0zIiBpbmtzY2FwZTpjb25uZWN0b3ItY3VydmF0dXJlPSIwIiBzb2RpcG9kaTpub2RldHlwZXM9ImNjY2NjYyIgaW5rc2NhcGU6ZXhwb3J0LXhkcGk9IjY3Mi4yOTg0IiBpbmtzY2FwZTpleHBvcnQteWRwaT0iNjcyLjI5ODQiLz4KICAgIDxwYXRoIHN0eWxlPSJmaWxsOiNhZGQ4ZTY7ZmlsbC1vcGFjaXR5OjE7c3Ryb2tlOm5vbmU7c3Ryb2tlLXdpZHRoOjAuNjc2ODAwOTFweDtzdHJva2UtbGluZWNhcDpidXR0O3N0cm9rZS1saW5lam9pbjptaXRlcjtzdHJva2Utb3BhY2l0eToxIiBkPSJtIDEwOS44NTAwOSwxNDIuMzc4OCAyMy43MDI3LC0xMC45MDE1NCA2Ljc0MzA3LDQuNjk4MzkgMy43Njc2MSwxNi41NDY2NCAtMzIuOTQyOTEsMC40ODQ5MiB6IiBpZD0icGF0aDg0Ny01LTgtMC00LTAiIGlua3NjYXBlOmNvbm5lY3Rvci1jdXJ2YXR1cmU9IjAiIGlua3NjYXBlOnRyYW5zZm9ybS1jZW50ZXIteD0iMTIuMzMwMDk0IiBpbmtzY2FwZTp0cmFuc2Zvcm0tY2VudGVyLXk9IjMuNDU2MzA4MSIgc29kaXBvZGk6bm9kZXR5cGVzPSJjY2NjY2MiIGlua3NjYXBlOmV4cG9ydC14ZHBpPSI2NzIuMjk4NCIgaW5rc2NhcGU6ZXhwb3J0LXlkcGk9IjY3Mi4yOTg0Ii8+CiAgICA8cmVjdCBzdHlsZT0iZmlsbDojYWRkOGU2O2ZpbGwtb3BhY2l0eToxO3N0cm9rZTpub25lO3N0cm9rZS13aWR0aDoxLjgzMDk2NjM1O3N0cm9rZS1saW5lY2FwOmJ1dHQ7c3Ryb2tlLWxpbmVqb2luOm1pdGVyO3N0cm9rZS1taXRlcmxpbWl0OjQ7c3Ryb2tlLWRhc2hhcnJheTpub25lO3N0cm9rZS1kYXNob2Zmc2V0OjA7c3Ryb2tlLW9wYWNpdHk6MTtwYWludC1vcmRlcjptYXJrZXJzIGZpbGwgc3Ryb2tlIiBpZD0icmVjdDEwLTItOS04LTMtOS02IiB3aWR0aD0iMTE1Ljc4NDkxIiBoZWlnaHQ9IjExMS41OTkwNCIgeD0iMjAuOTQwNDEzIiB5PSIxMzUuMzUwMzMiIHJ5PSI3LjY1OTE0OTIiIGlua3NjYXBlOmV4cG9ydC14ZHBpPSI2NzIuMjk4NCIgaW5rc2NhcGU6ZXhwb3J0LXlkcGk9IjY3Mi4yOTg0Ii8+CiAgICA8cGF0aCBzdHlsZT0iZmlsbDojMDA4YjhiO2ZpbGwtb3BhY2l0eToxO3N0cm9rZTpub25lO3N0cm9rZS13aWR0aDowLjY3NjgwMDkxcHg7c3Ryb2tlLWxpbmVjYXA6YnV0dDtzdHJva2UtbGluZWpvaW46bWl0ZXI7c3Ryb2tlLW9wYWNpdHk6MSIgZD0iTSAzMy4xNjcxNzQsMjQyLjgyNjA5IDE1LjI1NTQwNiwyNTUuODAxMTcgMTU5LjYxNzYyLDI4NS42MDMzNyAyMDguNDMxODEsOTIuMzEzMDA2IDEzNC43ODA0NywxNDYuMjY2IHYgOTYuNTYwMDkgeiIgaWQ9InBhdGg4NzUtNS00LTQtMiIgaW5rc2NhcGU6Y29ubmVjdG9yLWN1cnZhdHVyZT0iMCIgc29kaXBvZGk6bm9kZXR5cGVzPSJjY2NjY2NjIiBpbmtzY2FwZTpleHBvcnQteGRwaT0iNjcyLjI5ODQiIGlua3NjYXBlOmV4cG9ydC15ZHBpPSI2NzIuMjk4NCIvPgogICAgPHJlY3Qgc3R5bGU9ImZpbGw6bm9uZTtmaWxsLW9wYWNpdHk6MTtzdHJva2U6IzBmMTY4NjtzdHJva2Utd2lkdGg6Mi40MzI2NDkzNztzdHJva2UtbGluZWNhcDpidXR0O3N0cm9rZS1saW5lam9pbjptaXRlcjtzdHJva2UtbWl0ZXJsaW1pdDo0O3N0cm9rZS1kYXNoYXJyYXk6bm9uZTtzdHJva2UtZGFzaG9mZnNldDowO3N0cm9rZS1vcGFjaXR5OjE7cGFpbnQtb3JkZXI6bWFya2VycyBmaWxsIHN0cm9rZSIgaWQ9InJlY3QxMC0yLTAtOS03LTYiIHdpZHRoPSIxMjIuNzI0MiIgaGVpZ2h0PSIxMTUuOTA2MTgiIHg9IjE4LjEyNjg4MSIgeT0iMTMyLjc5MzM1IiByeT0iNy45NTQ3NTIiIGlua3NjYXBlOmV4cG9ydC14ZHBpPSI2NzIuMjk4NCIgaW5rc2NhcGU6ZXhwb3J0LXlkcGk9IjY3Mi4yOTg0Ii8+CiAgICA8cmVjdCBzdHlsZT0iZmlsbDojMGYxNjg2O2ZpbGwtb3BhY2l0eToxO3N0cm9rZTpub25lO3N0cm9rZS13aWR0aDoxLjM4MTU1ODA2O3N0cm9rZS1saW5lY2FwOmJ1dHQ7c3Ryb2tlLWxpbmVqb2luOm1pdGVyO3N0cm9rZS1taXRlcmxpbWl0OjQ7c3Ryb2tlLWRhc2hhcnJheTpub25lO3N0cm9rZS1kYXNob2Zmc2V0OjA7c3Ryb2tlLW9wYWNpdHk6MTtwYWludC1vcmRlcjptYXJrZXJzIGZpbGwgc3Ryb2tlIiBpZD0icmVjdDg2NC05LTE3LTAtNCIgd2lkdGg9IjE5Ljk1NDkxIiBoZWlnaHQ9IjMuMTQyMjkzOSIgeD0iMTcuMzE1NzYiIHk9IjE2Mi42MDM5NiIgcnk9IjEuNTcxMTQ3IiBpbmtzY2FwZTpleHBvcnQteGRwaT0iNjcyLjI5ODQiIGlua3NjYXBlOmV4cG9ydC15ZHBpPSI2NzIuMjk4NCIvPgogICAgPHJlY3Qgc3R5bGU9ImZpbGw6IzBmMTY4NjtmaWxsLW9wYWNpdHk6MTtzdHJva2U6bm9uZTtzdHJva2Utd2lkdGg6MS4xNjc1MzEwMTtzdHJva2UtbGluZWNhcDpidXR0O3N0cm9rZS1saW5lam9pbjptaXRlcjtzdHJva2UtbWl0ZXJsaW1pdDo0O3N0cm9rZS1kYXNoYXJyYXk6bm9uZTtzdHJva2UtZGFzaG9mZnNldDowO3N0cm9rZS1vcGFjaXR5OjE7cGFpbnQtb3JkZXI6bWFya2VycyBmaWxsIHN0cm9rZSIgaWQ9InJlY3Q4NjQtMS0xLTU2LTMtOCIgd2lkdGg9IjE0LjI1MTExOSIgaGVpZ2h0PSIzLjE0MjI5MzkiIHg9Ijg4LjYxOTMyNCIgeT0iMTYyLjA5NDQ3IiByeT0iMS41NzExNDciIGlua3NjYXBlOmV4cG9ydC14ZHBpPSI2NzIuMjk4NCIgaW5rc2NhcGU6ZXhwb3J0LXlkcGk9IjY3Mi4yOTg0Ii8+CiAgICA8cmVjdCBzdHlsZT0iZmlsbDojMGYxNjg2O2ZpbGwtb3BhY2l0eToxO3N0cm9rZTpub25lO3N0cm9rZS13aWR0aDoxLjkzOTQzMDM2O3N0cm9rZS1saW5lY2FwOmJ1dHQ7c3Ryb2tlLWxpbmVqb2luOm1pdGVyO3N0cm9rZS1taXRlcmxpbWl0OjQ7c3Ryb2tlLWRhc2hhcnJheTpub25lO3N0cm9rZS1kYXNob2Zmc2V0OjA7c3Ryb2tlLW9wYWNpdHk6MTtwYWludC1vcmRlcjptYXJrZXJzIGZpbGwgc3Ryb2tlIiBpZD0icmVjdDg2NC0xLTktODMtNC02LTgiIHdpZHRoPSIzOS4zMjQyIiBoZWlnaHQ9IjMuMTQyMjkzOSIgeD0iMTYyLjA5NDU2IiB5PSItMTAyLjg3MDQ0IiByeT0iMS41NzExNDciIHRyYW5zZm9ybT0icm90YXRlKDkwKSIgaW5rc2NhcGU6ZXhwb3J0LXhkcGk9IjY3Mi4yOTg0IiBpbmtzY2FwZTpleHBvcnQteWRwaT0iNjcyLjI5ODQiLz4KICAgIDxyZWN0IHN0eWxlPSJmaWxsOiMwZjE2ODY7ZmlsbC1vcGFjaXR5OjE7c3Ryb2tlOm5vbmU7c3Ryb2tlLXdpZHRoOjEuOTkwNjEzMjI7c3Ryb2tlLWxpbmVjYXA6YnV0dDtzdHJva2UtbGluZWpvaW46bWl0ZXI7c3Ryb2tlLW1pdGVybGltaXQ6NDtzdHJva2UtZGFzaGFycmF5Om5vbmU7c3Ryb2tlLWRhc2hvZmZzZXQ6MDtzdHJva2Utb3BhY2l0eToxO3BhaW50LW9yZGVyOm1hcmtlcnMgZmlsbCBzdHJva2UiIGlkPSJyZWN0ODY0LTEtOS04LTMtNy04LTciIHdpZHRoPSI0MS40MjcxMiIgaGVpZ2h0PSIzLjE0MjI5MzkiIHg9Ii0xMjIuMzI1NjIiIHk9Ii0yMDIuOTM4NjQiIHJ5PSIxLjU3MTE0NyIgdHJhbnNmb3JtPSJzY2FsZSgtMSkiIGlua3NjYXBlOmV4cG9ydC14ZHBpPSI2NzIuMjk4NCIgaW5rc2NhcGU6ZXhwb3J0LXlkcGk9IjY3Mi4yOTg0Ii8+CiAgICA8cmVjdCBzdHlsZT0iZmlsbDojMGYxNjg2O2ZpbGwtb3BhY2l0eToxO3N0cm9rZTpub25lO3N0cm9rZS13aWR0aDoxLjk5MDYxMzIyO3N0cm9rZS1saW5lY2FwOmJ1dHQ7c3Ryb2tlLWxpbmVqb2luOm1pdGVyO3N0cm9rZS1taXRlcmxpbWl0OjQ7c3Ryb2tlLWRhc2hhcnJheTpub25lO3N0cm9rZS1kYXNob2Zmc2V0OjA7c3Ryb2tlLW9wYWNpdHk6MTtwYWludC1vcmRlcjptYXJrZXJzIGZpbGwgc3Ryb2tlIiBpZD0icmVjdDg2NC0xLTktOC0xLTgtOS0zLTIiIHdpZHRoPSI0MS40MjcxMiIgaGVpZ2h0PSIzLjE0MjI5MzkiIHg9Ii0xMjIuMDA1MjEiIHk9Ii0yMTAuMTgwMyIgcnk9IjEuNTcxMTQ3IiB0cmFuc2Zvcm09InNjYWxlKC0xKSIgaW5rc2NhcGU6ZXhwb3J0LXhkcGk9IjY3Mi4yOTg0IiBpbmtzY2FwZTpleHBvcnQteWRwaT0iNjcyLjI5ODQiLz4KICAgIDxyZWN0IHN0eWxlPSJmaWxsOiMwZjE2ODY7ZmlsbC1vcGFjaXR5OjE7c3Ryb2tlOm5vbmU7c3Ryb2tlLXdpZHRoOjEuOTY4NTIyNDM7c3Ryb2tlLWxpbmVjYXA6YnV0dDtzdHJva2UtbGluZWpvaW46bWl0ZXI7c3Ryb2tlLW1pdGVybGltaXQ6NDtzdHJva2UtZGFzaGFycmF5Om5vbmU7c3Ryb2tlLWRhc2hvZmZzZXQ6MDtzdHJva2Utb3BhY2l0eToxO3BhaW50LW9yZGVyOm1hcmtlcnMgZmlsbCBzdHJva2UiIGlkPSJyZWN0ODY0LTEtOS01LTYtOC03LTAiIHdpZHRoPSI0MC41MTI3NDEiIGhlaWdodD0iMy4xNDIyOTM5IiB4PSIyMDguMzY4OTEiIHk9Ii0xMDMuMTA0NTUiIHJ5PSIxLjU3MTE0NyIgdHJhbnNmb3JtPSJyb3RhdGUoOTApIiBpbmtzY2FwZTpleHBvcnQteGRwaT0iNjcyLjI5ODQiIGlua3NjYXBlOmV4cG9ydC15ZHBpPSI2NzIuMjk4NCIvPgogICAgPHJlY3Qgc3R5bGU9ImZpbGw6I2ZiZDQxNTtmaWxsLW9wYWNpdHk6MTtzdHJva2U6IzBmMTY4NjtzdHJva2Utd2lkdGg6Mi43MjQyNjAzMztzdHJva2UtbGluZWNhcDpidXR0O3N0cm9rZS1saW5lam9pbjptaXRlcjtzdHJva2UtbWl0ZXJsaW1pdDo0O3N0cm9rZS1kYXNoYXJyYXk6bm9uZTtzdHJva2UtZGFzaG9mZnNldDowO3N0cm9rZS1vcGFjaXR5OjE7cGFpbnQtb3JkZXI6bWFya2VycyBmaWxsIHN0cm9rZSIgaWQ9InJlY3Q4NjYtNy04LTYtOCIgd2lkdGg9IjUwLjg0NDgxIiBoZWlnaHQ9IjIwLjMyNzEyNyIgeD0iMzcuNTMyODI5IiB5PSIxNTMuMzY5NjkiIHJ5PSIxLjU3MTE0NzkiIGlua3NjYXBlOmV4cG9ydC14ZHBpPSI2NzIuMjk4NCIgaW5rc2NhcGU6ZXhwb3J0LXlkcGk9IjY3Mi4yOTg0Ii8+CiAgICA8cmVjdCBzdHlsZT0iZmlsbDpub25lO2ZpbGwtb3BhY2l0eToxO3N0cm9rZTojZmZmZmZmO3N0cm9rZS13aWR0aDoyLjI1MTI3NzY5O3N0cm9rZS1saW5lY2FwOmJ1dHQ7c3Ryb2tlLWxpbmVqb2luOm1pdGVyO3N0cm9rZS1taXRlcmxpbWl0OjQ7c3Ryb2tlLWRhc2hhcnJheTpub25lO3N0cm9rZS1kYXNob2Zmc2V0OjA7c3Ryb2tlLW9wYWNpdHk6MTtwYWludC1vcmRlcjptYXJrZXJzIGZpbGwgc3Ryb2tlIiBpZD0icmVjdDg2Ni05LTYtMi02LTkiIHdpZHRoPSI0NS44ODk0MTYiIGhlaWdodD0iMTUuMzgwNTI4IiB4PSIzOS45NTIyNzgiIHk9IjE1NS44NTQzNCIgcnk9IjAiIGlua3NjYXBlOmV4cG9ydC14ZHBpPSI2NzIuMjk4NCIgaW5rc2NhcGU6ZXhwb3J0LXlkcGk9IjY3Mi4yOTg0Ii8+CiAgICA8cmVjdCBzdHlsZT0iZmlsbDojMGYxNjg2O2ZpbGwtb3BhY2l0eToxO3N0cm9rZTojMGYxNjg2O3N0cm9rZS13aWR0aDoyLjY2ODg3OTc1O3N0cm9rZS1saW5lY2FwOmJ1dHQ7c3Ryb2tlLWxpbmVqb2luOm1pdGVyO3N0cm9rZS1taXRlcmxpbWl0OjQ7c3Ryb2tlLWRhc2hhcnJheTpub25lO3N0cm9rZS1kYXNob2Zmc2V0OjA7c3Ryb2tlLW9wYWNpdHk6MTtwYWludC1vcmRlcjptYXJrZXJzIGZpbGwgc3Ryb2tlIiBpZD0icmVjdDk1OC0wLTQtOC03IiB3aWR0aD0iNDUuNzQ5MDM5IiBoZWlnaHQ9IjEzLjM1NzU5NSIgeD0iMzkuOTUyMjc4IiB5PSIxNTcuOTQyMDgiIGlua3NjYXBlOmV4cG9ydC14ZHBpPSI2NzIuMjk4NCIgaW5rc2NhcGU6ZXhwb3J0LXlkcGk9IjY3Mi4yOTg0Ii8+CiAgICA8cGF0aCBzdHlsZT0iZmlsbDojZmZmZmZmO2ZpbGwtb3BhY2l0eToxO3N0cm9rZTpub25lO3N0cm9rZS13aWR0aDowLjY3NjgwMDkxcHg7c3Ryb2tlLWxpbmVjYXA6YnV0dDtzdHJva2UtbGluZWpvaW46bWl0ZXI7c3Ryb2tlLW9wYWNpdHk6MSIgZD0ibSA0MS42NDIzNiwxNTYuMDY2MzYgLTIuNzkxNzkxLDE2LjIwMDk1IGggLTEuMTQyMDkyIGwgMC40NjUzMjQsLTE4LjA2MjE1IDQuMzk5MjA3LC0wLjMzODM5IHoiIGlkPSJwYXRoMTAyNy03LTUtNS01IiBpbmtzY2FwZTpjb25uZWN0b3ItY3VydmF0dXJlPSIwIiBzb2RpcG9kaTpub2RldHlwZXM9ImNjY2NjYyIgaW5rc2NhcGU6ZXhwb3J0LXhkcGk9IjY3Mi4yOTg0IiBpbmtzY2FwZTpleHBvcnQteWRwaT0iNjcyLjI5ODQiLz4KICAgIDxwYXRoIHN0eWxlPSJmaWxsOiMwZjE2ODY7ZmlsbC1vcGFjaXR5OjE7c3Ryb2tlOm5vbmU7c3Ryb2tlLXdpZHRoOjAuNjc2ODAwOTFweDtzdHJva2UtbGluZWNhcDpidXR0O3N0cm9rZS1saW5lam9pbjptaXRlcjtzdHJva2Utb3BhY2l0eToxIiBkPSJtIDg3LjAxNTI4NiwxNTcuMDI1NjUgMC4wMDUxLC0yLjI5MjQ5IC0yLjU1ODQsMi40MzMgMS40Mjc2NCwwLjYxMzM2IHoiIGlkPSJwYXRoOTYwLTAtMy03Ni0zIiBpbmtzY2FwZTpjb25uZWN0b3ItY3VydmF0dXJlPSIwIiBpbmtzY2FwZTpleHBvcnQteGRwaT0iNjcyLjI5ODQiIGlua3NjYXBlOmV4cG9ydC15ZHBpPSI2NzIuMjk4NCIvPgogICAgPHJlY3Qgc3R5bGU9ImZpbGw6I2ZiZDQxNTtmaWxsLW9wYWNpdHk6MTtzdHJva2U6IzBmMTY4NjtzdHJva2Utd2lkdGg6Mi43MjQyNjAzMztzdHJva2UtbGluZWNhcDpidXR0O3N0cm9rZS1saW5lam9pbjptaXRlcjtzdHJva2UtbWl0ZXJsaW1pdDo0O3N0cm9rZS1kYXNoYXJyYXk6bm9uZTtzdHJva2UtZGFzaG9mZnNldDowO3N0cm9rZS1vcGFjaXR5OjE7cGFpbnQtb3JkZXI6bWFya2VycyBmaWxsIHN0cm9rZSIgaWQ9InJlY3Q5NjItNC0zLTgtNiIgd2lkdGg9IjEzLjUzNjA0MiIgaGVpZ2h0PSI4Ljk2NzYyMTgiIHg9IjQuNDI3NTQyMiIgeT0iMTU5Ljk0MDg2IiByeT0iMS41NzExNDc5IiBpbmtzY2FwZTpleHBvcnQteGRwaT0iNjcyLjI5ODQiIGlua3NjYXBlOmV4cG9ydC15ZHBpPSI2NzIuMjk4NCIvPgogICAgPHBhdGggc3R5bGU9ImZpbGw6I2ZmZmZmZjtmaWxsLW9wYWNpdHk6MTtzdHJva2U6bm9uZTtzdHJva2Utd2lkdGg6MC42NzY4MDA5MXB4O3N0cm9rZS1saW5lY2FwOmJ1dHQ7c3Ryb2tlLWxpbmVqb2luOm1pdGVyO3N0cm9rZS1vcGFjaXR5OjEiIGQ9Im0gNS44Mzk1NDM0LDE2Ny40NTE1MSAxLjkyMTIzMDIsLTQuODM3MzQgOS41NTQ5NjU0LC0wLjAxMDIgLTAuMDk1MTYsLTIuMzMwNjYgSCA0Ljc0NzgxODUgdiA3LjcxNjk1IHoiIGlkPSJwYXRoOTY0LTItMC0zLTUiIGlua3NjYXBlOmNvbm5lY3Rvci1jdXJ2YXR1cmU9IjAiIHNvZGlwb2RpOm5vZGV0eXBlcz0iY2NjY2NjYyIgaW5rc2NhcGU6ZXhwb3J0LXhkcGk9IjY3Mi4yOTg0IiBpbmtzY2FwZTpleHBvcnQteWRwaT0iNjcyLjI5ODQiLz4KICAgIDxyZWN0IHN0eWxlPSJmaWxsOm5vbmU7ZmlsbC1vcGFjaXR5OjE7c3Ryb2tlOiMwZjE2ODY7c3Ryb2tlLXdpZHRoOjIuNzI0MjYwMzM7c3Ryb2tlLWxpbmVjYXA6YnV0dDtzdHJva2UtbGluZWpvaW46bWl0ZXI7c3Ryb2tlLW1pdGVybGltaXQ6NDtzdHJva2UtZGFzaGFycmF5Om5vbmU7c3Ryb2tlLWRhc2hvZmZzZXQ6MDtzdHJva2Utb3BhY2l0eToxO3BhaW50LW9yZGVyOm1hcmtlcnMgZmlsbCBzdHJva2UiIGlkPSJyZWN0OTY2LTYtNy03LTYiIHdpZHRoPSIxMy41MzYwNDgiIGhlaWdodD0iOC45Njc2MjQ3IiB4PSI0LjQyNzU0MjIiIHk9IjE1OS45NDA4NiIgcnk9IjEuOTMwMDc3MSIgaW5rc2NhcGU6ZXhwb3J0LXhkcGk9IjY3Mi4yOTg0IiBpbmtzY2FwZTpleHBvcnQteWRwaT0iNjcyLjI5ODQiLz4KICAgIDxnIGlkPSJnOTczLTMtNS03LTctMCIgdHJhbnNmb3JtPSJtYXRyaXgoMCwtMi41NTc5OTA5LDIuNTU3OTkwOSwwLC0xODcuMTcyNSwzODYuOTM1NzMpIiBpbmtzY2FwZTpleHBvcnQteGRwaT0iNjcyLjI5ODQiIGlua3NjYXBlOmV4cG9ydC15ZHBpPSI2NzIuMjk4NCI+CiAgICAgIDxyZWN0IHJ5PSIwLjYxNDIxMTY4IiB5PSIxMTEuMTYzMjgiIHg9IjQ4LjY5OTg3NSIgaGVpZ2h0PSIzLjUwNTcyODciIHdpZHRoPSI1LjI5MTY2OTQiIGlkPSJyZWN0OTYyLTItMy01LTUtMSIgc3R5bGU9Im9wYWNpdHk6MTtmaWxsOiNmYmQ0MTU7ZmlsbC1vcGFjaXR5OjE7c3Ryb2tlOiMwZjE2ODY7c3Ryb2tlLXdpZHRoOjEuMDY1MDAwMDY7c3Ryb2tlLWxpbmVjYXA6YnV0dDtzdHJva2UtbGluZWpvaW46bWl0ZXI7c3Ryb2tlLW1pdGVybGltaXQ6NDtzdHJva2UtZGFzaGFycmF5Om5vbmU7c3Ryb2tlLWRhc2hvZmZzZXQ6MDtzdHJva2Utb3BhY2l0eToxO3BhaW50LW9yZGVyOm1hcmtlcnMgZmlsbCBzdHJva2UiLz4KICAgIDwvZz4KICAgIDxwYXRoIHN0eWxlPSJmaWxsOiNmZmZmZmY7ZmlsbC1vcGFjaXR5OjE7c3Ryb2tlOm5vbmU7c3Ryb2tlLXdpZHRoOjAuNjc2ODAwOTFweDtzdHJva2UtbGluZWNhcDpidXR0O3N0cm9rZS1saW5lam9pbjptaXRlcjtzdHJva2Utb3BhY2l0eToxIiBkPSJtIDk4LjA4MjUxLDI2MC45MDQ5NSAxLjM4Njc5LC0xLjg3ODU0IC0wLjAxNTM1LC05LjUzMTY5IC0xLjkzOTM5MiwwLjA3MzkgdiAxMi40NzI3NCBsIDAuMDc0NjksLTAuODY3MzkgeiIgaWQ9InBhdGg5NjQtNi02LTItNC01IiBpbmtzY2FwZTpjb25uZWN0b3ItY3VydmF0dXJlPSIwIiBzb2RpcG9kaTpub2RldHlwZXM9ImNjY2NjY2MiIGlua3NjYXBlOmV4cG9ydC14ZHBpPSI2NzIuMjk4NCIgaW5rc2NhcGU6ZXhwb3J0LXlkcGk9IjY3Mi4yOTg0Ii8+CiAgICA8cmVjdCBzdHlsZT0iZmlsbDpub25lO2ZpbGwtb3BhY2l0eToxO3N0cm9rZTojMGYxNjg2O3N0cm9rZS13aWR0aDoyLjcyNDI2MDMzO3N0cm9rZS1saW5lY2FwOmJ1dHQ7c3Ryb2tlLWxpbmVqb2luOm1pdGVyO3N0cm9rZS1taXRlcmxpbWl0OjQ7c3Ryb2tlLWRhc2hhcnJheTpub25lO3N0cm9rZS1kYXNob2Zmc2V0OjA7c3Ryb2tlLW9wYWNpdHk6MTtwYWludC1vcmRlcjptYXJrZXJzIGZpbGwgc3Ryb2tlIiBpZD0icmVjdDk2Ni0yLTMtNC0zLTYiIHdpZHRoPSIxMy41MzYwNDgiIGhlaWdodD0iOC45Njc2MjQ3IiB4PSItMjYyLjM2MTkxIiB5PSI5Ny4xODIxNjciIHJ5PSIxLjkzMDA3NzEiIHRyYW5zZm9ybT0icm90YXRlKC05MCkiIGlua3NjYXBlOmV4cG9ydC14ZHBpPSI2NzIuMjk4NCIgaW5rc2NhcGU6ZXhwb3J0LXlkcGk9IjY3Mi4yOTg0Ii8+CiAgICA8cmVjdCBzdHlsZT0iZmlsbDpub25lO2ZpbGwtb3BhY2l0eToxO3N0cm9rZTojMGYxNjg2O3N0cm9rZS13aWR0aDoyLjcyNDI2MDMzO3N0cm9rZS1saW5lY2FwOmJ1dHQ7c3Ryb2tlLWxpbmVqb2luOm1pdGVyO3N0cm9rZS1taXRlcmxpbWl0OjQ7c3Ryb2tlLWRhc2hhcnJheTpub25lO3N0cm9rZS1kYXNob2Zmc2V0OjA7c3Ryb2tlLW9wYWNpdHk6MTtwYWludC1vcmRlcjptYXJrZXJzIGZpbGwgc3Ryb2tlIiBpZD0icmVjdDg2Ni0yLTYtNi0xLTEiIHdpZHRoPSI1MC44NDQ4MSIgaGVpZ2h0PSIyMC4zMjcxMjciIHg9IjM3LjUzMjgyOSIgeT0iMTUzLjM2OTY5IiByeT0iMS41NzExNDc5IiBpbmtzY2FwZTpleHBvcnQteGRwaT0iNjcyLjI5ODQiIGlua3NjYXBlOmV4cG9ydC15ZHBpPSI2NzIuMjk4NCIvPgogIDwvZz4KPC9zdmc+;" parent="skvkwWqHoztt7yABa-7v-1" vertex="1">
                    <mxGeometry x="1841" y="445" width="410" height="410" as="geometry"/>
                </mxCell>
                <mxCell id="194" value="" style="rounded=0;whiteSpace=wrap;html=1;strokeWidth=5;fillColor=#57CC99;strokeColor=#FFFFFF;" parent="skvkwWqHoztt7yABa-7v-1" vertex="1">
                    <mxGeometry y="373" width="584" height="584" as="geometry"/>
                </mxCell>
                <mxCell id="100" value="" style="shape=image;verticalLabelPosition=bottom;labelBackgroundColor=#ffffff;verticalAlign=top;aspect=fixed;imageAspect=0;image=data:image/svg+xml,PHN2ZyB4bWxucz0iaHR0cDovL3d3dy53My5vcmcvMjAwMC9zdmciIHdpZHRoPSIyNTAwIiBoZWlnaHQ9IjcyNiIgdmlld0JveD0iNS41OTEgMy4yNjIgNDc0LjgwMSAxMzcuODAzIj48cGF0aCBkPSJNMTg0LjYxNCA2MS45MjljMC0xNC41NjItNC4xNTItMjIuMDM4LTEyLjQ1Ny0yMi40NDctMy4zMDUtLjE1Ni02LjUzLjM3LTkuNjY5IDEuNTg5LTIuNTA1Ljg5Ni00LjE5MSAxLjc4NC01LjA3OCAyLjY4MVY3OC41MWM1LjMxMiAzLjMzNCAxMC4wMjkgNC44ODQgMTQuMTQzIDQuNjQgOC43MDMtLjU3NyAxMy4wNjEtNy42NDMgMTMuMDYxLTIxLjIyMXptMTAuMjQ0LjYwNGMwIDcuMzk4LTEuNzM1IDEzLjUzOS01LjIyNSAxOC40MjItMy44ODkgNS41MjctOS4yNzkgOC4zNzMtMTYuMTcgOC41MjktNS4xOTUuMTY1LTEwLjU0Ny0xLjQ2Mi0xNi4wNTQtNC44NzR2MzEuNTkxbC04LjkwOS0zLjE3OHYtNzAuMTJjMS40NjItMS43OTMgMy4zNDQtMy4zMzMgNS42MjQtNC42NCA1LjMwMy0zLjA5IDExLjc0NS00LjY3OCAxOS4zMjktNC43NTZsLjEyNi4xMjZjNi45MzEtLjA4NyAxMi4yNzEgMi43NTkgMTYuMDI0IDguNTI5IDMuNSA1LjI5MyA1LjI1NSAxMi4wNzcgNS4yNTUgMjAuMzcxek0yNDkuMzA1IDgzLjI2NmMwIDkuOTIzLS45OTQgMTYuNzk0LTIuOTgyIDIwLjYxNS0xLjk5OCAzLjgyLTUuOCA2Ljg3MS0xMS40MTQgOS4xNDMtNC41NTIgMS43OTMtOS40NzUgMi43NjgtMTQuNzU3IDIuOTM0bC0xLjQ3My01LjYxNGM1LjM3MS0uNzMgOS4xNTMtMS40NjIgMTEuMzQ2LTIuMTkzIDQuMzE4LTEuNDYyIDcuMjgxLTMuNzAzIDguOTA5LTYuNzA2IDEuMzA2LTIuNDQ2IDEuOTQ5LTcuMTE1IDEuOTQ5LTE0LjAyNVY4NS4xYy02LjA5MiAyLjc2OS0xMi40NzYgNC4xNDMtMTkuMTUyIDQuMTQzLTQuMzg3IDAtOC4yNTYtMS4zNzQtMTEuNTktNC4xNDMtMy43NDMtMy4wMTItNS42MTQtNi44MzItNS42MTQtMTEuNDYydi0zNy4wOGw4LjkwOS0zLjA1MXYzNy4zMjFjMCAzLjk4NiAxLjI4NiA3LjA1NyAzLjg1OSA5LjIxMXM1LjkwNyAzLjE4OCA5Ljk5MSAzLjEwOWM0LjA4NC0uMDg4IDguNDYtMS42NjcgMTMuMTA5LTQuNzU3di00My41NGg4LjkwOXY0OC40MTV6TTI4NC4wODIgODguOTk3YTM1LjUxIDM1LjUxIDAgMCAxLTIuOTM0LjEyNmMtNS4wMzkgMC04Ljk2OC0xLjE5OC0xMS43NzQtMy42MDYtMi43OTgtMi40MDctNC4yMDEtNS43My00LjIwMS05Ljk3MXYtMzUuMDloLTYuMTAydi01LjYwNGg2LjEwMlYxOS45NjhsOC44OTktMy4xNjh2MTguMDUyaDEwLjAxdjUuNjA0aC0xMC4wMXYzNC44NDZjMCAzLjM0NC44OTYgNS43MTIgMi42ODkgNy4wOTcgMS41NCAxLjE0IDMuOTg3IDEuNzkzIDcuMzIgMS45NTl2NC42Mzl6TTMzOC4wMjMgODguMjY2aC04LjkwOVY1My44NzhjMC0zLjQ5OS0uODE4LTYuNTExLTIuNDQ2LTkuMDI1LTEuODgxLTIuODQ3LTQuNDkzLTQuMjctNy44NDctNC4yNy00LjA4NCAwLTkuMTkxIDIuMTU0LTE1LjMyMiA2LjQ2MnY0MS4yMjFoLTguOTA4VjYuMDY5bDguOTA4LTIuODA3VjQwLjdjNS42OTItNC4xNDMgMTEuOTExLTYuMjE5IDE4LjY2Ni02LjIxOSA0LjcxOCAwIDguNTM4IDEuNTg5IDExLjQ2MyA0Ljc1NyAyLjkzNCAzLjE2NyA0LjM5NiA3LjExNSA0LjM5NiAxMS44MzN2MzcuMTk1aC0uMDAxek0zODUuMzc0IDYwLjUyNmMwLTUuNTk1LTEuMDYyLTEwLjIxNS0zLjE3OC0xMy44Ny0yLjUxNS00LjQ1NC02LjQyMy02LjgwNC0xMS43MDYtNy4wNDctOS43NjcuNTY1LTE0LjY0MSA3LjU2My0xNC42NDEgMjAuOTc2IDAgNi4xNSAxLjAxNCAxMS4yODcgMy4wNjEgMTUuNDEgMi42MTIgNS4yNTQgNi41MzEgNy44NDcgMTEuNzU2IDcuNzU5IDkuODA1LS4wNzkgMTQuNzA4LTcuODE4IDE0LjcwOC0yMy4yMjh6bTkuNzU3LjA1OGMwIDcuOTY0LTIuMDM3IDE0LjU5Mi02LjEwMiAxOS44ODQtNC40NzUgNS45MjctMTAuNjUzIDguODk5LTE4LjUzOSA4Ljg5OS03LjgxNyAwLTEzLjkwOS0yLjk3My0xOC4zMDUtOC44OTktMy45ODctNS4yOTItNS45NzYtMTEuOTItNS45NzYtMTkuODg0IDAtNy40ODUgMi4xNTQtMTMuNzgyIDYuNDYzLTE4LjkwOSA0LjU1Mi01LjQzOSAxMC41MzYtOC4xNjggMTcuOTM1LTguMTY4IDcuMzk3IDAgMTMuNDIxIDIuNzI5IDE4LjA2MSA4LjE2OCA0LjMwOSA1LjEyNyA2LjQ2MyAxMS40MjQgNi40NjMgMTguOTA5ek00NDYuMjA1IDg4LjI2NmgtOC45MDlWNTEuOTI5YzAtMy45ODYtMS4xOTgtNy4wOTYtMy41OTYtOS4zMzgtMi4zOTgtMi4yMzItNS41OTYtMy4zMTQtOS41ODItMy4yMjctNC4yMjkuMDc4LTguMjU2IDEuNDYyLTEyLjA3NiA0LjE0M3Y0NC43NTloLTguOTA5di00NS44NmM1LjEyNy0zLjczMiA5Ljg0NS02LjE3IDE0LjE1My03LjMxIDQuMDY0LTEuMDYyIDcuNjUxLTEuNTg5IDEwLjc0MS0xLjU4OSAyLjExNCAwIDQuMTA0LjIwNCA1Ljk3NS42MTQgMy40OTkuODA5IDYuMzQ2IDIuMzEgOC41MzggNC41MTMgMi40NDcgMi40MzcgMy42NjUgNS4zNiAzLjY2NSA4Ljc4MnY0MC44NXoiIGZpbGw9IiM2NDY0NjQiLz48bGluZWFyR3JhZGllbnQgaWQ9ImEiIGdyYWRpZW50VW5pdHM9InVzZXJTcGFjZU9uVXNlIiB4MT0iLTIwMzEuMzEyIiB5MT0iMjc1Ljg2OCIgeDI9Ii0xOTIyLjI5NiIgeTI9IjE4Mi4wNzUiIGdyYWRpZW50VHJhbnNmb3JtPSJtYXRyaXgoLjU2MjUgMCAwIC0uNTY4IDExNDUuNTYgMTY2LjI4MikiPjxzdG9wIG9mZnNldD0iMCIgc3RvcC1jb2xvcj0iIzVhOWZkNCIvPjxzdG9wIG9mZnNldD0iMSIgc3RvcC1jb2xvcj0iIzMwNjk5OCIvPjwvbGluZWFyR3JhZGllbnQ+PHBhdGggZD0iTTYwLjUxIDYuMzk4Yy00LjU4NC4wMjEtOC45NjEuNDEyLTEyLjgxMiAxLjA5NC0xMS4zNDYgMi4wMDUtMTMuNDA2IDYuMi0xMy40MDYgMTMuOTM4djEwLjIxOWgyNi44MTJ2My40MDZIMjQuMjI5Yy03Ljc5MiAwLTE0LjYxNiA0LjY4NC0xNi43NSAxMy41OTQtMi40NjIgMTAuMjEzLTIuNTcxIDE2LjU4NiAwIDI3LjI1IDEuOTA2IDcuOTM4IDYuNDU4IDEzLjU5NCAxNC4yNSAxMy41OTRoOS4yMTl2LTEyLjI1YzAtOC44NSA3LjY1Ny0xNi42NTYgMTYuNzUtMTYuNjU2aDI2Ljc4MWM3LjQ1NSAwIDEzLjQwNi02LjEzOCAxMy40MDYtMTMuNjI1VjIxLjQyOWMwLTcuMjY2LTYuMTMtMTIuNzI1LTEzLjQwNi0xMy45MzgtNC42MDctLjc2Ni05LjM4NS0xLjExNS0xMy45NjktMS4wOTN6bS0xNC41IDguMjE4YzIuNzcgMCA1LjAzMSAyLjI5OSA1LjAzMSA1LjEyNSAwIDIuODE2LTIuMjYyIDUuMDk0LTUuMDMxIDUuMDk0LTIuNzc5IDAtNS4wMzEtMi4yNzctNS4wMzEtNS4wOTQgMC0yLjgyNiAyLjI1Mi01LjEyNSA1LjAzMS01LjEyNXoiIGZpbGw9InVybCgjYSkiLz48bGluZWFyR3JhZGllbnQgaWQ9ImIiIGdyYWRpZW50VW5pdHM9InVzZXJTcGFjZU9uVXNlIiB4MT0iLTE4ODAuMTUxIiB5MT0iMTI1LjMwNSIgeDI9Ii0xOTE5LjA4IiB5Mj0iMTgwLjM4NCIgZ3JhZGllbnRUcmFuc2Zvcm09Im1hdHJpeCguNTYyNSAwIDAgLS41NjggMTE0NS41NiAxNjYuMjgyKSI+PHN0b3Agb2Zmc2V0PSIwIiBzdG9wLWNvbG9yPSIjZmZkNDNiIi8+PHN0b3Agb2Zmc2V0PSIxIiBzdG9wLWNvbG9yPSIjZmZlODczIi8+PC9saW5lYXJHcmFkaWVudD48cGF0aCBkPSJNOTEuMjI5IDM1LjA1NFY0Ni45NmMwIDkuMjMxLTcuODI2IDE3LTE2Ljc1IDE3SDQ3LjY5OGMtNy4zMzYgMC0xMy40MDYgNi4yNzgtMTMuNDA2IDEzLjYyNXYyNS41MzFjMCA3LjI2NyA2LjMxOCAxMS41NDEgMTMuNDA2IDEzLjYyNSA4LjQ4NyAyLjQ5NiAxNi42MjYgMi45NDcgMjYuNzgxIDAgNi43NS0xLjk1NCAxMy40MDYtNS44ODggMTMuNDA2LTEzLjYyNVY5Mi44OThINjEuMTA0di0zLjQwNmg0MC4xODdjNy43OTMgMCAxMC42OTYtNS40MzYgMTMuNDA2LTEzLjU5NCAyLjgtOC4zOTggMi42ODEtMTYuNDc2IDAtMjcuMjUtMS45MjYtNy43NTctNS42MDQtMTMuNTk0LTEzLjQwNi0xMy41OTRIOTEuMjI5ek03Ni4xNjYgOTkuNzFjMi43NzkgMCA1LjAzMSAyLjI3NyA1LjAzMSA1LjA5NCAwIDIuODI2LTIuMjUyIDUuMTI1LTUuMDMxIDUuMTI1LTIuNzcgMC01LjAzMS0yLjI5OS01LjAzMS01LjEyNSAwLTIuODE2IDIuMjYyLTUuMDk0IDUuMDMxLTUuMDk0eiIgZmlsbD0idXJsKCNiKSIvPjxwYXRoIGQ9Ik00NjMuNTU0IDI2LjkwOWgxLjU2MnYtOS43OTZoMy42OTl2LTEuMTY4aC04Ljk2MnYxLjE2OGgzLjd2OS43OTZtNi42NDggMGgxLjMzNHYtOC45NDdsMi44OTYgOC45NDZoMS40ODVsMy4wMTktOC45MTZ2OC45MTdoMS40NTZWMTUuOTQ2aC0xLjkyNmwtMy4yOTkgOS4zOTMtMi44MTItOS4zOTNoLTIuMTUzdjEwLjk2MyIgZmlsbD0iIzY0NjQ2NCIvPjxyYWRpYWxHcmFkaWVudCBpZD0iYyIgY3g9Ii0zMzkzLjIzOCIgY3k9IjM3Ni43OTEiIHI9IjI5LjAzNyIgZ3JhZGllbnRUcmFuc2Zvcm09Im1hdHJpeCgwIC0uMjM5OSAtMS4wNTQ3IDAgNDU4Ljc5NyAtNjgwLjEpIiBncmFkaWVudFVuaXRzPSJ1c2VyU3BhY2VPblVzZSI+PHN0b3Agb2Zmc2V0PSIwIiBzdG9wLWNvbG9yPSIjYjhiOGI4IiBzdG9wLW9wYWNpdHk9Ii40OTgiLz48c3RvcCBvZmZzZXQ9IjEiIHN0b3AtY29sb3I9IiM3ZjdmN2YiIHN0b3Atb3BhY2l0eT0iMCIvPjwvcmFkaWFsR3JhZGllbnQ+PHBhdGggZD0iTTk3LjMzOSAxMzQuMDk4YzAgMy44NDgtMTYuMDg3IDYuOTY3LTM1LjkzMiA2Ljk2Ny0xOS44NDQgMC0zNS45MzEtMy4xMTktMzUuOTMxLTYuOTY3czE2LjA4Ny02Ljk2OCAzNS45MzEtNi45NjhjMTkuODQ1IDAgMzUuOTMyIDMuMTIgMzUuOTMyIDYuOTY4eiIgb3BhY2l0eT0iLjQ0NCIgZmlsbD0idXJsKCNjKSIvPjwvc3ZnPg==;" parent="skvkwWqHoztt7yABa-7v-1" vertex="1">
                    <mxGeometry x="32" y="589.5" width="520" height="151" as="geometry"/>
                </mxCell>
                <mxCell id="226" value="" style="rounded=0;whiteSpace=wrap;html=1;strokeWidth=5;fillColor=#22577A;strokeColor=#FFFFFF;" vertex="1" parent="skvkwWqHoztt7yABa-7v-1">
                    <mxGeometry x="1755" y="1560" width="584" height="584" as="geometry"/>
                </mxCell>
                <mxCell id="227" value="" style="group" vertex="1" connectable="0" parent="skvkwWqHoztt7yABa-7v-1">
                    <mxGeometry x="80" y="1060" width="834.4200000000001" height="590" as="geometry"/>
                </mxCell>
                <mxCell id="23" value="" style="rounded=0;whiteSpace=wrap;html=1;fontFamily=DM Sans;fontSource=https%3A%2F%2Ffonts.googleapis.com%2Fcss%3Ffamily%3DDM%2BSans;fontSize=78;fontColor=#ffffff;strokeColor=none;strokeWidth=10;fillColor=#6d8764;sketch=0;" parent="227" vertex="1">
                    <mxGeometry x="232.21000000000004" y="17.789999999999964" width="390" height="230" as="geometry"/>
                </mxCell>
                <mxCell id="177" value="" style="group" parent="227" vertex="1" connectable="0">
                    <mxGeometry x="328.21000000000004" y="82.78999999999996" width="200" height="100" as="geometry"/>
                </mxCell>
                <mxCell id="skvkwWqHoztt7yABa-7v-37" value="" style="endArrow=none;html=1;fontFamily=DM Sans;fontSource=https%3A%2F%2Ffonts.googleapis.com%2Fcss%3Ffamily%3DDM%2BSans;fontSize=78;fontColor=#FFFFFF;strokeWidth=7;startArrow=none;startFill=0;shadow=1;sketch=1;strokeColor=#FAFAFA;" parent="177" edge="1">
                    <mxGeometry width="50" height="50" relative="1" as="geometry">
                        <mxPoint x="164.70588235294116" y="46.803986710963486" as="sourcePoint"/>
                        <mxPoint x="200" y="46.51162790697674" as="targetPoint"/>
                    </mxGeometry>
                </mxCell>
                <mxCell id="skvkwWqHoztt7yABa-7v-39" value="" style="endArrow=none;html=1;fontFamily=DM Sans;fontSource=https%3A%2F%2Ffonts.googleapis.com%2Fcss%3Ffamily%3DDM%2BSans;fontSize=78;fontColor=#FFFFFF;strokeWidth=7;startArrow=none;startFill=0;shadow=1;sketch=1;strokeColor=#FAFAFA;" parent="177" edge="1">
                    <mxGeometry width="50" height="50" relative="1" as="geometry">
                        <mxPoint x="182.35294117647058" y="99.66777408637873" as="sourcePoint"/>
                        <mxPoint x="182.35294117647058" y="73.08970099667773" as="targetPoint"/>
                    </mxGeometry>
                </mxCell>
                <mxCell id="skvkwWqHoztt7yABa-7v-38" value="" style="endArrow=none;html=1;fontFamily=DM Sans;fontSource=https%3A%2F%2Ffonts.googleapis.com%2Fcss%3Ffamily%3DDM%2BSans;fontSize=78;fontColor=#FFFFFF;strokeWidth=7;startArrow=none;startFill=0;shadow=1;sketch=1;strokeColor=#FAFAFA;" parent="177" edge="1">
                    <mxGeometry width="50" height="50" relative="1" as="geometry">
                        <mxPoint x="164.70588235294116" y="66.73754152823923" as="sourcePoint"/>
                        <mxPoint x="200" y="66.44518272425249" as="targetPoint"/>
                    </mxGeometry>
                </mxCell>
                <mxCell id="skvkwWqHoztt7yABa-7v-36" value="" style="endArrow=none;html=1;fontFamily=DM Sans;fontSource=https%3A%2F%2Ffonts.googleapis.com%2Fcss%3Ffamily%3DDM%2BSans;fontSize=78;fontColor=#FFFFFF;strokeWidth=7;startArrow=none;startFill=0;shadow=1;sketch=1;strokeColor=#FAFAFA;" parent="177" edge="1">
                    <mxGeometry width="50" height="50" relative="1" as="geometry">
                        <mxPoint x="182.35294117647058" y="39.86710963455149" as="sourcePoint"/>
                        <mxPoint x="182.35294117647058" y="13.289036544850497" as="targetPoint"/>
                    </mxGeometry>
                </mxCell>
                <mxCell id="skvkwWqHoztt7yABa-7v-40" value="" style="endArrow=none;html=1;fontFamily=DM Sans;fontSource=https%3A%2F%2Ffonts.googleapis.com%2Fcss%3Ffamily%3DDM%2BSans;fontSize=78;fontColor=#FFFFFF;strokeWidth=7;startArrow=none;startFill=0;shadow=1;sketch=1;strokeColor=#FAFAFA;" parent="177" edge="1">
                    <mxGeometry width="50" height="50" relative="1" as="geometry">
                        <mxPoint x="170.58823529411765" y="99.66777408637873" as="sourcePoint"/>
                        <mxPoint x="194.11764705882348" y="100" as="targetPoint"/>
                    </mxGeometry>
                </mxCell>
                <mxCell id="skvkwWqHoztt7yABa-7v-34" value="" style="endArrow=none;html=1;fontFamily=DM Sans;fontSource=https%3A%2F%2Ffonts.googleapis.com%2Fcss%3Ffamily%3DDM%2BSans;fontSize=78;fontColor=#FFFFFF;strokeWidth=7;startArrow=none;startFill=0;shadow=1;sketch=1;strokeColor=#FAFAFA;" parent="177" edge="1">
                    <mxGeometry width="50" height="50" relative="1" as="geometry">
                        <mxPoint x="121.17647058823529" y="99.66777408637873" as="sourcePoint"/>
                        <mxPoint x="144.70588235294116" y="100" as="targetPoint"/>
                    </mxGeometry>
                </mxCell>
                <mxCell id="skvkwWqHoztt7yABa-7v-33" value="" style="endArrow=none;html=1;fontFamily=DM Sans;fontSource=https%3A%2F%2Ffonts.googleapis.com%2Fcss%3Ffamily%3DDM%2BSans;fontSize=78;fontColor=#FFFFFF;strokeWidth=7;startArrow=none;startFill=0;shadow=1;sketch=1;strokeColor=#FAFAFA;" parent="177" edge="1">
                    <mxGeometry width="50" height="50" relative="1" as="geometry">
                        <mxPoint x="132.8235294117647" y="99.78737541528244" as="sourcePoint"/>
                        <mxPoint x="132.8235294117643" y="79.73421926910329" as="targetPoint"/>
                    </mxGeometry>
                </mxCell>
                <mxCell id="skvkwWqHoztt7yABa-7v-31" value="" style="endArrow=none;html=1;fontFamily=DM Sans;fontSource=https%3A%2F%2Ffonts.googleapis.com%2Fcss%3Ffamily%3DDM%2BSans;fontSize=78;fontColor=#FFFFFF;strokeWidth=7;startArrow=none;startFill=0;shadow=1;sketch=1;strokeColor=#FAFAFA;" parent="177" edge="1">
                    <mxGeometry width="50" height="50" relative="1" as="geometry">
                        <mxPoint x="135.2941176470588" y="13.289036544850497" as="sourcePoint"/>
                        <mxPoint x="109.41176470588215" y="13.049833887043333" as="targetPoint"/>
                    </mxGeometry>
                </mxCell>
                <mxCell id="skvkwWqHoztt7yABa-7v-27" value="" style="endArrow=none;html=1;fontFamily=DM Sans;fontSource=https%3A%2F%2Ffonts.googleapis.com%2Fcss%3Ffamily%3DDM%2BSans;fontSize=78;fontColor=#FFFFFF;strokeWidth=6;startArrow=none;startFill=0;shadow=1;sketch=1;strokeColor=#FAFAFA;" parent="177" edge="1">
                    <mxGeometry width="50" height="50" relative="1" as="geometry">
                        <mxPoint x="64.70588235294117" y="13.289036544850497" as="sourcePoint"/>
                        <mxPoint x="17.5470588235294" y="13.289036544850497" as="targetPoint"/>
                    </mxGeometry>
                </mxCell>
                <mxCell id="skvkwWqHoztt7yABa-7v-26" value="" style="ellipse;whiteSpace=wrap;html=1;fontFamily=DM Sans;fontSource=https%3A%2F%2Ffonts.googleapis.com%2Fcss%3Ffamily%3DDM%2BSans;fontSize=78;fontColor=#FFFFFF;strokeColor=#FFFFFF;strokeWidth=7;fillColor=none;shadow=1;sketch=1;" parent="177" vertex="1">
                    <mxGeometry y="33.222591362126245" width="35.29411764705882" height="39.86710963455149" as="geometry"/>
                </mxCell>
                <mxCell id="skvkwWqHoztt7yABa-7v-24" value="" style="endArrow=none;html=1;fontFamily=DM Sans;fontSource=https%3A%2F%2Ffonts.googleapis.com%2Fcss%3Ffamily%3DDM%2BSans;fontSize=78;fontColor=#FFFFFF;strokeWidth=7;startArrow=none;startFill=0;shadow=1;sketch=1;strokeColor=#FAFAFA;" parent="177" edge="1">
                    <mxGeometry width="50" height="50" relative="1" as="geometry">
                        <mxPoint x="5.882352941176469" y="99.66777408637873" as="sourcePoint"/>
                        <mxPoint x="29.411764705882348" y="100" as="targetPoint"/>
                    </mxGeometry>
                </mxCell>
                <mxCell id="skvkwWqHoztt7yABa-7v-25" value="" style="endArrow=none;html=1;fontFamily=DM Sans;fontSource=https%3A%2F%2Ffonts.googleapis.com%2Fcss%3Ffamily%3DDM%2BSans;fontSize=78;fontColor=#FFFFFF;strokeWidth=7;startArrow=none;startFill=0;shadow=1;sketch=1;strokeColor=#FAFAFA;" parent="177" edge="1">
                    <mxGeometry width="50" height="50" relative="1" as="geometry">
                        <mxPoint x="17.64705882352941" y="99.66777408637873" as="sourcePoint"/>
                        <mxPoint x="17.64705882352941" y="13.289036544850497" as="targetPoint"/>
                    </mxGeometry>
                </mxCell>
                <mxCell id="skvkwWqHoztt7yABa-7v-28" value="" style="rounded=1;whiteSpace=wrap;html=1;shadow=1;sketch=1;fontFamily=DM Sans;fontSource=https%3A%2F%2Ffonts.googleapis.com%2Fcss%3Ffamily%3DDM%2BSans;fontSize=78;fontColor=#FFFFFF;strokeColor=#FFFFFF;strokeWidth=10;fillColor=none;glass=0;" parent="177" vertex="1">
                    <mxGeometry x="64.71" y="2.77" width="44.71" height="20" as="geometry"/>
                </mxCell>
                <mxCell id="skvkwWqHoztt7yABa-7v-32" value="" style="endArrow=none;html=1;fontFamily=DM Sans;fontSource=https%3A%2F%2Ffonts.googleapis.com%2Fcss%3Ffamily%3DDM%2BSans;fontSize=78;fontColor=#FFFFFF;strokeWidth=7;startArrow=none;startFill=0;shadow=1;sketch=1;strokeColor=#FAFAFA;" parent="177" edge="1">
                    <mxGeometry width="50" height="50" relative="1" as="geometry">
                        <mxPoint x="132.9411764705882" y="33.222591362126245" as="sourcePoint"/>
                        <mxPoint x="132.9411764705878" y="13.169435215947102" as="targetPoint"/>
                    </mxGeometry>
                </mxCell>
                <mxCell id="skvkwWqHoztt7yABa-7v-30" value="" style="rounded=1;whiteSpace=wrap;html=1;shadow=1;sketch=0;fontFamily=DM Sans;fontSource=https%3A%2F%2Ffonts.googleapis.com%2Fcss%3Ffamily%3DDM%2BSans;fontSize=78;fontColor=#FFFFFF;strokeColor=#FFFFFF;strokeWidth=10;fillColor=default;glass=0;rotation=90;" parent="177" vertex="1">
                    <mxGeometry x="112.80000000000001" y="42.94" width="40" height="20.43" as="geometry"/>
                </mxCell>
                <mxCell id="skvkwWqHoztt7yABa-7v-35" value="" style="endArrow=none;html=1;fontFamily=DM Sans;fontSource=https%3A%2F%2Ffonts.googleapis.com%2Fcss%3Ffamily%3DDM%2BSans;fontSize=78;fontColor=#FFFFFF;strokeWidth=7;startArrow=none;startFill=0;shadow=1;sketch=1;strokeColor=#FAFAFA;" parent="177" edge="1">
                    <mxGeometry width="50" height="50" relative="1" as="geometry">
                        <mxPoint x="182.35294117647058" y="13.289036544850497" as="sourcePoint"/>
                        <mxPoint x="135.29411764705856" y="13.14285714285735" as="targetPoint"/>
                    </mxGeometry>
                </mxCell>
                <mxCell id="skvkwWqHoztt7yABa-7v-41" value="" style="ellipse;whiteSpace=wrap;html=1;aspect=fixed;rounded=1;shadow=1;glass=0;sketch=1;fontFamily=DM Sans;fontSource=https%3A%2F%2Ffonts.googleapis.com%2Fcss%3Ffamily%3DDM%2BSans;fontSize=78;fontColor=#FFFFFF;strokeColor=#FFFFFF;strokeWidth=7;fillColor=default;" parent="177" vertex="1">
                    <mxGeometry x="130" y="9.966777408637872" width="5.602240896358544" height="5.602240896358544" as="geometry"/>
                </mxCell>
                <mxCell id="skvkwWqHoztt7yABa-7v-16" value="" style="rounded=0;whiteSpace=wrap;html=1;fontFamily=DM Sans;fontSource=https%3A%2F%2Ffonts.googleapis.com%2Fcss%3Ffamily%3DDM%2BSans;fontSize=78;fontColor=#ffffff;strokeColor=#8C8C8C;strokeWidth=12;fillColor=none;sketch=1;" parent="227" vertex="1">
                    <mxGeometry x="232.21000000000004" y="17.789999999999964" width="390" height="230" as="geometry"/>
                </mxCell>
                <mxCell id="174" value="" style="shape=image;verticalLabelPosition=bottom;labelBackgroundColor=#ffffff;verticalAlign=top;aspect=fixed;imageAspect=0;image=data:image/svg+xml,PHN2ZyB4bWxuczpkYz0iaHR0cDovL3B1cmwub3JnL2RjL2VsZW1lbnRzLzEuMS8iIHhtbG5zOmNjPSJodHRwOi8vY3JlYXRpdmVjb21tb25zLm9yZy9ucyMiIHhtbG5zOnJkZj0iaHR0cDovL3d3dy53My5vcmcvMTk5OS8wMi8yMi1yZGYtc3ludGF4LW5zIyIgeG1sbnM6c3ZnPSJodHRwOi8vd3d3LnczLm9yZy8yMDAwL3N2ZyIgeG1sbnM9Imh0dHA6Ly93d3cudzMub3JnLzIwMDAvc3ZnIiB4bWxuczpzb2RpcG9kaT0iaHR0cDovL3NvZGlwb2RpLnNvdXJjZWZvcmdlLm5ldC9EVEQvc29kaXBvZGktMC5kdGQiIHhtbG5zOmlua3NjYXBlPSJodHRwOi8vd3d3Lmlua3NjYXBlLm9yZy9uYW1lc3BhY2VzL2lua3NjYXBlIiB3aWR0aD0iMjEwbW0iIGhlaWdodD0iMjk3bW0iIHZpZXdCb3g9IjAgMCAyMTAgMjk3IiB2ZXJzaW9uPSIxLjEiIGlkPSJzdmcxNjc3IiBpbmtzY2FwZTp2ZXJzaW9uPSIwLjkyLjMgKDI0MDU1NDYsIDIwMTgtMDMtMTEpIiBzb2RpcG9kaTpkb2NuYW1lPSJIYW5kTWl0SGFuZC5zdmciPgogIDxkZWZzIGlkPSJkZWZzMTY3MSIvPgogIDxzb2RpcG9kaTpuYW1lZHZpZXcgaWQ9ImJhc2UiIHBhZ2Vjb2xvcj0iI2ZmZmZmZiIgYm9yZGVyY29sb3I9IiM2NjY2NjYiIGJvcmRlcm9wYWNpdHk9IjEuMCIgaW5rc2NhcGU6cGFnZW9wYWNpdHk9IjAuMCIgaW5rc2NhcGU6cGFnZXNoYWRvdz0iMiIgaW5rc2NhcGU6em9vbT0iMC4zNSIgaW5rc2NhcGU6Y3g9Ii0yMjQuMjg1NzEiIGlua3NjYXBlOmN5PSI1NjAiIGlua3NjYXBlOmRvY3VtZW50LXVuaXRzPSJtbSIgaW5rc2NhcGU6Y3VycmVudC1sYXllcj0ibGF5ZXIxIiBzaG93Z3JpZD0iZmFsc2UiIGlua3NjYXBlOndpbmRvdy13aWR0aD0iMTkyMCIgaW5rc2NhcGU6d2luZG93LWhlaWdodD0iMTAyNyIgaW5rc2NhcGU6d2luZG93LXg9Ii04IiBpbmtzY2FwZTp3aW5kb3cteT0iLTgiIGlua3NjYXBlOndpbmRvdy1tYXhpbWl6ZWQ9IjEiLz4KICAKICA8ZyBpbmtzY2FwZTpsYWJlbD0iRWJlbmUgMSIgaW5rc2NhcGU6Z3JvdXBtb2RlPSJsYXllciIgaWQ9ImxheWVyMSI+CiAgICA8ZyBpZD0iZzk0NiIgdHJhbnNmb3JtPSJtYXRyaXgoMC4wMTAyMDY4LC0xLjU0OTMxOTIsMS41NDkzMTkyLDAuMDEwMjA2OCwtMTEuNjY2MTIxLDMwNy4wMTQ4NCkiPgogICAgICA8cGF0aCBpZD0icmVjdDg1MCIgdHJhbnNmb3JtPSJzY2FsZSgwLjI2NDU4MzMzKSIgZD0ibSAyODkuMzU5MzgsODQuNTY0NDUzIGMgLTguMjM5NTQsMCAtMTQuODczMDUsNi42MzM1MSAtMTQuODczMDUsMTQuODczMDQ3IHYgODguOTk0MTQgYyAwLDguMjM5NTQgNi42MzM1MSwxNC44NzMwNSAxNC44NzMwNSwxNC44NzMwNSBoIDIxNy4yODEyNCBjIDguMjM5NTQsMCAxNC44NzMwNSwtNi42MzM1MSAxNC44NzMwNSwtMTQuODczMDUgViA5OS40Mzc1IGMgMCwtOC4yMzk1MzcgLTYuNjMzNTEsLTE0Ljg3MzA0NyAtMTQuODczMDUsLTE0Ljg3MzA0NyB6IG0gNC41MjM0Myw1LjE4NzUgaCAxODUuMzQxOCBjIDcuNTMwOCwwIDEzLjU5Mzc1LDYuMDYyOTQ4IDEzLjU5Mzc1LDEzLjU5Mzc0NyB2IDgxLjMzNzg5IGMgMCw3LjUzMDgxIC02LjA2Mjk1LDEzLjU5Mzc1IC0xMy41OTM3NSwxMy41OTM3NSBoIC0xODUuMzQxOCBjIC03LjUzMDgsMCAtMTMuNTkzNzUsLTYuMDYyOTQgLTEzLjU5Mzc1LC0xMy41OTM3NSBWIDEwMy4zNDU3IGMgMCwtNy41MzA3OTkgNi4wNjI5NSwtMTMuNTkzNzQ3IDEzLjU5Mzc1LC0xMy41OTM3NDcgeiIgc3R5bGU9Im9wYWNpdHk6MTtmaWxsOiMzODI3Mjc7ZmlsbC1vcGFjaXR5OjE7ZmlsbC1ydWxlOm5vbnplcm87c3Ryb2tlOm5vbmU7c3Ryb2tlLXdpZHRoOjIuODQ1NjAzNDc7c3Ryb2tlLWxpbmVjYXA6YnV0dDtzdHJva2UtbGluZWpvaW46bWl0ZXI7c3Ryb2tlLW1pdGVybGltaXQ6NDtzdHJva2UtZGFzaGFycmF5Om5vbmU7c3Ryb2tlLWRhc2hvZmZzZXQ6MDtzdHJva2Utb3BhY2l0eToxO3BhaW50LW9yZGVyOm1hcmtlcnMgZmlsbCBzdHJva2UiIGlua3NjYXBlOmNvbm5lY3Rvci1jdXJ2YXR1cmU9IjAiIGlua3NjYXBlOmV4cG9ydC14ZHBpPSI5NiIgaW5rc2NhcGU6ZXhwb3J0LXlkcGk9Ijk2Ii8+CiAgICAgIDxwYXRoIHNvZGlwb2RpOm5vZGV0eXBlcz0iY2NjY2NjY2NjY2NjY2NjY2NjY2NjYyIgaW5rc2NhcGU6Y29ubmVjdG9yLWN1cnZhdHVyZT0iMCIgaWQ9InBhdGg4MzQiIGQ9Im0gMTY4LjU4MDI1LDc3LjEwMzk5NiBjIC0xLjc2NzI0LC02LjU1MjQ3MSAtNi42NzIwMywtMTIuMjk4OTk1IC0xMy4yNDg3OCwtMTQuMzMyMTI4IC02LjA3Njc0LC0yLjA3MzA3MyAtMTIuNTYyMTEsLTEuNDc2MjM3IC0xOC44NjgyNCwtMS44NjEwNTIgLTMuNjAxODcsLTAuMDg4MDkgLTcuMTg1NDIsLTAuNjQ5MDUxIC0xMC42Nzk1MSwtMS41MTM0MjcgLTAuODg4MjMsLTIuNzc1NzQ2IC01LjI4MDk4LC0xLjIzNzc2MSAtNi4xNDk2MSwtMi4wNTk4OTIgMC44MjU1OCwtMy4xODUzMTMgNC4zNDQ2LC0zLjcxNjYxMyA3LjEwMzY2LC00LjAyNDgzMyA0Ljg5MzcxLC0wLjQ0NzY0IDkuODQwMzksMi43NDg3MzMgMTQuNjE4MzEsMC40Nzk5ODggMy45NzgwMiwtMS41OTMyNjEgNC44NTc1LC02LjQ4MjIxMyAzLjk5NTkxLC0xMC4yNDIzNTYgLTAuNTUyMDUsLTIuNjc4MjE5IC0xLjQyOTA2LC01LjY2MzQwNiAtMy45NjkxMywtNy4wNzg1NzEgLTEuMTIzODUsLTAuODMyNzgzIC0yLjE0NzExLC0xLjc0MTcwNiAtMy4yNzA5NiwtMi41NzQ0ODkgLTAuMDQ3NywtMi40MjY0MTIgMC4xNjM4NCwtNC44NjQ2NzkgLTAuMDI5OCwtNy4yNTMwNjQgLTAuNzc2ODYsLTEuMjIyNDcgLTEuNDY4MDMsLTIuNjQ4NjM0IC0yLjM2OTYsLTMuNzM0MTU3IC0xLjU0MjI1LC0xLjAxODc2OCAtMy4yMjU2OCwtMC45NjAzMjUgLTQuOTg2OCwtMC41ODEyMzYgLTIuODYzNDEsMC4wNjczMSAtNS41NDUwOCwtMC40MDMwNyAtOC4zNjU2NSwwLjM1NjE0NSAtMi42MDYyLDEuMTg2ODA3IC03Ljg0MTIxLC0yLjIzODYwNSAtNS4yNDM2MywtMy44MTA5OTcgMy4yNDU3LDEuNjM2NTQ0IDUuNDEwNTEsLTEuOTUyNjQzIDguNzI1NywtMS43NTk0NDEgMy40ODE5OCwtMC43NTE1ODIgNy4wMDA5NSwtMS40MDczMzMgMTAuNTY1NSwtMS41ODI3MDcgMy41NDI2OCwyLjc2NzAyMSA2LjMxOTc0LDYuMzQzNTA1IDkuMTIwNTgsOS44MjIxNTUgMy4wMDQ0NiwtMC4xMzUyNDIgNi45Nzg1NywtMi40MjQ0MzYgOC42MTEwMiwxLjU3NTYxOCA4LjMyMDIyLDE0LjcyMTU3NiAxNi40NTY1OCwyOS41NjExNjQgMjQuNDYzNTgsNDQuNDYxNTU5IC0zLjM0MDg3LDEuOTA0Mjk1IC02LjY4MTczLDMuODA4NTkgLTEwLjAyMjYsNS43MTI4ODUgeiIgc3R5bGU9ImZpbGw6I2ViYmVhMTtmaWxsLW9wYWNpdHk6MTtzdHJva2U6I2ViYmVhMTtzdHJva2Utd2lkdGg6MC4yNjQ1ODMzMnB4O3N0cm9rZS1saW5lY2FwOmJ1dHQ7c3Ryb2tlLWxpbmVqb2luOm1pdGVyO3N0cm9rZS1vcGFjaXR5OjEiIGlua3NjYXBlOmV4cG9ydC14ZHBpPSI5NiIgaW5rc2NhcGU6ZXhwb3J0LXlkcGk9Ijk2Ii8+CiAgICAgIDxwYXRoIHNvZGlwb2RpOm5vZGV0eXBlcz0iY2NjY2MiIGlua3NjYXBlOmNvbm5lY3Rvci1jdXJ2YXR1cmU9IjAiIGlkPSJwYXRoODMyIiBkPSJtIDE2NC42NzE0Myw3OS4yNzU1NjEgMTYuNTM3MzEsLTkuMTIwNTc0IDQuMTc2MDgsNy43ODQyMjQgLTE4LjY3NTQ1LDYuNzgxOTY0IHoiIHN0eWxlPSJmaWxsOiM2Mjk4YmM7ZmlsbC1vcGFjaXR5OjE7c3Ryb2tlOiM2Mjk4YmM7c3Ryb2tlLXdpZHRoOjAuMjY0NTgzMzJweDtzdHJva2UtbGluZWNhcDpidXR0O3N0cm9rZS1saW5lam9pbjptaXRlcjtzdHJva2Utb3BhY2l0eToxIiBpbmtzY2FwZTpleHBvcnQteGRwaT0iOTYiIGlua3NjYXBlOmV4cG9ydC15ZHBpPSI5NiIvPgogICAgICA8cGF0aCBzb2RpcG9kaTpub2RldHlwZXM9ImNjY2NjYyIgaW5rc2NhcGU6Y29ubmVjdG9yLWN1cnZhdHVyZT0iMCIgaWQ9InBhdGg4MzYiIGQ9Im0gMTY2LjcwOTM3LDg0LjcyMTE3NSBjIC0wLjQ0NTc0LDEuNDAwOTc3IC0wLjg3Mjk2LDIuODAxOTUzIC0wLjgyNTA3LDQuMjAyOTMgbCAxLjc5NTM5LDM4LjMxNzMzNSBjIDEwLjE3MDM0LC0wLjA1ODQgMjAuMzQwNzIsLTAuMTA0NDIgMzAuNTExMTUsLTAuMTQyMTYgLTEuMTE4NDYsLTAuNzQ1MzggLTEyLjAzOTIxLC00OC44MDgyMjEgLTEyLjgwNjQ3LC00OS4xNjAwNjkgeiIgc3R5bGU9ImZpbGw6IzVmN2I5MTtmaWxsLW9wYWNpdHk6MTtzdHJva2U6IzVmN2I5MTtzdHJva2Utd2lkdGg6MC4yNjQ1ODMzMnB4O3N0cm9rZS1saW5lY2FwOmJ1dHQ7c3Ryb2tlLWxpbmVqb2luOm1pdGVyO3N0cm9rZS1vcGFjaXR5OjEiIGlua3NjYXBlOmV4cG9ydC14ZHBpPSI5NiIgaW5rc2NhcGU6ZXhwb3J0LXlkcGk9Ijk2Ii8+CiAgICAgIDxwYXRoIHNvZGlwb2RpOm5vZGV0eXBlcz0iY2NjY2MiIGlua3NjYXBlOmNvbm5lY3Rvci1jdXJ2YXR1cmU9IjAiIGlkPSJwYXRoODQwIiBkPSJtIDExNi41Mjk1LDE4LjYzODc4NyAwLjE0MTQxLC0wLjU3ODU3NCA1LjAzNjk0LC0wLjAyMjc5IGMgLTAuNTY5MTcsMS4yNTU4MjIgLTEuNjU1NTEsMS45MzU1MDIgLTUuMTc4MzUsMC42MDEzNTEgeiIgc3R5bGU9ImZpbGw6I2Y0Y2ViYztmaWxsLW9wYWNpdHk6MTtzdHJva2U6I2Y0Y2ViYztzdHJva2Utd2lkdGg6MC4yNjQ1ODMzMnB4O3N0cm9rZS1saW5lY2FwOmJ1dHQ7c3Ryb2tlLWxpbmVqb2luOm1pdGVyO3N0cm9rZS1vcGFjaXR5OjEiIGlua3NjYXBlOmV4cG9ydC14ZHBpPSI5NiIgaW5rc2NhcGU6ZXhwb3J0LXlkcGk9Ijk2Ii8+CiAgICAgIDxwYXRoIHNvZGlwb2RpOm5vZGV0eXBlcz0iY2NjYyIgaW5rc2NhcGU6Y29ubmVjdG9yLWN1cnZhdHVyZT0iMCIgaWQ9InBhdGg4NDQiIGQ9Im0gMTE5LjUwMjg5LDU3Ljc2MDM2NCBjIC0wLjQ0NjE2LDEuMDkzMTE1IDMuODQ3MjIsMS4xODQ1NzUgNi4yODA4MywxLjYzNzAyNSAtMC41NTA3NCwtMC43NzI1OTEgLTEuMDE3MjQsLTEuNTkxNzc5IC0yLjU4MDgyLC0xLjgwNDA3IC0xLjE1NzE1LC0wLjI1MzkxMiAtMS45OTkxOCwtMC4xMjExNzUgLTMuNzAwMDEsMC4xNjcwNDUgeiIgc3R5bGU9ImZpbGw6I2Y0Y2ViYztmaWxsLW9wYWNpdHk6MTtzdHJva2U6I2Y0Y2ViYztzdHJva2Utd2lkdGg6MC4yNjQ1ODMzMnB4O3N0cm9rZS1saW5lY2FwOmJ1dHQ7c3Ryb2tlLWxpbmVqb2luOm1pdGVyO3N0cm9rZS1vcGFjaXR5OjEiIGlua3NjYXBlOmV4cG9ydC14ZHBpPSI5NiIgaW5rc2NhcGU6ZXhwb3J0LXlkcGk9Ijk2Ii8+CiAgICAgIDxlbGxpcHNlIHJ5PSIwLjg2ODE2NDA2IiByeD0iMC45MDk1MDUxOSIgY3k9IjgxLjI4NzgwNCIgY3g9IjE2OC43ODk5OSIgaWQ9InBhdGg4NDYiIHN0eWxlPSJvcGFjaXR5OjE7ZmlsbDojOWRjZWRmO2ZpbGwtb3BhY2l0eToxO2ZpbGwtcnVsZTpub256ZXJvO3N0cm9rZTojOWRjZWRmO3N0cm9rZS13aWR0aDowLjc2NDk5OTk5O3N0cm9rZS1saW5lY2FwOmJ1dHQ7c3Ryb2tlLWxpbmVqb2luOm1pdGVyO3N0cm9rZS1taXRlcmxpbWl0OjQ7c3Ryb2tlLWRhc2hhcnJheTpub25lO3N0cm9rZS1kYXNob2Zmc2V0OjA7c3Ryb2tlLW9wYWNpdHk6MTtwYWludC1vcmRlcjptYXJrZXJzIGZpbGwgc3Ryb2tlIiBpbmtzY2FwZTpleHBvcnQteGRwaT0iOTYiIGlua3NjYXBlOmV4cG9ydC15ZHBpPSI5NiIvPgogICAgICA8ZWxsaXBzZSByeT0iMi40MDk1OTgxIiByeD0iMi4zODU5NzQ5IiBjeT0iMzguMjc1Mjk1IiBjeD0iMTMzLjk2ODkzIiBpZD0icGF0aDg2NyIgc3R5bGU9Im9wYWNpdHk6MTtmaWxsOiNmZmZmZmY7ZmlsbC1vcGFjaXR5OjE7ZmlsbC1ydWxlOm5vbnplcm87c3Ryb2tlOiNiZGJkYmQ7c3Ryb2tlLXdpZHRoOjAuNzY0OTk5OTk7c3Ryb2tlLWxpbmVjYXA6YnV0dDtzdHJva2UtbGluZWpvaW46bWl0ZXI7c3Ryb2tlLW1pdGVybGltaXQ6NDtzdHJva2UtZGFzaGFycmF5Om5vbmU7c3Ryb2tlLWRhc2hvZmZzZXQ6MDtzdHJva2Utb3BhY2l0eToxO3BhaW50LW9yZGVyOm1hcmtlcnMgZmlsbCBzdHJva2UiIGlua3NjYXBlOmV4cG9ydC14ZHBpPSI5NiIgaW5rc2NhcGU6ZXhwb3J0LXlkcGk9Ijk2Ii8+CiAgICAgIDxwYXRoIHNvZGlwb2RpOm5vZGV0eXBlcz0iY2NjYyIgaW5rc2NhcGU6Y29ubmVjdG9yLWN1cnZhdHVyZT0iMCIgaWQ9InBhdGg4ODIiIGQ9Im0gMTM3Ljk1Njg0LDI2LjcxNjY4NSBjIDEuODI3MDksMy45MjI5MDggMy41NTc1MSw3LjgzNDQ3IDUuNDAyMDksMTEuNzQ5NjI1IGwgLTUuMzgzMDcsLTQuNDkyOTM1IHoiIHN0eWxlPSJmaWxsOiNjZmE1ODM7ZmlsbC1vcGFjaXR5OjE7c3Ryb2tlOm5vbmU7c3Ryb2tlLXdpZHRoOjAuMjY0NTgzMzJweDtzdHJva2UtbGluZWNhcDpidXR0O3N0cm9rZS1saW5lam9pbjptaXRlcjtzdHJva2Utb3BhY2l0eToxIiBpbmtzY2FwZTpleHBvcnQteGRwaT0iOTYiIGlua3NjYXBlOmV4cG9ydC15ZHBpPSI5NiIvPgogICAgICA8cGF0aCBzb2RpcG9kaTpub2RldHlwZXM9ImNjY2MiIGlua3NjYXBlOmNvbm5lY3Rvci1jdXJ2YXR1cmU9IjAiIGlkPSJwYXRoODU3IiBkPSJtIDE0NS41ODc3MSwyNS4yMDA0NjMgMy4yNjUwOCw0LjI4NjQ5OCBjIC0wLjI4NTE3LC0wLjg5NzY2NiAtMS4zMjI1OSwtNC41NzkxMTMgMS44NTYyNCwtNS4wMzk1MDUgLTEuMTU4NzQsLTAuMDAyNyAtMy42Nzg0LDAuNTE1NTg1IC01LjEyMTMyLDAuNzUzMDA3IHoiIHN0eWxlPSJmaWxsOiNjZmE1ODM7ZmlsbC1vcGFjaXR5OjE7c3Ryb2tlOm5vbmU7c3Ryb2tlLXdpZHRoOjAuMjY0NTgzMzJweDtzdHJva2UtbGluZWNhcDpidXR0O3N0cm9rZS1saW5lam9pbjptaXRlcjtzdHJva2Utb3BhY2l0eToxIiBpbmtzY2FwZTpleHBvcnQteGRwaT0iOTYiIGlua3NjYXBlOmV4cG9ydC15ZHBpPSI5NiIvPgogICAgICA8cGF0aCBzb2RpcG9kaTpub2RldHlwZXM9ImNjY2NjY2NjY2NjY2NjY2NjY2NjY2MiIGlua3NjYXBlOmNvbm5lY3Rvci1jdXJ2YXR1cmU9IjAiIGlkPSJwYXRoODM0LTIiIGQ9Im0gNDIuMDg4Mjk4LDc3LjUwMzc2NSBjIDEuNzY3MjQsLTYuNTUyNDcyIDYuNjcyMDI4LC0xMi4yOTg5OTUgMTMuMjQ4Nzc2LC0xNC4zMzIxMjcgNi4wNzY3NDEsLTIuMDczMDc0IDEyLjU2MjExMywtMS40NzYyMzggMTguODY4MjQ2LC0xLjg2MTA1MyAzLjYwMTg3LC0wLjA4ODA5IDcuMTg1NDIsLTAuNjQ5MDUyIDEwLjY3OTUxLC0xLjUxMzQyNyAwLjg4ODIzLC0yLjc3NTc0NyA1LjI4MDk4LC0xLjIzNzc2MSA2LjE0OTYxLC0yLjA1OTg5MyAtMC44MjU1OCwtMy4xODUzMTMgLTQuMzQ0NiwtMy43MTY2MTIgLTcuMTAzNjYsLTQuMDI0ODMzIC00Ljg5MzcxLC0wLjQ0NzYzOCAtOS44NDAzOSwyLjc0ODczNSAtMTQuNjE4MzEsMC40Nzk5ODggLTMuOTc4MDI0LC0xLjU5MzI2IC00Ljg1NzUwNSwtNi40ODIyMTIgLTMuOTk1OTE2LC0xMC4yNDIzNTcgMC41NTIwNTEsLTIuNjc4MjE4IDEuNDI5MDYzLC01LjY2MzQwNSAzLjk2OTEzNiwtNy4wNzg1NyAxLjEyMzg1LC0wLjgzMjc4MyAyLjE0NzExLC0xLjc0MTcwNiAzLjI3MDk2LC0yLjU3NDQ4OSAwLjA0NzcsLTIuNDI2NDE2IC0wLjE2Mzg0LC00Ljg2NDY3NiAwLjAyOTgsLTcuMjUzMDY2IDAuNzc2ODYsLTEuMjIyNDcgMS40NjgwMywtMi42NDg2MyAyLjM2OTYsLTMuNzM0MTUgMS41NDIyNSwtMS4wMTg3NyAzLjIyNTY4LC0wLjk2MDMzIDQuOTg2OCwtMC41ODEyNCAyLjg2MzQxLDAuMDY3MyA1LjU0NTA4LC0wLjQwMzA3IDguMzY1NjUsMC4zNTYxNCAyLjYwNjIsMS4xODY4MSA3Ljg0MTIxLC0yLjIzODYgNS4yNDM2MywtMy44MTA5OSAtMy4yNDU3LDEuNjM2NTQgLTUuNDEwNTEsLTEuOTUyNjUgLTguNzI1NywtMS43NTk0NCAtMy40ODE5OCwtMC43NTE1OSAtNy4wMDA5NSwtMS40MDczNCAtMTAuNTY1NSwtMS41ODI3MSAtMy41NDI2OCwyLjc2NzAyIC02LjMxOTc0NCw2LjM0MzUgLTkuMTIwNTg1LDkuODIyMTUgLTMuMDA0NDYxLC0wLjEzNTI0IC02Ljk3ODU2OCwtMi40MjQ0MyAtOC42MTEwMTksMS41NzU2MiAtOC4zMjAyMTksMTQuNzIxNTc4IC0xNi40NTY1NzgsMjkuNTYxMTY3IC0yNC40NjM1NzgsNDQuNDYxNTYxIDMuMzQwODcsMS45MDQyOTYgNi42ODE3MywzLjgwODU5IDEwLjAyMjYsNS43MTI4ODYgeiIgc3R5bGU9ImZpbGw6I2ViYmVhMTtmaWxsLW9wYWNpdHk6MTtzdHJva2U6I2ViYmVhMTtzdHJva2Utd2lkdGg6MC4yNjQ1ODMzMnB4O3N0cm9rZS1saW5lY2FwOmJ1dHQ7c3Ryb2tlLWxpbmVqb2luOm1pdGVyO3N0cm9rZS1vcGFjaXR5OjEiIGlua3NjYXBlOmV4cG9ydC14ZHBpPSI5NiIgaW5rc2NhcGU6ZXhwb3J0LXlkcGk9Ijk2Ii8+CiAgICAgIDxwYXRoIHNvZGlwb2RpOm5vZGV0eXBlcz0iY2NjY2NjIiBpbmtzY2FwZTpjb25uZWN0b3ItY3VydmF0dXJlPSIwIiBpZD0icGF0aDgzNi0yIiBkPSJtIDQzLjk1OTE3OCw4NS4xMjA5NDQgYyAwLjQ0NTc0LDEuNDAwOTc3IDAuODcyOTYsMi44MDE5NTQgMC44MjUwNyw0LjIwMjkzMSBMIDQyLjk4ODg1OCwxMjcuNjQxMiBDIDMxLjcxMjgwNiwxMjcuNTY4ODIgMjAuNDM2NjYxLDEyNy41MzA3NyA5LjE2MDQ0NTEsMTI3LjQ5OTQ3IDEwLjI3ODkwNSwxMjYuNzU0MDkgMjQuNTE2OTE4LDc4LjY5MDgyOSAyNS4yODQxNzgsNzguMzM4OTggWiIgc3R5bGU9ImZpbGw6IzVmN2I5MTtmaWxsLW9wYWNpdHk6MTtzdHJva2U6IzVmN2I5MTtzdHJva2Utd2lkdGg6MC4yNjQ1ODMzMnB4O3N0cm9rZS1saW5lY2FwOmJ1dHQ7c3Ryb2tlLWxpbmVqb2luOm1pdGVyO3N0cm9rZS1vcGFjaXR5OjEiIGlua3NjYXBlOmV4cG9ydC14ZHBpPSI5NiIgaW5rc2NhcGU6ZXhwb3J0LXlkcGk9Ijk2Ii8+CiAgICAgIDxwYXRoIHNvZGlwb2RpOm5vZGV0eXBlcz0iY2NjY2MiIGlua3NjYXBlOmNvbm5lY3Rvci1jdXJ2YXR1cmU9IjAiIGlkPSJwYXRoODMyLTYiIGQ9Im0gNDUuOTk3MTE4LDc5LjY3NTMzIC0xNi41MzczMSwtOS4xMjA1NzQgLTQuMTc2MDgsNy43ODQyMjQgMTguNjc1NDUsNi43ODE5NjQgeiIgc3R5bGU9ImZpbGw6IzYyOThiYztmaWxsLW9wYWNpdHk6MTtzdHJva2U6IzYyOThiYztzdHJva2Utd2lkdGg6MC4yNjQ1ODMzMnB4O3N0cm9rZS1saW5lY2FwOmJ1dHQ7c3Ryb2tlLWxpbmVqb2luOm1pdGVyO3N0cm9rZS1vcGFjaXR5OjEiIGlua3NjYXBlOmV4cG9ydC14ZHBpPSI5NiIgaW5rc2NhcGU6ZXhwb3J0LXlkcGk9Ijk2Ii8+CiAgICAgIDxwYXRoIHNvZGlwb2RpOm5vZGV0eXBlcz0iY2NjY2MiIGlua3NjYXBlOmNvbm5lY3Rvci1jdXJ2YXR1cmU9IjAiIGlkPSJwYXRoODQwLTMiIGQ9Im0gOTQuMTM5MDUsMTkuMDM4NTU4IC0wLjE0MTQxLC0wLjU3ODU4IC01LjAzNjk0LC0wLjAyMjggYyAwLjU2OTE3LDEuMjU1ODMgMS42NTU1MSwxLjkzNTUxIDUuMTc4MzUsMC42MDEzNSB6IiBzdHlsZT0iZmlsbDojZjRjZWJjO2ZpbGwtb3BhY2l0eToxO3N0cm9rZTojZjRjZWJjO3N0cm9rZS13aWR0aDowLjI2NDU4MzMycHg7c3Ryb2tlLWxpbmVjYXA6YnV0dDtzdHJva2UtbGluZWpvaW46bWl0ZXI7c3Ryb2tlLW9wYWNpdHk6MSIgaW5rc2NhcGU6ZXhwb3J0LXhkcGk9Ijk2IiBpbmtzY2FwZTpleHBvcnQteWRwaT0iOTYiLz4KICAgICAgPHBhdGggc29kaXBvZGk6bm9kZXR5cGVzPSJjY2NjIiBpbmtzY2FwZTpjb25uZWN0b3ItY3VydmF0dXJlPSIwIiBpZD0icGF0aDg0NC0wIiBkPSJtIDkxLjE2NTY2LDU4LjE2MDEzMyBjIDAuNDQ2MTYsMS4wOTMxMTUgLTMuODQ3MjIsMS4xODQ1NzQgLTYuMjgwODMsMS42MzcwMjUgMC41NTA3NCwtMC43NzI1OTIgMS4wMTcyNCwtMS41OTE3NzkgMi41ODA4MiwtMS44MDQwNyAxLjE1NzE1LC0wLjI1MzkxMiAxLjk5OTE4LC0wLjEyMTE3NiAzLjcwMDAxLDAuMTY3MDQ1IHoiIHN0eWxlPSJmaWxsOiNmNGNlYmM7ZmlsbC1vcGFjaXR5OjE7c3Ryb2tlOiNmNGNlYmM7c3Ryb2tlLXdpZHRoOjAuMjY0NTgzMzJweDtzdHJva2UtbGluZWNhcDpidXR0O3N0cm9rZS1saW5lam9pbjptaXRlcjtzdHJva2Utb3BhY2l0eToxIiBpbmtzY2FwZTpleHBvcnQteGRwaT0iOTYiIGlua3NjYXBlOmV4cG9ydC15ZHBpPSI5NiIvPgogICAgICA8ZWxsaXBzZSB0cmFuc2Zvcm09InNjYWxlKC0xLDEpIiByeT0iMC44NjgxNjQwNiIgcng9IjAuOTA5NTA1MTkiIGN5PSI4MS42ODc1NjkiIGN4PSItNDEuODc4NTU5IiBpZD0icGF0aDg0Ni05IiBzdHlsZT0ib3BhY2l0eToxO2ZpbGw6IzlkY2VkZjtmaWxsLW9wYWNpdHk6MTtmaWxsLXJ1bGU6bm9uemVybztzdHJva2U6IzlkY2VkZjtzdHJva2Utd2lkdGg6MC43NjQ5OTk5OTtzdHJva2UtbGluZWNhcDpidXR0O3N0cm9rZS1saW5lam9pbjptaXRlcjtzdHJva2UtbWl0ZXJsaW1pdDo0O3N0cm9rZS1kYXNoYXJyYXk6bm9uZTtzdHJva2UtZGFzaG9mZnNldDowO3N0cm9rZS1vcGFjaXR5OjE7cGFpbnQtb3JkZXI6bWFya2VycyBmaWxsIHN0cm9rZSIgaW5rc2NhcGU6ZXhwb3J0LXhkcGk9Ijk2IiBpbmtzY2FwZTpleHBvcnQteWRwaT0iOTYiLz4KICAgICAgPHBhdGggc29kaXBvZGk6bm9kZXR5cGVzPSJjY2NjIiBpbmtzY2FwZTpjb25uZWN0b3ItY3VydmF0dXJlPSIwIiBpZD0icGF0aDg4Mi0wIiBkPSJtIDcyLjcxMTcxLDI3LjExNjQ1OCBjIC0xLjgyNzA5LDMuOTIyOSAtMy41NTc1MSw3LjgzNDQ2NSAtNS40MDIwOTQsMTEuNzQ5NjIgbCA1LjM4MzA3NCwtNC40OTI5MzUgeiIgc3R5bGU9ImZpbGw6I2NmYTU4MztmaWxsLW9wYWNpdHk6MTtzdHJva2U6bm9uZTtzdHJva2Utd2lkdGg6MC4yNjQ1ODMzMnB4O3N0cm9rZS1saW5lY2FwOmJ1dHQ7c3Ryb2tlLWxpbmVqb2luOm1pdGVyO3N0cm9rZS1vcGFjaXR5OjEiIGlua3NjYXBlOmV4cG9ydC14ZHBpPSI5NiIgaW5rc2NhcGU6ZXhwb3J0LXlkcGk9Ijk2Ii8+CiAgICAgIDxwYXRoIHNvZGlwb2RpOm5vZGV0eXBlcz0iY2NjYyIgaW5rc2NhcGU6Y29ubmVjdG9yLWN1cnZhdHVyZT0iMCIgaWQ9InBhdGg4NTctOCIgZD0ibSA2NS4wODA4MzQsMjUuNjAwMjI4IC0zLjI2NTA4LDQuMjg2NSBjIDAuMjg1MTcxLC0wLjg5NzY2IDEuMzIyNTkyLC00LjU3OTExIC0xLjg1NjI0LC01LjAzOTUgMS4xNTg3NDEsLTAuMDAzIDMuNjc4NDAyLDAuNTE1NTggNS4xMjEzMiwwLjc1MyB6IiBzdHlsZT0iZmlsbDojY2ZhNTgzO2ZpbGwtb3BhY2l0eToxO3N0cm9rZTpub25lO3N0cm9rZS13aWR0aDowLjI2NDU4MzMycHg7c3Ryb2tlLWxpbmVjYXA6YnV0dDtzdHJva2UtbGluZWpvaW46bWl0ZXI7c3Ryb2tlLW9wYWNpdHk6MSIgaW5rc2NhcGU6ZXhwb3J0LXhkcGk9Ijk2IiBpbmtzY2FwZTpleHBvcnQteWRwaT0iOTYiLz4KICAgIDwvZz4KICA8L2c+Cjwvc3ZnPg==;rotation=90;" parent="227" vertex="1">
                    <mxGeometry x="122.21000000000004" y="-122.21000000000004" width="590" height="834.42" as="geometry"/>
                </mxCell>
                <mxCell id="163" value="" style="group;strokeWidth=10;" parent="skvkwWqHoztt7yABa-7v-1" vertex="1" connectable="0">
                    <mxGeometry x="1120.0000000000005" y="1100" width="550.1599999999999" height="265" as="geometry"/>
                </mxCell>
                <mxCell id="Msj7Maj7df4tfXAj90HZ-107" value="" style="endArrow=none;html=1;fontSize=30;strokeColor=#000000;strokeWidth=10;curved=1;sketch=1;" parent="163" edge="1">
                    <mxGeometry width="50" height="50" relative="1" as="geometry">
                        <mxPoint x="39.25928568880005" y="264.45037037037036" as="sourcePoint"/>
                        <mxPoint x="39.25928568880005" y="28.894814814814936" as="targetPoint"/>
                    </mxGeometry>
                </mxCell>
                <mxCell id="Msj7Maj7df4tfXAj90HZ-108" value="" style="endArrow=none;html=1;fontSize=30;strokeColor=#000000;strokeWidth=10;curved=1;sketch=1;" parent="163" edge="1">
                    <mxGeometry width="50" height="50" relative="1" as="geometry">
                        <mxPoint x="73" y="264.45037037037036" as="sourcePoint"/>
                        <mxPoint x="5" y="264.45037037037036" as="targetPoint"/>
                    </mxGeometry>
                </mxCell>
                <mxCell id="Msj7Maj7df4tfXAj90HZ-109" value="" style="endArrow=none;html=1;fontSize=30;strokeColor=#000000;strokeWidth=10;curved=1;sketch=1;" parent="163" edge="1">
                    <mxGeometry width="50" height="50" relative="1" as="geometry">
                        <mxPoint x="157.56714311199903" y="29.444444444444343" as="sourcePoint"/>
                        <mxPoint x="39.789286045598885" y="29.444444444444343" as="targetPoint"/>
                    </mxGeometry>
                </mxCell>
                <mxCell id="Msj7Maj7df4tfXAj90HZ-114" value="" style="ellipse;whiteSpace=wrap;html=1;aspect=fixed;fontSize=30;strokeWidth=10;fillColor=none;sketch=1;strokeColor=#000000;" parent="163" vertex="1">
                    <mxGeometry y="107.41333333333341" width="78.51851851851852" height="78.51851851851852" as="geometry"/>
                </mxCell>
                <mxCell id="Msj7Maj7df4tfXAj90HZ-124" value="" style="rounded=0;whiteSpace=wrap;html=1;sketch=1;fontSize=30;strokeColor=#000000;strokeWidth=10;fillColor=none;" parent="163" vertex="1">
                    <mxGeometry x="157.57" width="117.78" height="70" as="geometry"/>
                </mxCell>
                <mxCell id="Msj7Maj7df4tfXAj90HZ-128" value="" style="group;strokeWidth=10;" parent="163" vertex="1" connectable="0">
                    <mxGeometry x="324.41910728939916" y="88.33333333333326" width="58.88892853320008" height="117.77777777777779" as="geometry"/>
                </mxCell>
                <mxCell id="Msj7Maj7df4tfXAj90HZ-126" value="" style="rounded=0;whiteSpace=wrap;html=1;sketch=1;fontSize=30;strokeColor=#000000;strokeWidth=10;fillColor=none;direction=south;" parent="Msj7Maj7df4tfXAj90HZ-128" vertex="1">
                    <mxGeometry width="58.88892853320008" height="117.77777777777779" as="geometry"/>
                </mxCell>
                <mxCell id="Msj7Maj7df4tfXAj90HZ-127" value="" style="rounded=0;whiteSpace=wrap;html=1;sketch=0;fontSize=30;strokeColor=#000000;strokeWidth=10;fillColor=#000000;direction=south;" parent="Msj7Maj7df4tfXAj90HZ-128" vertex="1">
                    <mxGeometry x="1.9629642844400026" y="1.962962962962963" width="54.962999964320076" height="113.85185185185186" as="geometry"/>
                </mxCell>
                <mxCell id="Msj7Maj7df4tfXAj90HZ-129" value="" style="endArrow=none;html=1;fontSize=30;strokeColor=#000000;strokeWidth=10;curved=1;sketch=1;startArrow=none;" parent="163" source="Msj7Maj7df4tfXAj90HZ-137" edge="1">
                    <mxGeometry width="50" height="50" relative="1" as="geometry">
                        <mxPoint x="510.90071431119947" y="29.444444444444343" as="sourcePoint"/>
                        <mxPoint x="275.34500017839963" y="28.894814814814936" as="targetPoint"/>
                    </mxGeometry>
                </mxCell>
                <mxCell id="Msj7Maj7df4tfXAj90HZ-130" value="" style="endArrow=none;html=1;fontSize=30;strokeColor=#000000;strokeWidth=10;curved=1;sketch=1;" parent="163" edge="1">
                    <mxGeometry width="50" height="50" relative="1" as="geometry">
                        <mxPoint x="353.3139415563565" y="265" as="sourcePoint"/>
                        <mxPoint x="353.3139415563565" y="29.444444444444343" as="targetPoint"/>
                    </mxGeometry>
                </mxCell>
                <mxCell id="Msj7Maj7df4tfXAj90HZ-131" value="" style="endArrow=none;html=1;fontSize=30;strokeColor=#000000;strokeWidth=10;curved=1;sketch=1;" parent="163" edge="1">
                    <mxGeometry width="50" height="50" relative="1" as="geometry">
                        <mxPoint x="388" y="265" as="sourcePoint"/>
                        <mxPoint x="319" y="265" as="targetPoint"/>
                    </mxGeometry>
                </mxCell>
                <mxCell id="Msj7Maj7df4tfXAj90HZ-132" value="" style="endArrow=none;html=1;fontSize=30;strokeColor=#000000;strokeWidth=10;curved=1;sketch=1;" parent="163" edge="1">
                    <mxGeometry width="50" height="50" relative="1" as="geometry">
                        <mxPoint x="550.1599999999999" y="146.12296296296313" as="sourcePoint"/>
                        <mxPoint x="471.6414286223999" y="146.12296296296313" as="targetPoint"/>
                    </mxGeometry>
                </mxCell>
                <mxCell id="Msj7Maj7df4tfXAj90HZ-133" value="" style="endArrow=none;html=1;fontSize=30;strokeColor=#000000;strokeWidth=10;curved=1;sketch=1;" parent="163" edge="1">
                    <mxGeometry width="50" height="50" relative="1" as="geometry">
                        <mxPoint x="550.1599999999999" y="165.7525925925927" as="sourcePoint"/>
                        <mxPoint x="471.6414286223999" y="165.7525925925927" as="targetPoint"/>
                    </mxGeometry>
                </mxCell>
                <mxCell id="Msj7Maj7df4tfXAj90HZ-134" value="" style="endArrow=none;html=1;fontSize=30;strokeColor=#000000;strokeWidth=10;curved=1;sketch=1;" parent="163" edge="1">
                    <mxGeometry width="50" height="50" relative="1" as="geometry">
                        <mxPoint x="550.1599999999999" y="265" as="sourcePoint"/>
                        <mxPoint x="474" y="265" as="targetPoint"/>
                    </mxGeometry>
                </mxCell>
                <mxCell id="Msj7Maj7df4tfXAj90HZ-135" value="" style="endArrow=none;html=1;fontSize=30;strokeColor=#000000;strokeWidth=10;curved=1;sketch=1;" parent="163" edge="1">
                    <mxGeometry width="50" height="50" relative="1" as="geometry">
                        <mxPoint x="510.90071431119947" y="265" as="sourcePoint"/>
                        <mxPoint x="510.9007143111999" y="166.85185185185173" as="targetPoint"/>
                    </mxGeometry>
                </mxCell>
                <mxCell id="Msj7Maj7df4tfXAj90HZ-136" value="" style="endArrow=none;html=1;fontSize=30;strokeColor=#000000;strokeWidth=10;curved=1;sketch=1;" parent="163" edge="1">
                    <mxGeometry width="50" height="50" relative="1" as="geometry">
                        <mxPoint x="510.9007143111999" y="147.22222222222217" as="sourcePoint"/>
                        <mxPoint x="510.90071431119947" y="29.444444444444343" as="targetPoint"/>
                    </mxGeometry>
                </mxCell>
                <mxCell id="Msj7Maj7df4tfXAj90HZ-137" value="" style="ellipse;whiteSpace=wrap;html=1;aspect=fixed;sketch=1;fontSize=30;strokeColor=#000000;strokeWidth=10;fillColor=#000000;" parent="163" vertex="1">
                    <mxGeometry x="347.97467870267934" y="23.555555555555657" width="11.777777777777779" height="11.777777777777779" as="geometry"/>
                </mxCell>
                <mxCell id="Msj7Maj7df4tfXAj90HZ-139" value="" style="endArrow=none;html=1;fontSize=30;strokeColor=#000000;strokeWidth=10;curved=1;sketch=1;" parent="163" target="Msj7Maj7df4tfXAj90HZ-137" edge="1">
                    <mxGeometry width="50" height="50" relative="1" as="geometry">
                        <mxPoint x="510.9007143111999" y="29.444444444444343" as="sourcePoint"/>
                        <mxPoint x="275.34500017839963" y="28.89481481481539" as="targetPoint"/>
                    </mxGeometry>
                </mxCell>
                <mxCell id="162" value="" style="ellipse;whiteSpace=wrap;html=1;aspect=fixed;strokeWidth=10;fillColor=#000000;" parent="163" vertex="1">
                    <mxGeometry x="351.35999999999996" y="26.940000000000055" width="5" height="5" as="geometry"/>
                </mxCell>
                <mxCell id="228" value="" style="group" vertex="1" connectable="0" parent="skvkwWqHoztt7yABa-7v-1">
                    <mxGeometry x="1770" y="1554" width="590" height="590" as="geometry"/>
                </mxCell>
                <mxCell id="197" value="" style="rounded=0;whiteSpace=wrap;html=1;fontSize=140;fontColor=#0F1686;strokeWidth=4;fillColor=#F6F9EA;" parent="228" vertex="1">
                    <mxGeometry x="70.10146505954923" y="86.35385277658187" width="455.7697933706413" height="290.38599512125126" as="geometry"/>
                </mxCell>
                <mxCell id="186" value="" style="shape=image;verticalLabelPosition=bottom;labelBackgroundColor=#ffffff;verticalAlign=top;aspect=fixed;imageAspect=0;image=data:image/svg+xml,PHN2ZyB4bWxuczpkYz0iaHR0cDovL3B1cmwub3JnL2RjL2VsZW1lbnRzLzEuMS8iIHhtbG5zOmNjPSJodHRwOi8vY3JlYXRpdmVjb21tb25zLm9yZy9ucyMiIHhtbG5zOnJkZj0iaHR0cDovL3d3dy53My5vcmcvMTk5OS8wMi8yMi1yZGYtc3ludGF4LW5zIyIgeG1sbnM6c3ZnPSJodHRwOi8vd3d3LnczLm9yZy8yMDAwL3N2ZyIgeG1sbnM9Imh0dHA6Ly93d3cudzMub3JnLzIwMDAvc3ZnIiB4bWxuczpzb2RpcG9kaT0iaHR0cDovL3NvZGlwb2RpLnNvdXJjZWZvcmdlLm5ldC9EVEQvc29kaXBvZGktMC5kdGQiIHhtbG5zOmlua3NjYXBlPSJodHRwOi8vd3d3Lmlua3NjYXBlLm9yZy9uYW1lc3BhY2VzL2lua3NjYXBlIiB3aWR0aD0iMjEwbW0iIGhlaWdodD0iMjEwbW0iIHZpZXdCb3g9IjAgMCAyMTAgMjEwIiB2ZXJzaW9uPSIxLjEiIGlkPSJzdmcxNjc3IiBpbmtzY2FwZTp2ZXJzaW9uPSIwLjkyLjMgKDI0MDU1NDYsIDIwMTgtMDMtMTEpIiBzb2RpcG9kaTpkb2NuYW1lPSJMYXB0b3Auc3ZnIj4KICA8ZGVmcyBpZD0iZGVmczE2NzEiLz4KICA8c29kaXBvZGk6bmFtZWR2aWV3IGlkPSJiYXNlIiBwYWdlY29sb3I9IiNmZmZmZmYiIGJvcmRlcmNvbG9yPSIjNjY2NjY2IiBib3JkZXJvcGFjaXR5PSIxLjAiIGlua3NjYXBlOnBhZ2VvcGFjaXR5PSIwLjAiIGlua3NjYXBlOnBhZ2VzaGFkb3c9IjIiIGlua3NjYXBlOnpvb209IjAuNDk0OTc0NzUiIGlua3NjYXBlOmN4PSIzODkuMDcwNTMiIGlua3NjYXBlOmN5PSI1NjIuMjc0NTkiIGlua3NjYXBlOmRvY3VtZW50LXVuaXRzPSJtbSIgaW5rc2NhcGU6Y3VycmVudC1sYXllcj0ibGF5ZXIxIiBzaG93Z3JpZD0iZmFsc2UiIGlua3NjYXBlOndpbmRvdy13aWR0aD0iMTkyMCIgaW5rc2NhcGU6d2luZG93LWhlaWdodD0iMTAyNyIgaW5rc2NhcGU6d2luZG93LXg9Ii04IiBpbmtzY2FwZTp3aW5kb3cteT0iLTgiIGlua3NjYXBlOndpbmRvdy1tYXhpbWl6ZWQ9IjEiIHVuaXRzPSJpbiIgaGVpZ2h0PSI5aW4iLz4KICAKICA8ZyBpbmtzY2FwZTpsYWJlbD0iRWJlbmUgMSIgaW5rc2NhcGU6Z3JvdXBtb2RlPSJsYXllciIgaWQ9ImxheWVyMSIgdHJhbnNmb3JtPSJ0cmFuc2xhdGUoMCwtODcpIj4KICAgIDxnIHRyYW5zZm9ybT0ibWF0cml4KDEuNTYwODE3OCwwLDAsMS41NjA4MTc4LC00Mi4yOTI2NDUsLTEwNi4zODQ3NikiIGlkPSJnMTU0NCI+CiAgICAgIDxwYXRoIHNvZGlwb2RpOm5vZGV0eXBlcz0iY3NjY2NjY2NjIiBpbmtzY2FwZTpjb25uZWN0b3ItY3VydmF0dXJlPSIwIiBpZD0icGF0aDk1OSIgZD0ibSA0NS4yMDY4MDUsMjE0LjY1OTkgYyAtMC43NTg5ODQsLTAuMTM3MDQgLTIuMjAxNTgsMC44NTUxIC0yLjQ0NjkxOSwxLjIyOTQ2IC00Ljk0MTA0NSw3LjUzOTU4IC03Ljk3NzkzNiwxNy4wODY2NiAtMTEuMDA5ODg2LDI2Ljk2NTU1IDAuMjI0MzIxLDIuNzgxMTkgMC45ODU0OTEsNS4xODY1OCA0LjczMjI4OSw1LjUwMjAzIDM5LjM2NTE2MSwtMS41NDk5NSA3Ny4xNjA5OTEsMC4wMzg4IDExNS41NjY0MDEsMC40MDgzMiAyLjU5MDAyLC0wLjQyMTU0IDUuNDAyMDMsLTMuNDMzIDQuOTQ0NDgsLTYuMDcyOTcgbCAtMTAuMDE0ODUsLTI1LjM1NzgzIGMgLTAuNTMxNzksLTAuNzU3NDggLTAuOTg2NTUsLTEuOTU0NzYgLTIuNTE5MTQsLTIuMjA5MDMgLTMzLjUzNzk4LC0wLjA4NDIgLTM4LjczODU1LC0xLjAzMTU2IC05OS4yNTIzNzUsLTAuNDY1NTMgeiIgc3R5bGU9ImZpbGw6I2QzZDZkNztmaWxsLW9wYWNpdHk6MTtzdHJva2U6IzAwMDAwMDtzdHJva2Utd2lkdGg6MS40NjUwMDAwMztzdHJva2UtbGluZWNhcDpidXR0O3N0cm9rZS1saW5lam9pbjptaXRlcjtzdHJva2UtbWl0ZXJsaW1pdDo0O3N0cm9rZS1kYXNoYXJyYXk6bm9uZTtzdHJva2Utb3BhY2l0eToxIi8+CiAgICAgIDxwYXRoIGlua3NjYXBlOmNvbm5lY3Rvci1jdXJ2YXR1cmU9IjAiIGlkPSJyZWN0OTYzIiB0cmFuc2Zvcm09InNjYWxlKDAuMjY0NTgzMzMpIiBkPSJtIDE4MC44MTY0MSw1MTcuOTQzMzYgYyAtMTEuNzUyMTMsMCAtMjEuMjEyODksOS40NjA3NyAtMjEuMjEyODksMjEuMjEyODkgdiAyNDcuOTkyMTkgYyAwLDExLjc1MjEyIDkuNDYwNzYsMjEuMjEyODkgMjEuMjEyODksMjEuMjEyODkgaCAzNTYuNTgzOTggYyAxMS43NTIxMiwwIDIxLjIxNDg0LC05LjQ2MDc3IDIxLjIxNDg0LC0yMS4yMTI4OSBWIDUzOS4xNTYyNSBjIDAsLTExLjc1MjEyIC05LjQ2MjcyLC0yMS4yMTI4OSAtMjEuMjE0ODQsLTIxLjIxMjg5IHogbSAyOC4yODUxNSwyNy4wMjE0OCBoIDMwMC4wMTU2MyBjIDExLjc1MjEyLDAgMjEuMjEyODksOS40NjA3NyAyMS4yMTI4OSwyMS4yMTI4OSB2IDIwMi4wMzEyNSBjIDAsMTEuNzUyMTMgLTkuNDYwNzcsMjEuMjEyOSAtMjEuMjEyODksMjEuMjEyOSBIIDIwOS4xMDE1NiBjIC0xMS43NTIxMiwwIC0yMS4yMTI4OSwtOS40NjA3NyAtMjEuMjEyODksLTIxLjIxMjkgViA1NjYuMTc3NzMgYyAwLC0xMS43NTIxMiA5LjQ2MDc3LC0yMS4yMTI4OSAyMS4yMTI4OSwtMjEuMjEyODkgeiIgc3R5bGU9Im9wYWNpdHk6MTtmaWxsOiNkM2Q2ZDc7ZmlsbC1vcGFjaXR5OjE7ZmlsbC1ydWxlOm5vbnplcm87c3Ryb2tlOiMwMDAwMDA7c3Ryb2tlLXdpZHRoOjUuNTM3MDA3MzM7c3Ryb2tlLWxpbmVjYXA6YnV0dDtzdHJva2UtbGluZWpvaW46bWl0ZXI7c3Ryb2tlLW1pdGVybGltaXQ6NDtzdHJva2UtZGFzaGFycmF5Om5vbmU7c3Ryb2tlLWRhc2hvZmZzZXQ6MDtzdHJva2Utb3BhY2l0eToxO3BhaW50LW9yZGVyOm1hcmtlcnMgZmlsbCBzdHJva2UiLz4KICAgICAgPGVsbGlwc2Ugcnk9IjEuMjk5MjkzMiIgcng9IjEuMzQ2NTQwMiIgY3k9IjE0MC42ODMyMyIgY3g9Ijk0LjkxOTI3MyIgaWQ9InBhdGg5ODAiIHN0eWxlPSJvcGFjaXR5OjE7ZmlsbDojMGUwZTBlO2ZpbGwtb3BhY2l0eToxO2ZpbGwtcnVsZTpub256ZXJvO3N0cm9rZTojMDAwMDAwO3N0cm9rZS13aWR0aDoxLjQ2NDk5OTkxO3N0cm9rZS1saW5lY2FwOmJ1dHQ7c3Ryb2tlLWxpbmVqb2luOm1pdGVyO3N0cm9rZS1taXRlcmxpbWl0OjQ7c3Ryb2tlLWRhc2hhcnJheTpub25lO3N0cm9rZS1kYXNob2Zmc2V0OjA7c3Ryb2tlLW9wYWNpdHk6MTtwYWludC1vcmRlcjptYXJrZXJzIGZpbGwgc3Ryb2tlIi8+CiAgICAgIDxwYXRoIGlua3NjYXBlOmNvbm5lY3Rvci1jdXJ2YXR1cmU9IjAiIGlkPSJwYXRoOTgyIiBkPSJtIDgyLjAxODMzNSwyMzQuMjkxODggaCAyNC42ODkwMjUgbCAxLjMwMjk0LDcuODE3NjQgSCA4MC40ODE1MzcgWiIgc3R5bGU9ImZpbGw6IzkzOTU5OTtmaWxsLW9wYWNpdHk6MTtzdHJva2U6IzAwMDAwMDtzdHJva2Utd2lkdGg6MC41NjU7c3Ryb2tlLWxpbmVjYXA6YnV0dDtzdHJva2UtbGluZWpvaW46bWl0ZXI7c3Ryb2tlLW1pdGVybGltaXQ6NDtzdHJva2UtZGFzaGFycmF5Om5vbmU7c3Ryb2tlLW9wYWNpdHk6MSIvPgogICAgICA8cGF0aCBpbmtzY2FwZTpjb25uZWN0b3ItY3VydmF0dXJlPSIwIiBpZD0icGF0aDk4NCIgZD0ibSAzNy42MTgxODUsMjQzLjI0NTQxIGggNDAuMDU3MDIiIHN0eWxlPSJmaWxsOiM5Mzk1OTk7ZmlsbC1vcGFjaXR5OjE7c3Ryb2tlOiMwMDAwMDA7c3Ryb2tlLXdpZHRoOjEuNjY0OTk5OTY7c3Ryb2tlLWxpbmVjYXA6cm91bmQ7c3Ryb2tlLWxpbmVqb2luOm1pdGVyO3N0cm9rZS1taXRlcmxpbWl0OjQ7c3Ryb2tlLWRhc2hhcnJheTpub25lO3N0cm9rZS1vcGFjaXR5OjEiLz4KICAgICAgPHBhdGggaW5rc2NhcGU6Y29ubmVjdG9yLWN1cnZhdHVyZT0iMCIgaWQ9InBhdGg5ODQtNSIgZD0ibSAxMTAuNzkyMjksMjQyLjgxNzI1IGggNDAuMDU3MDMiIHN0eWxlPSJmaWxsOiM5Mzk1OTk7ZmlsbC1vcGFjaXR5OjE7c3Ryb2tlOiMwMDAwMDA7c3Ryb2tlLXdpZHRoOjEuNjY0OTk5OTY7c3Ryb2tlLWxpbmVjYXA6cm91bmQ7c3Ryb2tlLWxpbmVqb2luOm1pdGVyO3N0cm9rZS1taXRlcmxpbWl0OjQ7c3Ryb2tlLWRhc2hhcnJheTpub25lO3N0cm9rZS1vcGFjaXR5OjEiLz4KICAgICAgPHBhdGggaW5rc2NhcGU6Y29ubmVjdG9yLWN1cnZhdHVyZT0iMCIgaWQ9InBhdGgxMDAxIiBkPSJtIDQ4LjUzNDUwNSwyMzEuNjIxOTMgLTAuMzMwNzMsMS4wNjMwNiA2LjI2MDIzLDAuMDIzNiAwLjI5MzQ2LC0xLjA5NTE5IHoiIHN0eWxlPSJmaWxsOiM5Mzk1OTk7ZmlsbC1vcGFjaXR5OjE7c3Ryb2tlOiMwMDAwMDA7c3Ryb2tlLXdpZHRoOjAuNDY1O3N0cm9rZS1saW5lY2FwOmJ1dHQ7c3Ryb2tlLWxpbmVqb2luOnJvdW5kO3N0cm9rZS1taXRlcmxpbWl0OjQ7c3Ryb2tlLWRhc2hhcnJheTpub25lO3N0cm9rZS1vcGFjaXR5OjEiLz4KICAgICAgPHBhdGggaW5rc2NhcGU6Y29ubmVjdG9yLWN1cnZhdHVyZT0iMCIgaWQ9InBhdGgxMDAzIiBkPSJtIDU2LjMwNjY0LDIzMi42NjEzNiAwLjUzNzIzOSwtMi4wMDUgaCA1LjEwODc4MSBsIC0wLjU1MDYxOSwyLjA1NDkzIHoiIHN0eWxlPSJmaWxsOiM5Mzk1OTk7ZmlsbC1vcGFjaXR5OjE7c3Ryb2tlOiMwMDAwMDA7c3Ryb2tlLXdpZHRoOjAuNTY1O3N0cm9rZS1saW5lY2FwOmJ1dHQ7c3Ryb2tlLWxpbmVqb2luOnJvdW5kO3N0cm9rZS1taXRlcmxpbWl0OjQ7c3Ryb2tlLWRhc2hhcnJheTpub25lO3N0cm9rZS1vcGFjaXR5OjEiLz4KICAgICAgPHBhdGggaW5rc2NhcGU6Y29ubmVjdG9yLWN1cnZhdHVyZT0iMCIgaWQ9InBhdGgxMDI0IiBkPSJtIDYzLjAzOTM0MSwyMzIuNzI5MjggMC4zMDQyNTIsLTEuMTM1NDkgaCA2LjE5MjIxMyBsIC0wLjMwNjg0MiwxLjE0NTE1IHoiIHN0eWxlPSJmaWxsOiM5Mzk1OTk7ZmlsbC1vcGFjaXR5OjE7c3Ryb2tlOiMwMDAwMDA7c3Ryb2tlLXdpZHRoOjAuNDY1O3N0cm9rZS1saW5lY2FwOmJ1dHQ7c3Ryb2tlLWxpbmVqb2luOnJvdW5kO3N0cm9rZS1taXRlcmxpbWl0OjQ7c3Ryb2tlLWRhc2hhcnJheTpub25lO3N0cm9rZS1vcGFjaXR5OjEiLz4KICAgICAgPHBhdGggaW5rc2NhcGU6Y29ubmVjdG9yLWN1cnZhdHVyZT0iMCIgaWQ9InBhdGgxMDI2IiBkPSJtIDcwLjgxMTQ3NiwyMzIuNjQ5NTUgMC40MzcwMzQsLTIuMTI2MTIgaCA1LjA5NDUyNSBsIC0wLjM1MDc5MiwyLjE2OTAxIHoiIHN0eWxlPSJmaWxsOiM5Mzk1OTk7ZmlsbC1vcGFjaXR5OjE7c3Ryb2tlOiMwMDAwMDA7c3Ryb2tlLXdpZHRoOjAuNDY1O3N0cm9rZS1saW5lY2FwOmJ1dHQ7c3Ryb2tlLWxpbmVqb2luOnJvdW5kO3N0cm9rZS1taXRlcmxpbWl0OjQ7c3Ryb2tlLWRhc2hhcnJheTpub25lO3N0cm9rZS1vcGFjaXR5OjEiLz4KICAgICAgPHBhdGggaW5rc2NhcGU6Y29ubmVjdG9yLWN1cnZhdHVyZT0iMCIgaWQ9InBhdGgxMDI2LTIiIGQ9Im0gNzEuMjIzMDU5LDIyOS42NzUxNyAwLjQzNzAzNCwtMi4xMjYxMiBoIDUuMDk0NTI1IGwgLTAuMzUwNzkyLDIuMTY5MDEgeiIgc3R5bGU9ImZpbGw6IzkzOTU5OTtmaWxsLW9wYWNpdHk6MTtzdHJva2U6IzAwMDAwMDtzdHJva2Utd2lkdGg6MC40NjU7c3Ryb2tlLWxpbmVjYXA6YnV0dDtzdHJva2UtbGluZWpvaW46cm91bmQ7c3Ryb2tlLW1pdGVybGltaXQ6NDtzdHJva2UtZGFzaGFycmF5Om5vbmU7c3Ryb2tlLW9wYWNpdHk6MSIvPgogICAgICA8cGF0aCBpbmtzY2FwZTpjb25uZWN0b3ItY3VydmF0dXJlPSIwIiBpZD0icGF0aDEwMjYtMi02IiBkPSJtIDcxLjcxOTE1MywyMjYuODYzOTcgMC40MzcwMzQsLTIuMTI2MTIgaCA1LjA5NDUyNSBsIC0wLjM1MDc5MiwyLjE2OTAxIHoiIHN0eWxlPSJmaWxsOiM5Mzk1OTk7ZmlsbC1vcGFjaXR5OjE7c3Ryb2tlOiMwMDAwMDA7c3Ryb2tlLXdpZHRoOjAuNDY1O3N0cm9rZS1saW5lY2FwOmJ1dHQ7c3Ryb2tlLWxpbmVqb2luOnJvdW5kO3N0cm9rZS1taXRlcmxpbWl0OjQ7c3Ryb2tlLWRhc2hhcnJheTpub25lO3N0cm9rZS1vcGFjaXR5OjEiLz4KICAgICAgPHBhdGggaW5rc2NhcGU6Y29ubmVjdG9yLWN1cnZhdHVyZT0iMCIgaWQ9InBhdGgxMDczIiBkPSJtIDczLjE0NDI5NywyMjQuMDAzMzUgaCA0Ljg0MjgyMiBsIDAuMjgzNDgsLTEuNzg5NDkgLTQuNzg5NjY1LC0wLjAwNiB6IiBzdHlsZT0iZmlsbDojOTM5NTk5O2ZpbGwtb3BhY2l0eToxO3N0cm9rZTojMDAwMDAwO3N0cm9rZS13aWR0aDowLjQ2NTtzdHJva2UtbGluZWNhcDpidXR0O3N0cm9rZS1saW5lam9pbjpyb3VuZDtzdHJva2UtbWl0ZXJsaW1pdDo0O3N0cm9rZS1kYXNoYXJyYXk6bm9uZTtzdHJva2Utb3BhY2l0eToxIi8+CiAgICAgIDxwYXRoIGlua3NjYXBlOmNvbm5lY3Rvci1jdXJ2YXR1cmU9IjAiIGlkPSJwYXRoMTA3NSIgZD0ibSA3My45NTM0MDMsMjIwLjE0NjgxIC0wLjE4ODk4OSwxLjAxNTgxIGMgMCwwIDUuMTk3MTc0LDAuMDQxMyA1LjIxNDg5MywwLjAxNzcgMC4wMTc3MywtMC4wMjM2IDAuMjQyMTM4LC0wLjk4MDM4IDAuMTk0ODkyLC0wLjk4MDM4IC0wLjA0NzI1LDAgLTUuMjIwNzk2LC0wLjA1MzIgLTUuMjIwNzk2LC0wLjA1MzIgeiIgc3R5bGU9ImZpbGw6IzkzOTU5OTtmaWxsLW9wYWNpdHk6MTtzdHJva2U6IzAwMDAwMDtzdHJva2Utd2lkdGg6MC41NjU7c3Ryb2tlLWxpbmVjYXA6YnV0dDtzdHJva2UtbGluZWpvaW46cm91bmQ7c3Ryb2tlLW1pdGVybGltaXQ6NDtzdHJva2UtZGFzaGFycmF5Om5vbmU7c3Ryb2tlLW9wYWNpdHk6MSIvPgogICAgICA8cGF0aCBpbmtzY2FwZTpjb25uZWN0b3ItY3VydmF0dXJlPSIwIiBpZD0icGF0aDEwNzciIGQ9Im0gNDkuMjM2MDU4LDIyOS43MDY1NCAwLjczNDk5MSwtMS45Nzk0NiAxMi4xMDIyOTgsLTAuMDI1MSAtMC40NDI2NjYsMi4wMTI4NyB6IiBzdHlsZT0iZmlsbDojOTM5NTk5O2ZpbGwtb3BhY2l0eToxO3N0cm9rZTojMDAwMDAwO3N0cm9rZS13aWR0aDowLjQ2NTtzdHJva2UtbGluZWNhcDpidXR0O3N0cm9rZS1saW5lam9pbjpyb3VuZDtzdHJva2UtbWl0ZXJsaW1pdDo0O3N0cm9rZS1kYXNoYXJyYXk6bm9uZTtzdHJva2Utb3BhY2l0eToxIi8+CiAgICAgIDxwYXRoIGlua3NjYXBlOmNvbm5lY3Rvci1jdXJ2YXR1cmU9IjAiIGlkPSJwYXRoMTA3OSIgZD0ibSA1MC4yODg1NDksMjI2LjcwMjMzIDAuNzA4NzA4LC0xLjg0MjYzIGggNC44MTMyODkgbCAtMC42NDM3NDIsMS45NDMwMyBoIC00LjkwNzc4MiB6IiBzdHlsZT0iZmlsbDojOTM5NTk5O2ZpbGwtb3BhY2l0eToxO3N0cm9rZTojMDAwMDAwO3N0cm9rZS13aWR0aDowLjQ2NTtzdHJva2UtbGluZWNhcDpidXR0O3N0cm9rZS1saW5lam9pbjpyb3VuZDtzdHJva2UtbWl0ZXJsaW1pdDo0O3N0cm9rZS1kYXNoYXJyYXk6bm9uZTtzdHJva2Utb3BhY2l0eToxIi8+CiAgICAgIDxwYXRoIGlua3NjYXBlOmNvbm5lY3Rvci1jdXJ2YXR1cmU9IjAiIGlkPSJwYXRoMTA4MSIgZD0ibSA1MS4yNDg5MzEsMjIzLjk5NzgzIDAuNjU1NjQ2LC0xLjc0MTQzIDcuMTUzNjM3LDAuMDY2OCAtMC41MzQ1NCwxLjc3OTAxIGggLTcuMzEwODUzIHoiIHN0eWxlPSJmaWxsOiM5Mzk1OTk7ZmlsbC1vcGFjaXR5OjE7c3Ryb2tlOiMwMDAwMDA7c3Ryb2tlLXdpZHRoOjAuNDY1O3N0cm9rZS1saW5lY2FwOmJ1dHQ7c3Ryb2tlLWxpbmVqb2luOnJvdW5kO3N0cm9rZS1taXRlcmxpbWl0OjQ7c3Ryb2tlLWRhc2hhcnJheTpub25lO3N0cm9rZS1vcGFjaXR5OjEiLz4KICAgICAgPHBhdGggaW5rc2NhcGU6Y29ubmVjdG9yLWN1cnZhdHVyZT0iMCIgaWQ9InBhdGgxMDgzIiBkPSJtIDUyLjMwOTY1NiwyMjEuMTI0NjggMC4zNjc0OTYsLTAuODk3ODUgNS4xMDMwMDUsMC4wMDMgLTAuNDIyMjcyLDEuMDA0IGggLTUuMTA1NjMgeiIgc3R5bGU9ImZpbGw6IzkzOTU5OTtmaWxsLW9wYWNpdHk6MTtzdHJva2U6IzAwMDAwMDtzdHJva2Utd2lkdGg6MC40NjU7c3Ryb2tlLWxpbmVjYXA6YnV0dDtzdHJva2UtbGluZWpvaW46cm91bmQ7c3Ryb2tlLW1pdGVybGltaXQ6NDtzdHJva2UtZGFzaGFycmF5Om5vbmU7c3Ryb2tlLW9wYWNpdHk6MSIvPgogICAgICA8cGF0aCBpbmtzY2FwZTpjb25uZWN0b3ItY3VydmF0dXJlPSIwIiBpZD0icGF0aDEwODUiIGQ9Im0gNTkuNTQyNjQsMjIxLjE3ODk3IDAuMjQyMjEyLC0xLjAzMTQ5IDUuMTE1NzA2LC0wLjAwNCAtMC4yNzE0NDcsMS4xMDQ1NyBoIC01LjEwNTI2NSB6IiBzdHlsZT0iZmlsbDojOTM5NTk5O2ZpbGwtb3BhY2l0eToxO3N0cm9rZTojMDAwMDAwO3N0cm9rZS13aWR0aDowLjQ2NTtzdHJva2UtbGluZWNhcDpidXR0O3N0cm9rZS1saW5lam9pbjpyb3VuZDtzdHJva2UtbWl0ZXJsaW1pdDo0O3N0cm9rZS1kYXNoYXJyYXk6bm9uZTtzdHJva2Utb3BhY2l0eToxIi8+CiAgICAgIDxwYXRoIGlua3NjYXBlOmNvbm5lY3Rvci1jdXJ2YXR1cmU9IjAiIGlkPSJwYXRoMTA4NyIgZD0ibSA2Ni42NjA3NzgsMjIxLjE2MjI3IDAuMjIzNDIyLC0wLjk5ODA5IGggNS4wOTA3MzQgbCAtMC4yNjk1NDQsMS4wMDU5NiB6IiBzdHlsZT0iZmlsbDojOTM5NTk5O2ZpbGwtb3BhY2l0eToxO3N0cm9rZTojMDAwMDAwO3N0cm9rZS13aWR0aDowLjU2NTtzdHJva2UtbGluZWNhcDpidXR0O3N0cm9rZS1saW5lam9pbjpyb3VuZDtzdHJva2UtbWl0ZXJsaW1pdDo0O3N0cm9rZS1kYXNoYXJyYXk6bm9uZTtzdHJva2Utb3BhY2l0eToxIi8+CiAgICAgIDxwYXRoIGlua3NjYXBlOmNvbm5lY3Rvci1jdXJ2YXR1cmU9IjAiIGlkPSJwYXRoMTA4OSIgZD0ibSA1Ny41MTczNDQsMjI2Ljc2NzMgMC41NDkyNDksLTEuODY2MjYgNC44OTAwNjYsLTAuMDE3NyBjIDAsMCAtMC41Mzc0MzUsMS44ODM5OCAtMC41NjEwNiwxLjg4Mzk4IC0wLjAyMzYzLDAgLTQuODc4MjU1LDAgLTQuODc4MjU1LDAgeiIgc3R5bGU9ImZpbGw6IzkzOTU5OTtmaWxsLW9wYWNpdHk6MTtzdHJva2U6IzAwMDAwMDtzdHJva2Utd2lkdGg6MC41NjU7c3Ryb2tlLWxpbmVjYXA6YnV0dDtzdHJva2UtbGluZWpvaW46cm91bmQ7c3Ryb2tlLW1pdGVybGltaXQ6NDtzdHJva2UtZGFzaGFycmF5Om5vbmU7c3Ryb2tlLW9wYWNpdHk6MSIvPgogICAgICA8cGF0aCBpbmtzY2FwZTpjb25uZWN0b3ItY3VydmF0dXJlPSIwIiBpZD0icGF0aDEwOTEiIGQ9Im0gNTkuOTc2OTUzLDIyMy45ODk0OCAwLjUyNjE4NSwtMS43NDU2MSA0LjcxODk3OSwtMC4wMjA5IC0wLjQ1OTM3LDEuODIwNzcgSCA1OS45NTgxNiBjIDAsMCAwLjAxODc5LC0wLjA1MDEgMC4wMTg3OSwtMC4wNTQzIHoiIHN0eWxlPSJmaWxsOiM5Mzk1OTk7ZmlsbC1vcGFjaXR5OjE7c3Ryb2tlOiMwMDAwMDA7c3Ryb2tlLXdpZHRoOjAuNTY1O3N0cm9rZS1saW5lY2FwOmJ1dHQ7c3Ryb2tlLWxpbmVqb2luOnJvdW5kO3N0cm9rZS1taXRlcmxpbWl0OjQ7c3Ryb2tlLWRhc2hhcnJheTpub25lO3N0cm9rZS1vcGFjaXR5OjEiLz4KICAgICAgPHBhdGggaW5rc2NhcGU6Y29ubmVjdG9yLWN1cnZhdHVyZT0iMCIgaWQ9InBhdGgxMDkzIiBkPSJtIDYzLjk3ODM3NiwyMjkuNjQ5MzYgMC41MzgyOSwtMi4wMDg5MiBoIDQuODk4MjQyIGwgLTAuNDQyNjY3LDEuOTk5MjggeiIgc3R5bGU9ImZpbGw6IzkzOTU5OTtmaWxsLW9wYWNpdHk6MTtzdHJva2U6IzAwMDAwMDtzdHJva2Utd2lkdGg6MC40NjU7c3Ryb2tlLWxpbmVjYXA6YnV0dDtzdHJva2UtbGluZWpvaW46cm91bmQ7c3Ryb2tlLW1pdGVybGltaXQ6NDtzdHJva2UtZGFzaGFycmF5Om5vbmU7c3Ryb2tlLW9wYWNpdHk6MSIvPgogICAgICA8cGF0aCBpbmtzY2FwZTpjb25uZWN0b3ItY3VydmF0dXJlPSIwIiBpZD0icGF0aDEwOTMtOSIgZD0ibSA2NC41NTAxMzMsMjI2Ljc5Mzg0IDAuNTM4MjksLTIuMDA4OTIgaCA0Ljg5ODI0MiBsIC0wLjQ0MjY2NywxLjk5OTI4IHoiIHN0eWxlPSJmaWxsOiM5Mzk1OTk7ZmlsbC1vcGFjaXR5OjE7c3Ryb2tlOiMwMDAwMDA7c3Ryb2tlLXdpZHRoOjAuNDY1O3N0cm9rZS1saW5lY2FwOmJ1dHQ7c3Ryb2tlLWxpbmVqb2luOnJvdW5kO3N0cm9rZS1taXRlcmxpbWl0OjQ7c3Ryb2tlLWRhc2hhcnJheTpub25lO3N0cm9rZS1vcGFjaXR5OjEiLz4KICAgICAgPHBhdGggaW5rc2NhcGU6Y29ubmVjdG9yLWN1cnZhdHVyZT0iMCIgaWQ9InBhdGgxMTEwIiBkPSJtIDY2LjU3MzA3OSwyMjMuODc0NjQgMC40MzMzMDgsLTEuNjE3MTMgaCA0LjcyMjA3MiBsIC0wLjM1NzA1NSwxLjc5MjUyIGggLTQuODYwOTY1IHoiIHN0eWxlPSJmaWxsOiM5Mzk1OTk7ZmlsbC1vcGFjaXR5OjE7c3Ryb2tlOiMwMDAwMDA7c3Ryb2tlLXdpZHRoOjAuNDY1O3N0cm9rZS1saW5lY2FwOmJ1dHQ7c3Ryb2tlLWxpbmVqb2luOnJvdW5kO3N0cm9rZS1taXRlcmxpbWl0OjQ7c3Ryb2tlLWRhc2hhcnJheTpub25lO3N0cm9rZS1vcGFjaXR5OjEiLz4KICAgICAgPHBhdGggaW5rc2NhcGU6Y29ubmVjdG9yLWN1cnZhdHVyZT0iMCIgaWQ9InBhdGgxMTEyIiBkPSJtIDc4LjQyNjkwMiwyMzIuNjEzMSAwLjI0MjIxMiwtMi4wMjEyMyA1LjA4NjQ3MiwtMC4wMTY3IC0wLjIyNTUwNywyLjEzODE1IEggNzguNDA0OTYgWiIgc3R5bGU9ImZpbGw6IzkzOTU5OTtmaWxsLW9wYWNpdHk6MTtzdHJva2U6IzAwMDAwMDtzdHJva2Utd2lkdGg6MC40NjU7c3Ryb2tlLWxpbmVjYXA6YnV0dDtzdHJva2UtbGluZWpvaW46cm91bmQ7c3Ryb2tlLW1pdGVybGltaXQ6NDtzdHJva2UtZGFzaGFycmF5Om5vbmU7c3Ryb2tlLW9wYWNpdHk6MSIvPgogICAgICA8cGF0aCBpbmtzY2FwZTpjb25uZWN0b3ItY3VydmF0dXJlPSIwIiBpZD0icGF0aDExMTItMSIgZD0ibSA3OC43NjM2MDgsMjI5LjU2NDU2IDAuMjQyMjEyLC0yLjAyMTIzIDUuMDg2NDcyLC0wLjAxNjcgLTAuMjI1NTA3LDIuMTM4MTUgaCAtNS4xMjUxMTkgeiIgc3R5bGU9ImZpbGw6IzkzOTU5OTtmaWxsLW9wYWNpdHk6MTtzdHJva2U6IzAwMDAwMDtzdHJva2Utd2lkdGg6MC40NjU7c3Ryb2tlLWxpbmVjYXA6YnV0dDtzdHJva2UtbGluZWpvaW46cm91bmQ7c3Ryb2tlLW1pdGVybGltaXQ6NDtzdHJva2UtZGFzaGFycmF5Om5vbmU7c3Ryb2tlLW9wYWNpdHk6MSIvPgogICAgICA8cGF0aCBpbmtzY2FwZTpjb25uZWN0b3ItY3VydmF0dXJlPSIwIiBpZD0icGF0aDExMTItMS02IiBkPSJtIDc5LjA0NzU4LDIyNi42NDg0MyAwLjI0MjIxMiwtMS44Nzc0MiA1LjA4NjQ3MywtMC4wMTU1IC0wLjIyNTUwNywxLjk4NjAzIGggLTUuMTI1MTIgeiIgc3R5bGU9ImZpbGw6IzkzOTU5OTtmaWxsLW9wYWNpdHk6MTtzdHJva2U6IzAwMDAwMDtzdHJva2Utd2lkdGg6MC40NDgxNTMwMjtzdHJva2UtbGluZWNhcDpidXR0O3N0cm9rZS1saW5lam9pbjpyb3VuZDtzdHJva2UtbWl0ZXJsaW1pdDo0O3N0cm9rZS1kYXNoYXJyYXk6bm9uZTtzdHJva2Utb3BhY2l0eToxIi8+CiAgICAgIDxwYXRoIGlua3NjYXBlOmNvbm5lY3Rvci1jdXJ2YXR1cmU9IjAiIGlkPSJwYXRoMTExMi0xLTYtOCIgZD0ibSA3OS43MjAzMzEsMjIzLjg1NTcyIDAuMjI5MTI0LC0xLjc3NTk3IDQuODExNjEsLTAuMDE0NyAtMC4yMTMzMjEsMS44Nzg3MSBoIC00Ljg0ODE2OSB6IiBzdHlsZT0iZmlsbDojOTM5NTk5O2ZpbGwtb3BhY2l0eToxO3N0cm9rZTojMDAwMDAwO3N0cm9rZS13aWR0aDowLjQyMzkzNTgzO3N0cm9rZS1saW5lY2FwOmJ1dHQ7c3Ryb2tlLWxpbmVqb2luOnJvdW5kO3N0cm9rZS1taXRlcmxpbWl0OjQ7c3Ryb2tlLWRhc2hhcnJheTpub25lO3N0cm9rZS1vcGFjaXR5OjEiLz4KICAgICAgPHBhdGggaW5rc2NhcGU6Y29ubmVjdG9yLWN1cnZhdHVyZT0iMCIgaWQ9InBhdGgxMTU5IiBkPSJtIDg2LjIwODA5OSwyMjkuNTk2MjEgdiAtMS45Nzg0NyBoIDUuMDQ5NTI4IHYgMi4wNjM3NCBoIC01LjA1NDg1NCB6IiBzdHlsZT0iZmlsbDojOTM5NTk5O2ZpbGwtb3BhY2l0eToxO3N0cm9rZTojMDAwMDAwO3N0cm9rZS13aWR0aDowLjQ2NTtzdHJva2UtbGluZWNhcDpidXR0O3N0cm9rZS1saW5lam9pbjpyb3VuZDtzdHJva2UtbWl0ZXJsaW1pdDo0O3N0cm9rZS1kYXNoYXJyYXk6bm9uZTtzdHJva2Utb3BhY2l0eToxIi8+CiAgICAgIDxwYXRoIGlua3NjYXBlOmNvbm5lY3Rvci1jdXJ2YXR1cmU9IjAiIGlkPSJwYXRoMTE1OS04IiBkPSJtIDg2LjMyNTkyNywyMjYuNjMyOTEgdiAtMS44NDYzOCBoIDUuMDQ5NTI4IHYgMS45MjU5NiBoIC01LjA1NDg1NCB6IiBzdHlsZT0iZmlsbDojOTM5NTk5O2ZpbGwtb3BhY2l0eToxO3N0cm9rZTojMDAwMDAwO3N0cm9rZS13aWR0aDowLjQ0OTIwOTk5O3N0cm9rZS1saW5lY2FwOmJ1dHQ7c3Ryb2tlLWxpbmVqb2luOnJvdW5kO3N0cm9rZS1taXRlcmxpbWl0OjQ7c3Ryb2tlLWRhc2hhcnJheTpub25lO3N0cm9rZS1vcGFjaXR5OjEiLz4KICAgICAgPHBhdGggaW5rc2NhcGU6Y29ubmVjdG9yLWN1cnZhdHVyZT0iMCIgaWQ9InBhdGgxMTU5LTgtOCIgZD0ibSA4Ni4zNzQ2MTQsMjIzLjkxNTcgdiAtMS44MDA5MyBoIDQuOTI1MjMzIHYgMS44Nzg1NSBoIC00LjkzMDQyOCB6IiBzdHlsZT0iZmlsbDojOTM5NTk5O2ZpbGwtb3BhY2l0eToxO3N0cm9rZTojMDAwMDAwO3N0cm9rZS13aWR0aDowLjQzODE1MjY0O3N0cm9rZS1saW5lY2FwOmJ1dHQ7c3Ryb2tlLWxpbmVqb2luOnJvdW5kO3N0cm9rZS1taXRlcmxpbWl0OjQ7c3Ryb2tlLWRhc2hhcnJheTpub25lO3N0cm9rZS1vcGFjaXR5OjEiLz4KICAgICAgPHBhdGggaW5rc2NhcGU6Y29ubmVjdG9yLWN1cnZhdHVyZT0iMCIgaWQ9InBhdGgxMTkxIiBkPSJtIDkzLjU2NjgyMywyMjkuNTkwMzEgdiAtMS45MjUzMiBoIDQuOTg0NjM5IHYgMS45ODMwOSBoIC00Ljk5MDU0NSB6IiBzdHlsZT0iZmlsbDojOTM5NTk5O2ZpbGwtb3BhY2l0eToxO3N0cm9rZTojMDAwMDAwO3N0cm9rZS13aWR0aDowLjU2NTtzdHJva2UtbGluZWNhcDpidXR0O3N0cm9rZS1saW5lam9pbjpyb3VuZDtzdHJva2UtbWl0ZXJsaW1pdDo0O3N0cm9rZS1kYXNoYXJyYXk6bm9uZTtzdHJva2Utb3BhY2l0eToxIi8+CiAgICAgIDxwYXRoIGlua3NjYXBlOmNvbm5lY3Rvci1jdXJ2YXR1cmU9IjAiIGlkPSJwYXRoMTE5MS04IiBkPSJtIDkzLjU2MzgzMSwyMjYuNjk3MDcgdiAtMS45MjUzMiBoIDQuOTg0NjQgdiAxLjk4MzA5IGggLTQuOTkwNTQ2IHoiIHN0eWxlPSJmaWxsOiM5Mzk1OTk7ZmlsbC1vcGFjaXR5OjE7c3Ryb2tlOiMwMDAwMDA7c3Ryb2tlLXdpZHRoOjAuNTY1MDAwMDY7c3Ryb2tlLWxpbmVjYXA6YnV0dDtzdHJva2UtbGluZWpvaW46cm91bmQ7c3Ryb2tlLW1pdGVybGltaXQ6NDtzdHJva2UtZGFzaGFycmF5Om5vbmU7c3Ryb2tlLW9wYWNpdHk6MSIvPgogICAgICA8cGF0aCBpbmtzY2FwZTpjb25uZWN0b3ItY3VydmF0dXJlPSIwIiBpZD0icGF0aDEyMjMiIGQ9Im0gMTAwLjg0NDg5LDIyNy41OTc1OCBoIDQuOTAxODggbCAwLjIxODUyLDEuOTk2MTkgaCAtNS4xMjYzMSB6IiBzdHlsZT0iZmlsbDojOTM5NTk5O2ZpbGwtb3BhY2l0eToxO3N0cm9rZTojMDAwMDAwO3N0cm9rZS13aWR0aDowLjU2NTtzdHJva2UtbGluZWNhcDpidXR0O3N0cm9rZS1saW5lam9pbjpyb3VuZDtzdHJva2UtbWl0ZXJsaW1pdDo0O3N0cm9rZS1kYXNoYXJyYXk6bm9uZTtzdHJva2Utb3BhY2l0eToxIi8+CiAgICAgIDxwYXRoIGlua3NjYXBlOmNvbm5lY3Rvci1jdXJ2YXR1cmU9IjAiIGlkPSJwYXRoMTIyNSIgZD0ibSAxMDAuNzY2MDksMjI2LjcwODI0IHYgLTEuODY2MjYgbCA0LjczNjUxLC0wLjAyOTUgMC4xOTQ5LDEuOTM3MTMgeiIgc3R5bGU9ImZpbGw6IzkzOTU5OTtmaWxsLW9wYWNpdHk6MTtzdHJva2U6IzAwMDAwMDtzdHJva2Utd2lkdGg6MC40NjU7c3Ryb2tlLWxpbmVjYXA6YnV0dDtzdHJva2UtbGluZWpvaW46cm91bmQ7c3Ryb2tlLW1pdGVybGltaXQ6NDtzdHJva2UtZGFzaGFycmF5Om5vbmU7c3Ryb2tlLW9wYWNpdHk6MSIvPgogICAgICA8cGF0aCBpbmtzY2FwZTpjb25uZWN0b3ItY3VydmF0dXJlPSIwIiBpZD0icGF0aDEyMjciIGQ9Im0gMTA3Ljk4MzA3LDIyNi43MDIzMyAtMC4yMDY3LC0xLjg2MDM1IGMgMCwwIDQuNzk1NTcsLTAuMDc2OCA0Ljg1NDYzLC0wLjA1OTEgMC4wNTkxLDAuMDE3NyAwLjI5NTI5LDEuOTE5NDEgMC4yOTUyOSwxLjkxOTQxIHoiIHN0eWxlPSJmaWxsOiM5Mzk1OTk7ZmlsbC1vcGFjaXR5OjE7c3Ryb2tlOiMwMDAwMDA7c3Ryb2tlLXdpZHRoOjAuNDY1O3N0cm9rZS1saW5lY2FwOmJ1dHQ7c3Ryb2tlLWxpbmVqb2luOnJvdW5kO3N0cm9rZS1taXRlcmxpbWl0OjQ7c3Ryb2tlLWRhc2hhcnJheTpub25lO3N0cm9rZS1vcGFjaXR5OjEiLz4KICAgICAgPHBhdGggaW5rc2NhcGU6Y29ubmVjdG9yLWN1cnZhdHVyZT0iMCIgaWQ9InBhdGgxMjI3LTciIGQ9Im0gMTA4LjM4MTU1LDIyOS41MDY2NSAtMC4yMDY3LC0xLjg2MDM1IGMgMCwwIDQuNzk1NTcsLTAuMDc2OCA0Ljg1NDYzLC0wLjA1OTEgMC4wNTkxLDAuMDE3NyAwLjI5NTI5LDEuOTE5NDEgMC4yOTUyOSwxLjkxOTQxIHoiIHN0eWxlPSJmaWxsOiM5Mzk1OTk7ZmlsbC1vcGFjaXR5OjE7c3Ryb2tlOiMwMDAwMDA7c3Ryb2tlLXdpZHRoOjAuNDY1O3N0cm9rZS1saW5lY2FwOmJ1dHQ7c3Ryb2tlLWxpbmVqb2luOnJvdW5kO3N0cm9rZS1taXRlcmxpbWl0OjQ7c3Ryb2tlLWRhc2hhcnJheTpub25lO3N0cm9rZS1vcGFjaXR5OjEiLz4KICAgICAgPHBhdGggaW5rc2NhcGU6Y29ubmVjdG9yLWN1cnZhdHVyZT0iMCIgaWQ9InBhdGgxMjI3LTctNiIgZD0ibSAxMDYuMTI2NDcsMjIzLjk5NDIxIC0wLjIwNjcsLTEuODYwMzUgYyAwLDAgNC43OTU1NywtMC4wNzY4IDQuODU0NjMsLTAuMDU5MSAwLjA1OTEsMC4wMTc3IDAuMjk1MjksMS45MTk0MSAwLjI5NTI5LDEuOTE5NDEgeiIgc3R5bGU9ImZpbGw6IzkzOTU5OTtmaWxsLW9wYWNpdHk6MTtzdHJva2U6IzAwMDAwMDtzdHJva2Utd2lkdGg6MC40NjU7c3Ryb2tlLWxpbmVjYXA6YnV0dDtzdHJva2UtbGluZWpvaW46cm91bmQ7c3Ryb2tlLW1pdGVybGltaXQ6NDtzdHJva2UtZGFzaGFycmF5Om5vbmU7c3Ryb2tlLW9wYWNpdHk6MSIvPgogICAgICA8cGF0aCBpbmtzY2FwZTpjb25uZWN0b3ItY3VydmF0dXJlPSIwIiBpZD0icGF0aDEyMjUtMyIgZD0ibSA5OS41NDc3MzgsMjIzLjk3NzA2IHYgLTEuODY2MjYgbCA0LjczNjUxMiwtMC4wMjk1IDAuMTk0OSwxLjkzNzEzIHoiIHN0eWxlPSJmaWxsOiM5Mzk1OTk7ZmlsbC1vcGFjaXR5OjE7c3Ryb2tlOiMwMDAwMDA7c3Ryb2tlLXdpZHRoOjAuNDY1O3N0cm9rZS1saW5lY2FwOmJ1dHQ7c3Ryb2tlLWxpbmVqb2luOnJvdW5kO3N0cm9rZS1taXRlcmxpbWl0OjQ7c3Ryb2tlLWRhc2hhcnJheTpub25lO3N0cm9rZS1vcGFjaXR5OjEiLz4KICAgICAgPHBhdGggaW5rc2NhcGU6Y29ubmVjdG9yLWN1cnZhdHVyZT0iMCIgaWQ9InBhdGgxMTkxLTgtOCIgZD0ibSA5Mi44MjU2MjcsMjIzLjkzNTY4IHYgLTEuODUzMjIgaCA0Ljk4NDY0IHYgMS45MDg4MyBoIC00Ljk5MDU0NiB6IiBzdHlsZT0iZmlsbDojOTM5NTk5O2ZpbGwtb3BhY2l0eToxO3N0cm9rZTojMDAwMDAwO3N0cm9rZS13aWR0aDowLjU1NDMyMDE2O3N0cm9rZS1saW5lY2FwOmJ1dHQ7c3Ryb2tlLWxpbmVqb2luOnJvdW5kO3N0cm9rZS1taXRlcmxpbWl0OjQ7c3Ryb2tlLWRhc2hhcnJheTpub25lO3N0cm9rZS1vcGFjaXR5OjEiLz4KICAgICAgPHBhdGggaW5rc2NhcGU6Y29ubmVjdG9yLWN1cnZhdHVyZT0iMCIgaWQ9InBhdGgxMzA0IiBkPSJtIDExNi4yMzM1OCwyMzIuNTE2NjcgLTAuMzEwMDYsLTIuMDQ2MzkgNC45NDYxOCwtMC4wMjk1IDAuNDkwMTksMi4xNDk3NCB6IiBzdHlsZT0iZmlsbDojOTM5NTk5O2ZpbGwtb3BhY2l0eToxO3N0cm9rZTojMDAwMDAwO3N0cm9rZS13aWR0aDowLjQ2NTtzdHJva2UtbGluZWNhcDpidXR0O3N0cm9rZS1saW5lam9pbjpyb3VuZDtzdHJva2UtbWl0ZXJsaW1pdDo0O3N0cm9rZS1kYXNoYXJyYXk6bm9uZTtzdHJva2Utb3BhY2l0eToxIi8+CiAgICAgIDxwYXRoIGlua3NjYXBlOmNvbm5lY3Rvci1jdXJ2YXR1cmU9IjAiIGlkPSJwYXRoMTMwNiIgZD0ibSAxMTUuNjM1ODMsMjI5LjM4MDgxIGMgMCwtMC4wMjA5IC0wLjI3OTgsLTEuNzg3MzcgLTAuMjc5OCwtMS43ODczNyBsIDQuOTQ4NjcsLTAuMDY2OCAwLjM5MjU1LDIuMDI1NDEgaCAtNS4wNTMwNyB6IiBzdHlsZT0iZmlsbDojOTM5NTk5O2ZpbGwtb3BhY2l0eToxO3N0cm9rZTojMDAwMDAwO3N0cm9rZS13aWR0aDowLjU2NTtzdHJva2UtbGluZWNhcDpidXR0O3N0cm9rZS1saW5lam9pbjpyb3VuZDtzdHJva2UtbWl0ZXJsaW1pdDo0O3N0cm9rZS1kYXNoYXJyYXk6bm9uZTtzdHJva2Utb3BhY2l0eToxIi8+CiAgICAgIDxwYXRoIGlua3NjYXBlOmNvbm5lY3Rvci1jdXJ2YXR1cmU9IjAiIGlkPSJwYXRoMTMwNi0xIiBkPSJtIDExNS4xNzE2LDIyNi41ODExNCBjIDAsLTAuMDIwOSAtMC4yNzk4LC0xLjc4NzM3IC0wLjI3OTgsLTEuNzg3MzcgbCA0Ljk0ODY3LC0wLjA2NjggMC4zOTI1NSwyLjAyNTQxIGggLTUuMDUzMDcgeiIgc3R5bGU9ImZpbGw6IzkzOTU5OTtmaWxsLW9wYWNpdHk6MTtzdHJva2U6IzAwMDAwMDtzdHJva2Utd2lkdGg6MC41NjUwMDAwNjtzdHJva2UtbGluZWNhcDpidXR0O3N0cm9rZS1saW5lam9pbjpyb3VuZDtzdHJva2UtbWl0ZXJsaW1pdDo0O3N0cm9rZS1kYXNoYXJyYXk6bm9uZTtzdHJva2Utb3BhY2l0eToxIi8+CiAgICAgIDxwYXRoIGlua3NjYXBlOmNvbm5lY3Rvci1jdXJ2YXR1cmU9IjAiIGlkPSJwYXRoMTMwNi0xLTQiIGQ9Im0gMTEyLjU5NjYzLDIyMy44MDYwNiBjIDAsLTAuMDIwOCAtMC4yNzk4LC0xLjc4MDI0IC0wLjI3OTgsLTEuNzgwMjQgbCA0Ljk0ODY4LC0wLjA2NjUgMC4zOTI1NCwyLjAxNzMzIGggLTUuMDUzMDcgeiIgc3R5bGU9ImZpbGw6IzkzOTU5OTtmaWxsLW9wYWNpdHk6MTtzdHJva2U6IzAwMDAwMDtzdHJva2Utd2lkdGg6MC41NjM4NzIzNDtzdHJva2UtbGluZWNhcDpidXR0O3N0cm9rZS1saW5lam9pbjpyb3VuZDtzdHJva2UtbWl0ZXJsaW1pdDo0O3N0cm9rZS1kYXNoYXJyYXk6bm9uZTtzdHJva2Utb3BhY2l0eToxIi8+CiAgICAgIDxwYXRoIGlua3NjYXBlOmNvbm5lY3Rvci1jdXJ2YXR1cmU9IjAiIGlkPSJwYXRoMTMzOCIgZD0ibSAxMjMuNzI5MDgsMjMyLjQ0NjA1IGMgLTAuMDA4LC0wLjAzMzQgLTAuNTIyNTcsLTEuOTUwMjkgLTAuNTIyNTcsLTEuOTUwMjkgaCA1LjE3NDc0IGwgMC41NDA5NCwyLjAxODgzIGggLTUuMTgwNTcgeiIgc3R5bGU9ImZpbGw6IzkzOTU5OTtmaWxsLW9wYWNpdHk6MTtzdHJva2U6IzAwMDAwMDtzdHJva2Utd2lkdGg6MC41NjU7c3Ryb2tlLWxpbmVjYXA6YnV0dDtzdHJva2UtbGluZWpvaW46cm91bmQ7c3Ryb2tlLW1pdGVybGltaXQ6NDtzdHJva2UtZGFzaGFycmF5Om5vbmU7c3Ryb2tlLW9wYWNpdHk6MSIvPgogICAgICA8cGF0aCBpbmtzY2FwZTpjb25uZWN0b3ItY3VydmF0dXJlPSIwIiBpZD0icGF0aDEzMzgtOSIgZD0ibSAxMjMuMDMwODQsMjI5LjQ4NjQ3IGMgLTAuMDA4LC0wLjAzMzQgLTAuNTIyNTcsLTEuOTUwMjkgLTAuNTIyNTcsLTEuOTUwMjkgaCA1LjE3NDc0IGwgMC41NDA5NCwyLjAxODgzIGggLTUuMTgwNTcgeiIgc3R5bGU9ImZpbGw6IzkzOTU5OTtmaWxsLW9wYWNpdHk6MTtzdHJva2U6IzAwMDAwMDtzdHJva2Utd2lkdGg6MC41NjUwMDAwNjtzdHJva2UtbGluZWNhcDpidXR0O3N0cm9rZS1saW5lam9pbjpyb3VuZDtzdHJva2UtbWl0ZXJsaW1pdDo0O3N0cm9rZS1kYXNoYXJyYXk6bm9uZTtzdHJva2Utb3BhY2l0eToxIi8+CiAgICAgIDxwYXRoIGlua3NjYXBlOmNvbm5lY3Rvci1jdXJ2YXR1cmU9IjAiIGlkPSJwYXRoMTMzOC05LTgiIGQ9Im0gMTIyLjI0OTIzLDIyNi42NDUxMSBjIC0wLjAwOCwtMC4wMzM0IC0wLjUyMjU3LC0xLjk1MDI5IC0wLjUyMjU3LC0xLjk1MDI5IGggNS4xNzQ3NCBsIDAuNTQwOTQsMi4wMTg4MyBoIC01LjE4MDU3IHoiIHN0eWxlPSJmaWxsOiM5Mzk1OTk7ZmlsbC1vcGFjaXR5OjE7c3Ryb2tlOiMwMDAwMDA7c3Ryb2tlLXdpZHRoOjAuNTY1MDAwMDY7c3Ryb2tlLWxpbmVjYXA6YnV0dDtzdHJva2UtbGluZWpvaW46cm91bmQ7c3Ryb2tlLW1pdGVybGltaXQ6NDtzdHJva2UtZGFzaGFycmF5Om5vbmU7c3Ryb2tlLW9wYWNpdHk6MSIvPgogICAgICA8cGF0aCBpbmtzY2FwZTpjb25uZWN0b3ItY3VydmF0dXJlPSIwIiBpZD0icGF0aDEzMzgtOS04LTYiIGQ9Im0gMTE5LjIxNjM3LDIyMy44NzAxOSBjIC0wLjAwOCwtMC4wMzAxIC0wLjUwNzYyLC0xLjc1ODM3IC0wLjUwNzYyLC0xLjc1ODM3IGggNS4wMjY2NSBsIDAuNTI1NDYsMS44MjAxNyBoIC01LjAzMjMxIHoiIHN0eWxlPSJmaWxsOiM5Mzk1OTk7ZmlsbC1vcGFjaXR5OjE7c3Ryb2tlOiMwMDAwMDA7c3Ryb2tlLXdpZHRoOjAuNTI4NzQ4NjM7c3Ryb2tlLWxpbmVjYXA6YnV0dDtzdHJva2UtbGluZWpvaW46cm91bmQ7c3Ryb2tlLW1pdGVybGltaXQ6NDtzdHJva2UtZGFzaGFycmF5Om5vbmU7c3Ryb2tlLW9wYWNpdHk6MSIvPgogICAgICA8cGF0aCBpbmtzY2FwZTpjb25uZWN0b3ItY3VydmF0dXJlPSIwIiBpZD0icGF0aDEzMzgtOS04LTYtMCIgZD0ibSAxMjUuODE4MjUsMjIzLjgzNTgzIGMgLTAuMDA4LC0wLjAzMDEgLTAuNTA3NjIsLTEuNzU4MzcgLTAuNTA3NjIsLTEuNzU4MzcgaCA1LjAyNjY1IGwgMC41MjU0NiwxLjgyMDE3IGggLTUuMDMyMzEgeiIgc3R5bGU9ImZpbGw6IzkzOTU5OTtmaWxsLW9wYWNpdHk6MTtzdHJva2U6IzAwMDAwMDtzdHJva2Utd2lkdGg6MC41Mjg3NDg2MztzdHJva2UtbGluZWNhcDpidXR0O3N0cm9rZS1saW5lam9pbjpyb3VuZDtzdHJva2UtbWl0ZXJsaW1pdDo0O3N0cm9rZS1kYXNoYXJyYXk6bm9uZTtzdHJva2Utb3BhY2l0eToxIi8+CiAgICAgIDxwYXRoIGlua3NjYXBlOmNvbm5lY3Rvci1jdXJ2YXR1cmU9IjAiIGlkPSJwYXRoMTQwMCIgZD0ibSAxMzAuNzc0MTQsMjMyLjYyMjExIC0wLjUzODY0LC0yLjE3Mzc4IGggOS40NjgwNCBjIDAsMCAwLjc1MDA1LDIuMTk1MDkgMC43Nzk1OCwyLjE5NTA5IDAuMDI5NSwwIC05LjcwMjQ3LDAgLTkuNzAyNDcsMCB6IiBzdHlsZT0iZmlsbDojOTM5NTk5O2ZpbGwtb3BhY2l0eToxO3N0cm9rZTojMDAwMDAwO3N0cm9rZS13aWR0aDowLjU4NzUzMjIyO3N0cm9rZS1saW5lY2FwOmJ1dHQ7c3Ryb2tlLWxpbmVqb2luOnJvdW5kO3N0cm9rZS1taXRlcmxpbWl0OjQ7c3Ryb2tlLWRhc2hhcnJheTpub25lO3N0cm9rZS1vcGFjaXR5OjEiLz4KICAgICAgPHBhdGggaW5rc2NhcGU6Y29ubmVjdG9yLWN1cnZhdHVyZT0iMCIgaWQ9InBhdGgxNDAwLTkiIGQ9Im0gMTI5Ljc5MzMyLDIyOS41Njc5OSAtMC41Mzg2NCwtMi4wNDMyMyBoIDkuNDY4MDQgYyAwLDAgMC43NTAwNSwyLjA2MzI2IDAuNzc5NTgsMi4wNjMyNiAwLjAyOTUsMCAtOS43MDI0NywwIC05LjcwMjQ3LDAgeiIgc3R5bGU9ImZpbGw6IzkzOTU5OTtmaWxsLW9wYWNpdHk6MTtzdHJva2U6IzAwMDAwMDtzdHJva2Utd2lkdGg6MC41Njk2MTYwMjtzdHJva2UtbGluZWNhcDpidXR0O3N0cm9rZS1saW5lam9pbjpyb3VuZDtzdHJva2UtbWl0ZXJsaW1pdDo0O3N0cm9rZS1kYXNoYXJyYXk6bm9uZTtzdHJva2Utb3BhY2l0eToxIi8+CiAgICAgIDxwYXRoIGlua3NjYXBlOmNvbm5lY3Rvci1jdXJ2YXR1cmU9IjAiIGlkPSJwYXRoMTQwMC05LTIiIGQ9Im0gMTI5LjAwNTU5LDIyNi42NjE1NiAtMC41MjI3MSwtMS45NTE0MyBoIDkuMTg4MDYgYyAwLDAgMC43Mjc4NywxLjk3MDU2IDAuNzU2NTMsMS45NzA1NiAwLjAyODYsMCAtOS40MTU1NiwwIC05LjQxNTU2LDAgeiIgc3R5bGU9ImZpbGw6IzkzOTU5OTtmaWxsLW9wYWNpdHk6MTtzdHJva2U6IzAwMDAwMDtzdHJva2Utd2lkdGg6MC41NDgzODA1NTtzdHJva2UtbGluZWNhcDpidXR0O3N0cm9rZS1saW5lam9pbjpyb3VuZDtzdHJva2UtbWl0ZXJsaW1pdDo0O3N0cm9rZS1kYXNoYXJyYXk6bm9uZTtzdHJva2Utb3BhY2l0eToxIi8+CiAgICAgIDxwYXRoIHNvZGlwb2RpOm5vZGV0eXBlcz0iY3NjY2NjIiBpbmtzY2FwZTpjb25uZWN0b3ItY3VydmF0dXJlPSIwIiBpZD0icGF0aDE0NDciIGQ9Im0gMTMyLjQ5OTcsMjIzLjg1NDE3IGMgMCwwIC0wLjU3MDA0LC0xLjcyMzcyIC0wLjU3MDA0LC0xLjczODM0IDAsLTAuMDE0NiA0LjczODYxLDAuMDE2NSA0LjczODYxLDAuMDE2NSBsIDAuNjE2ODEsMS43OTc4MSBoIC00Ljc2OTE0IHoiIHN0eWxlPSJmaWxsOiM5Mzk1OTk7ZmlsbC1vcGFjaXR5OjE7c3Ryb2tlOiMwMDAwMDA7c3Ryb2tlLXdpZHRoOjAuNTY1O3N0cm9rZS1saW5lY2FwOnJvdW5kO3N0cm9rZS1saW5lam9pbjpyb3VuZDtzdHJva2UtbWl0ZXJsaW1pdDo0O3N0cm9rZS1kYXNoYXJyYXk6bm9uZTtzdHJva2Utb3BhY2l0eToxIi8+CiAgICAgIDxwYXRoIGlua3NjYXBlOmNvbm5lY3Rvci1jdXJ2YXR1cmU9IjAiIGlkPSJwYXRoMTQ0OSIgZD0ibSAxMzEuMTI1ODQsMjIxLjA4MTEyIGMgMCwtMC4wMTY1IC0wLjMzNDg2LC0xLjAyMTEzIC0wLjMzNDg2LC0xLjAyMTEzIGggNS4xNTExMSBsIDAuMzUxNCwxLjAxMjg2IGggLTUuMTM4NzEgbCAtMC4wMjc5LDAuMDE0NSB6IiBzdHlsZT0iZmlsbDojOTM5NTk5O2ZpbGwtb3BhY2l0eToxO3N0cm9rZTojMDAwMDAwO3N0cm9rZS13aWR0aDowLjU2NTtzdHJva2UtbGluZWNhcDpidXR0O3N0cm9rZS1saW5lam9pbjpyb3VuZDtzdHJva2UtbWl0ZXJsaW1pdDo0O3N0cm9rZS1kYXNoYXJyYXk6bm9uZTtzdHJva2Utb3BhY2l0eToxIi8+CiAgICAgIDxwYXRoIGlua3NjYXBlOmNvbm5lY3Rvci1jdXJ2YXR1cmU9IjAiIGlkPSJwYXRoMTQ0OS0wIiBkPSJtIDEyMy45Mzg2MSwyMjEuMDU4MzUgYyAwLC0wLjAxNjUgLTAuMzM0ODYsLTEuMDIxMTMgLTAuMzM0ODYsLTEuMDIxMTMgaCA1LjE1MTExIGwgMC4zNTE0LDEuMDEyODYgaCAtNS4xMzg3MSBsIC0wLjAyNzksMC4wMTQ1IHoiIHN0eWxlPSJmaWxsOiM5Mzk1OTk7ZmlsbC1vcGFjaXR5OjE7c3Ryb2tlOiMwMDAwMDA7c3Ryb2tlLXdpZHRoOjAuNTY1MDAwMDY7c3Ryb2tlLWxpbmVjYXA6YnV0dDtzdHJva2UtbGluZWpvaW46cm91bmQ7c3Ryb2tlLW1pdGVybGltaXQ6NDtzdHJva2UtZGFzaGFycmF5Om5vbmU7c3Ryb2tlLW9wYWNpdHk6MSIvPgogICAgICA8cGF0aCBpbmtzY2FwZTpjb25uZWN0b3ItY3VydmF0dXJlPSIwIiBpZD0icGF0aDE0NjYiIGQ9Im0gODAuOTU2NzczLDIyMS4wMzYxNSBjIDAsLTAuMDExNyAwLjA5NjQ3LC0wLjg3OTkgMC4wOTY0NywtMC44Nzk5IGwgNS4xOTc1NTcsMC4wMjM0IGMgMCwwIC0wLjA1NTU0LDEuMDUyMzcgLTAuMDY3MjMsMS4wNDk0NSAtMC4wMTE2OSwtMC4wMDMgLTUuMjU2MjA0LDAgLTUuMjU2MjA0LDAgeiIgc3R5bGU9ImZpbGw6IzkzOTU5OTtmaWxsLW9wYWNpdHk6MTtzdHJva2U6IzAwMDAwMDtzdHJva2Utd2lkdGg6MC41NjU7c3Ryb2tlLWxpbmVjYXA6YnV0dDtzdHJva2UtbGluZWpvaW46cm91bmQ7c3Ryb2tlLW1pdGVybGltaXQ6NDtzdHJva2UtZGFzaGFycmF5Om5vbmU7c3Ryb2tlLW9wYWNpdHk6MSIvPgogICAgICA8cGF0aCBpbmtzY2FwZTpjb25uZWN0b3ItY3VydmF0dXJlPSIwIiBpZD0icGF0aDE0NjgiIGQ9Im0gODguMTAxMjIyLDIyMC45NzQ3NiAwLjA4MTg1LC0wLjg0Nzc0IDUuMTM2MTY5LC0wLjAxNzUgLTAuMDIwNDUsMS4wNzI4MyBoIC01LjIyMjUwMiB6IiBzdHlsZT0iZmlsbDojOTM5NTk5O2ZpbGwtb3BhY2l0eToxO3N0cm9rZTojMDAwMDAwO3N0cm9rZS13aWR0aDowLjQ2NTtzdHJva2UtbGluZWNhcDpidXR0O3N0cm9rZS1saW5lam9pbjpyb3VuZDtzdHJva2UtbWl0ZXJsaW1pdDo0O3N0cm9rZS1kYXNoYXJyYXk6bm9uZTtzdHJva2Utb3BhY2l0eToxIi8+CiAgICAgIDxwYXRoIGlua3NjYXBlOmNvbm5lY3Rvci1jdXJ2YXR1cmU9IjAiIGlkPSJwYXRoMTQ3MCIgZD0ibSA5NS4yMjUxOTQsMjIxLjAyMzI0IDAuMDc0NDEsLTAuODY4MTYgNS4xNTkzNzYsLTAuMDMzMSB2IDEuMDc0ODcgaCAtNS4yNTAzMjYgeiIgc3R5bGU9ImZpbGw6IzkzOTU5OTtmaWxsLW9wYWNpdHk6MTtzdHJva2U6IzAwMDAwMDtzdHJva2Utd2lkdGg6MC40NjU7c3Ryb2tlLWxpbmVjYXA6YnV0dDtzdHJva2UtbGluZWpvaW46cm91bmQ7c3Ryb2tlLW1pdGVybGltaXQ6NDtzdHJva2UtZGFzaGFycmF5Om5vbmU7c3Ryb2tlLW9wYWNpdHk6MSIvPgogICAgICA8cGF0aCBpbmtzY2FwZTpjb25uZWN0b3ItY3VydmF0dXJlPSIwIiBpZD0icGF0aDE0NzIiIGQ9Im0gMTAyLjQ0ODU4LDIyMS4wMDY5MiAwLjAyOTIsLTAuODY1MjkgNS4wNzQ3OCwtMC4wMjkyIDAuMDY0MywwLjk4ODA2IGggLTUuMTc5NzUgeiIgc3R5bGU9ImZpbGw6IzkzOTU5OTtmaWxsLW9wYWNpdHk6MTtzdHJva2U6IzAwMDAwMDtzdHJva2Utd2lkdGg6MC40NjU7c3Ryb2tlLWxpbmVjYXA6YnV0dDtzdHJva2UtbGluZWpvaW46cm91bmQ7c3Ryb2tlLW1pdGVybGltaXQ6NDtzdHJva2UtZGFzaGFycmF5Om5vbmU7c3Ryb2tlLW9wYWNpdHk6MSIvPgogICAgICA8cGF0aCBpbmtzY2FwZTpjb25uZWN0b3ItY3VydmF0dXJlPSIwIiBpZD0icGF0aDE0NzQiIGQ9Im0gMTA5LjU0NTc3LDIyMC45NjUzNiAtMC4wNTc5LC0wLjg1MTYyIDUuMTc1OTEsLTAuMDA4IDAuMTMyMjksMC45MTc3NyBoIC01LjI0ODI2IHoiIHN0eWxlPSJmaWxsOiM5Mzk1OTk7ZmlsbC1vcGFjaXR5OjE7c3Ryb2tlOiMwMDAwMDA7c3Ryb2tlLXdpZHRoOjAuNTY1O3N0cm9rZS1saW5lY2FwOmJ1dHQ7c3Ryb2tlLWxpbmVqb2luOnJvdW5kO3N0cm9rZS1taXRlcmxpbWl0OjQ7c3Ryb2tlLWRhc2hhcnJheTpub25lO3N0cm9rZS1vcGFjaXR5OjEiLz4KICAgICAgPHBhdGggaW5rc2NhcGU6Y29ubmVjdG9yLWN1cnZhdHVyZT0iMCIgaWQ9InBhdGgxNDc2IiBkPSJtIDExNi42NjczMiwyMjAuOTY4OTIgLTAuMDkwNiwtMC45NDcxNCA1LjEzNjE3LC0wLjAwOSAwLjI1MTQsMS4wMDU2IC01LjI4OTIyLDUuM2UtNCAtMC4wMDYsLTAuMDQzNCB6IiBzdHlsZT0iZmlsbDojOTM5NTk5O2ZpbGwtb3BhY2l0eToxO3N0cm9rZTojMDAwMDAwO3N0cm9rZS13aWR0aDowLjU2NTtzdHJva2UtbGluZWNhcDpidXR0O3N0cm9rZS1saW5lam9pbjpyb3VuZDtzdHJva2UtbWl0ZXJsaW1pdDo0O3N0cm9rZS1kYXNoYXJyYXk6bm9uZTtzdHJva2Utb3BhY2l0eToxIi8+CiAgICAgIDxwYXRoIGlua3NjYXBlOmNvbm5lY3Rvci1jdXJ2YXR1cmU9IjAiIGlkPSJwYXRoMTQ3OCIgZD0ibSA4NS45MjYzMTgsMjMyLjU0Nzk1IDAuMTY5NTQ3LC0xLjk3NjEyIDI3LjQyMDE4NSwtMC4wNDA5IDAuMjUxNCwxLjk4NzgyIC0yNy44NDExMzIsMC4xMDUyNCB6IiBzdHlsZT0iZmlsbDojOTM5NTk5O2ZpbGwtb3BhY2l0eToxO3N0cm9rZTojMDAwMDAwO3N0cm9rZS13aWR0aDowLjM2NTAwMDAxO3N0cm9rZS1saW5lY2FwOmJ1dHQ7c3Ryb2tlLWxpbmVqb2luOm1pdGVyO3N0cm9rZS1taXRlcmxpbWl0OjQ7c3Ryb2tlLWRhc2hhcnJheTpub25lO3N0cm9rZS1vcGFjaXR5OjEiLz4KICAgIDwvZz4KICA8L2c+Cjwvc3ZnPg==;" parent="228" vertex="1">
                    <mxGeometry width="590" height="590" as="geometry"/>
                </mxCell>
                <mxCell id="195" value="" style="shape=image;verticalLabelPosition=bottom;labelBackgroundColor=#ffffff;verticalAlign=top;aspect=fixed;imageAspect=0;image=data:image/png,iVBORw0KGgoAAAANSUhEUgAABSYAAAN3CAYAAAAvUIQjAAAAAXNSR0IArs4c6QAAAARnQU1BAACxjwv8YQUAAAAJcEhZcwAADsMAAA7DAcdvqGQAAGq8SURBVHhe7d2/jztNfh/4b3K4+xeUGA+w0rO70mohG1oHBAQIuDvgEgWGoovuiQgY+g8u0QbG4sKJLj3nmw+c6R8wlDqY4GAYTgRY0lqWIMjA8bpmpmaKPdXN6mb3p9nk67V473dIdlf1D7K6+HnImW+/9Vu/dRIRkfvIn/3Zn4mIfMkf/PN/cfr+J7/7mh//9PdOP/7dn51+8prfP/3k937/9NMv+bmIiIiIyOp5LUwCAAAAAERRmAQAAAAAwilMAgAAAADhFCYBAAAAgHAKkwAAAABAOIVJAAAAACBcc2Hy27dvp1/+8pfvtz79RXffX/zFX5z+3y6vP/fy/3SprQcAAAAAPK5Jhck//uM/fk0qRCb/tvv5h+++e739x+nxVLws8kO6r1sGAAAAAKA0qTCZpCJk+vmHP/7jt+Jjr/D4+gnJ7v7aYwAAAAAAyeTCZJa+pv1agKx8TTt/WtJXuAEAAAB4NKmO1pJbk7bp3//7f/9+66v02JLbPbswmYqP6avb+WvdpfzYZc+n47fD6enl/Wbn+Vg/UYdyoRYvT6dDr+1Zno+nb4enU9lM2sa0PfnfM2n543P6odu3Y/f/r3cWP0+R1kv7v8B+rCnt8+t2ztlHAAAAgPuS6iSXtCwTLRUe/4f/8X+qFifHHptrVmHy49OS33335VORY5+k/OprYfLT2GOxUgHytdaYpIJnLlR+FCE/fS67VGFyiWJfxLFcalsBAAAA9m2vhcmkVoBcoyiZTC5Mpr++/Vp4fE/6ynb6vZJZKlZ+191X+yTlV2MFs4hiWqOiGPmlSHlWjCuLc0M/TzF3vb6IY7nUtgIAAADs254Lk0lZiFyrKJlMKkz2i5Jl8te6U1Ey//Xuy8YKZv3HXk5Ph8+vdn9+KrFb5jkVCPtf+W5ZP939ue7YV5Ffng6nw+HQ+4TkW5sfd519grIs1JU/T1FZ72x7i75fly33N99O/34u3/+EZ5KKrV8fHzheg/fP3UcAAACA+5JqJpe0LLOlXJBcqyiZzP4dk0PSV7jTsot/lbvytem3Zb59/g7I16JdXqdc/62Y9vX3VH7tY/h3Wda39bVg+X7n2acpX5dfujCZbhd9DO5vUt7uPzakWK56vIeOY5LWVZgEAAAAlpXqTC25JS3bc2vb3LerwmT6tGT+pGTb17iTsYJZ77H3TwqeF8W+rn/+Ox7fH3tdt1I063368DVfinFvXts9Hr/8IZzXNl7vS0W7clvKQl35c+Gs/1pRr7deZT+q+/uqvN1/rCcVIT+2ozxmveNd6f/TwD4CAAAAPJhUY7mkZZmt5KJk+rf8eWmLFCanfUqyNFYwqz/28nR47atejHv7RN+0wmRDMS0V7j6Kj7n97L0gmb5Ofla0LAt15c9T9NZbozB51ma/uJoeLo63wiQAAADARS1Fx5ZltlArRNbuW8JVhcnyU5LzjBTMRh5LxbK3T/KlZYpP9Z0Vzsr13wqKX7+C3Fu/qlesqxTn0vak43PeTmq73JY5Rbv+em/b+1EY/VJULB57/RRk3u60Xnksi9sfRdfOa3vlcm8+j/fQcUzm7iMAAADAfdlrYXKsADn22FyzC5P5U5LtX9uueSu0pXZyPotevWLa2deNy4Lf4XQ8vhUGUz4/zdhbv9fXeXHv8/7+V7nTJxIv3lct6KX+yu2cU7SrrHe2vb0+y2N0PJ7t/+s2f+xfeWzeio2vjx26dXIRtnq8k4HjWNtWAAAAgAf0WVMZz61J2zRWeEyPLbndkwuTqRCZfp7/KckllQW2e7SnYp/CJAAAAADtJhUmUzEy/XvdpySX9AiFyVRBv/F9/Ph0pcIkAAAAAG0mFyZvy70XJgEAAADgPv30936/rTAJAAAAALAUhUkAAAAAIJzCJAAAAAAQTmESAAAAAAj3Oz/+icIkAAAAABDrd75XmAQAAAAAgilMAgAAAADhFCYBAAAAgHC/nQuTf/u3fysiIiIiIiIiIiI3kEfw29//eLnC5Ldvp+r9IiIiIiIiIiIi0p7//J//8yJJavfPydJtLVaYVJQUERERERERERFZJrl4d43cxq229bu/+7vXFyYVJUVERERERERERJbLrRYTl2xrcmEyFSFzIbL8WURERERERERERJbJrRYTl2xrdmFyuYLkr08/dI19K/KLX/3l6W//8lenX3z7xelXf5mXyT8vna/9//DroeXet+Fs25bK0D6u3e+lrHnsz/PrH97PfXn/r384ffvh1xvtey9pWz6eJz+cfp3uC30uxCWdi/I1kfPl/DRnnX1K23n+eq30c/VzaPvzMbwNLdt2C9svIiIiIiIiU3OrxcQl27rqE5PLZOs31q1tDy231Lat3f7cBPafC0jFfV8LTxvltaj1Xox8v/2r1bar5ZhHnZel+llpe/vPmdfzdF5A/ctf/eKKgmpK4GtgMEPb0LJtt7D9IiIiIiIiMjVRxcT/8//6v6vpa2mrVW5DYbK57aHlltq2tdufm8D++8W/177L2xsmFcB+8avTX9YeWzwtxzzqvCzVz0rbm54zxXlJRcgfftXd91Gs/MvTr35xbb9Rx3osQ9vQsm23sP0iIiIiIiIyNUsWAMfaqhUlU/outVVb71JbFwuTuRDZT23ZeWl5w91b5v1TUW9fL722cDXypr3o5xe/+lVle9K/n19z7X/ab1qGtqO8v7dM9Ti8LfPDD7/4uO/sa7kf2/h1ubcizueyb59UfO/z1+WxSJ8+e1v27NOMVxfvem2efRru8r6ff7qysvzV56f2Veayn6/HKm1PKpblY/q5fm/7au28P/b1/KXH+/d1yy76usjpb2eXs356z4HBx8p2as+zuSkLj/nn1Ff5eih/zsu+//yr7jn2vh1n57bYj/PX/vlj5fav//wr2hu6/2zbRvb7y+v5fX0RERERERG5mYwVE1tdKiYmtcLhWDFxqK1chMzr9m+Xchs38onJzzf5n2/0K2+mv/zc5dc/XPnGut9/+Wb+s9DwVlxq2J7Z6W9HmYZ+P47DWzv1Y9Jfv1zurVj0db235T4KjqlYmI/RWeFwma9dl1+7HS70lD93yftebk+67xefbV3/dd6Uz4La8Hb1j1VxTF9v14pF/dv9x1qW6d3Ox+Rs/Tmp9VPs/2shrNymscfefy7P0wL5fJ50fbwf+1//UOur3Je3bS2fL+2v/YF9LPtKx3/R59/79lZTblv+uUvahtc+y/vf28nP0bNzJCIiIiIiIreUsWJiq7FiYlk4LJMf6xtrK+u3VWsnyW3c8Fe5+2+m338++0TQe64qcgz0n/o5+/TfwPYMrT85Q+0M9DV4HCrtvBZd8nKVttIyr+3lwkyZfnv97SmKOWfHa2Y+jnv5SbiUot+hfS/O2WthKn0qrNrWlXnv/6MYNnRMR29PeKz5/BXHI+Wq10VOrZ/z58lHYXDssbKd921dpnDaJRcE87/dfbkQeF4QHDnG/e0beu1f2v/Vnn/97a3c/35cvz4HynW/tnP+HwBERERERETkVjJWAGw1VkysFRFT8mN9Y22V+m3V5DZ2WpisFdDmZqD/seLE4M/XZKidgb4Gj0OvnbPlygLJ2HJl+tt1frteALom79v4UdTJ97fse96/btmPglC33JdzeX3S/l4u+ozdbnzs6vN3bS73M7kw+f7Y6zHsBpOri2Lv5/fXXXsfbaX7fvhVcbxSBo5x/7H39iYXJld9/vW3t3J/Zdu+LPOlnbSNCpMiIiIiIiK3mEsFwBZjxcRa4bClmDi2XWVRMqcmtzG7MLlccbLhDfeXnxf8tNVo/59v2N+KKEPbU1t/asa2Y6jfoa9eF+2kT5Hloshr4aLWVspbgeJie/3br0WXH04/nBWArksuWJ1vS9lv+rn+HHgtkHbbkh9Lt3/4YYGvNf/6VwPHqr9dI8fq7HavIPT6qchKO83nL92uH5PrUu/nrAD4UQy79FjZzltez9fV2/x2LD+PX8rbtnx+PTvfN3b8ysfGXvtD+7ji8+/L9tbuf9u2r32NLNPbfhEREREREbmdDBUTaxkyVkysrTe3raS/Pf3bpdzGVZ+Y7P9cLtee1jfcxTKvb6b7X1fM603N2xv1j7a6fLxpfy0W5ftqf/zmrY30ianX5a7ejiWOQ7+dXLTpclZArPWX7vts76340l/u63qv+3/Vvvfyul+1bSvuG3oO9NettjUn58fmc3/L7bp0rHq3i+fXtx+6c1NtZ+j8VZ53Q8fkqvT3octZP62PFe2U+71QUey1eNj7VOLX52W5L/396t0efO13ubj//WV7y8xK5TzU7j/bti6v+/91v9/+6NXbMh9FVhEREREREbmpDBUTaxkyVkystZMyZKytpLb+UJu5jcmFyVq697avqT0m95/Pr7KKyG1nqMApIiIiIiIit5ahAuAUl4qJU6zR1lWFyVyQLFNbbiwfn+zppbbsGqn1nVJbduvc5PalT2hd/fvz3lLuXz+15SNT26aU2rL3kNq+ptSW3TK1bRxKbf29pLY//dTW+xqFSRERERERkb3kVouJS7a1yCcmU7r3xa+pPSb3mNrv9ROR247CpIiIiIiIyF5yq8XEJdtarDCZozgpIiIiIiIiIiJyXW61mLhkW4sXJkVEREREREREROS6pOLdEklq98/J0m0pTIqIiIiIiIiIiEh4PgqT//bf/lsRERERERERERGRkHwUJgEAAAAAovgqt4iIiIiIiIiIyBVJn/5jOoVJERERERERERGRK6IwOY/CpIiIiIiIiIiIyBVRmJxHYVJEREREREREROSKKEzOM1iY/Kd/+qfX9O8XERERERERERGRzyhMzjNamPyP//E/nv7dv/t3Xx6Tt/ybf/NvTn//939ffWzr2Lb9xXGRMp4P9TgutxfnRMp4PtTjuIiIiNx/FCbnGf0qdypKTi1Mfvv2bXZq7a2da7ZjyiSz1s81qfVRZqkJcK3vnNryLZm6benFnVN7vJ/atqbUlr0m5Xa1bttYrjlnqf/aPi+xXZdSHoN+assvmdTH2vvdNfiR8v61+57yfBjqs3Vbrtnma9fN67e203Jcvn375aqp9ZmTl/llsXxrau1NSa3NsdTaSKk9r1Nqy6Yseb2pPQ/G+p6Scl9qqa0Tkfw66Ke27B6y1PNhq9SeG62ptZez5HHpOhu8Nq2d9Ny8tK/3mrTfW7w2o4/5rZ3jrY772snHuWX/8nIptcdlX0nnuyW1da9NrZ9aautKW9LxY7rFf8dkGjDn2GKw7feXX4jl/WPbNGWSmdr55S/fMmc/W7cpp3Xb8j6n9B9L/YxJj9fWu5S5k/Oh7eyn3K7089ztHEvellpqy7dkznHJfeZ97Ke8v7b+NSn7uZTa+tcktxux311jHxnqY+j+fjvl7UuZ8nzo91XeV3usTOtyQ5m6Xlo+Z+y+obQcl1R0y/rFuCnJ+j/X+szpLzsltfamJLWR9duupdZGSnoO59Qe72fumN5Pfu203j81qZ0hU/Z36ZTP/zK1ZZdIS18tywxliedDPh+XUlv32qR257i0PUu+Trr/+5LasmskPRfWOvb959zc1NpeImm/12x/KKnPtY55Lbm/fDy32OcyWx33NdM/xkP7OLRcbVnZR6acu3LZJc75ln0/UtLxYrqbKkzm9fttrpVaX+mJVN4/tj1TJpmpnVssTKa2cspBJ9+XlMvnZHm52jJDuWZynrbx0uCY9yVv36Xl5yRvR267vJ3vm5qpxyX1k4//0H6Wj/cfuzbl/tb6HnvsmqT2yv2qtV8+3n9sarpGzvLLLnP67u44u30pLc+HfHz723Hp9tD9Q8vVkpbNqT1eZmzZfF//36G0HJdUdMv6xbgpyfo/1/rM6S87JbX2piS1kfXbrqXWRkr5HL50PlKuGdPLDPXXuh2XktoZkvtI/9bWXSKp/SVSa3tK0j6WqbXZssxQlng+pD4vydtWW39uWvqtadmOJV8nr9vZS23ZNZKeC0sf95Tc7lKp9XFtUrtLvAanZq1jPpTauagtF5XU/xbHfc3kfcqGznG+v3SPx+ORMuXclcsucc637PuRko4X0y3+x2/6g2ercjCuDcxTk9ooU1tmLC3rTplkpnauLUyWqS1Tpu3N+9cLXU5+QdXWyynl9WrL9dOyban/nNrjYyn3I2VOG0Mpt6nl5ymZ+qal3Ld0JlPy/Snlsmm5JY9F3sfcXvlzP/1lr83QfteSlltqv7uGzpLuy/3nlMvnvlMhMy8/JVOeD+X+De1r//7W5S5lbPn02KXHL/3cT9vYVi/ELZVanzl5mb1/lTv9m85D+jnfHsrUsWsoQ6/VofunJrUzJPeR97m2/jXJbS+VWh+tKfdv6Ni2LDOUJZ4Pqc8s9V37Ny9Tbuu16febbg+llG7X2iuz3HF5y+vPRWrLr5F8XGqPzU1qLyXNkWuPT83cufalpDbT/tceWzNrHPOWpH5zttr3lDX7zvs2ljX6zu1meTv6y+X7s7xuTn/5OSmPQd7XpftoSbkdkX2nfvupLbdE5rSd17l2u7bseyhrtbt10n4x3eJ//CYNInP0B59rBqO3bXhbP/87tb20fE7t8ZQpk8zUzrWFySnrt715P2+nr3zsUrKlti0nvbCHBq10f+ovP56XTffl+/NjS6Vs89LP5X0tmfqm5XU/f/nL97con+cr73+5bL5/6jYNpWynpc28zKXlWjK030NZar/T+qnImAuNY/2nZdMy+dOVtWUuZerrpPx3KFOXa8nQslP7aO2zbWy7vsg3lEttz+07FTJr90/JlL5bCpM56dyMPY+njl1DeX1tF6+Z1G/uu/X5MZbUzpDcR9lnrY25KdsuU1u2TG2dlNqyrSn3bejYtiwzlCWeD6nPJPVb+zfJyyTl9s5N2d4UrX1fe1xSP2/b+JnX2++prbNG0jlo3efW5H1Lc9za4yl5mZyx52SeK48tMzdl/2u0X8sax3xq8jYstc/5+LWkPN4tqfU3lLT8pfbXON9l+0m+vzzGZb95mf62lMvPSX/99HO6L/9cW2bppLZzv/m9bk7ue+n+c5uXUlt3bq5p79rt2bLvoaQ283Pt3pL2jel+8pOfLP/Hb+ZI69VS62MsaZ00WUs/9/9taa/sO6e2XMqUSWZqpxxka8uMZer6bW/ep2/HpSSX2p06Oe8PiPl26qf/b065/JLJfbf8XN7XkinHJbX7uq/vBbrysXwMyvvK+6dsUy39fWtpr7/O3KT1h/Z7KEvsd9721E5ZmKwtm5KWTcu8LtdlTt9Tnw+tfUQsl7entY2U1mXbxrbri3xDecTC5NB9OVPH9KGkPnLS7fScKG9fm9ROltvN3m6/fZL0UmptX0r5msipLVfLNevWkvc9p9ZeyzJDWeL5kPrMUt+1f/vbmFJrqzVp/Sz10W+7TCndrrXXz7XH5a3fr2ntf6nkY1N7bG5Seylpjtt/LPVXOx/pvv6yOXmuPLbMtSm3Y81+UvL+1x6LSt6GpbajbG/p1PobSt6O/jlMt8vktvvLXZPcbin30f85ycundbNrt2moj9K1fYwl95fSf/3n13FO+di1Sf3mDN1fe3xu5rTT3445baTMWa/f75w2xpLaW+O83krS/jHdaGFyTtITbClTn6xvfecBu/5vfhHUkh6fkimTzNR+GmDzIFtbZixT12978z59O/oZGrDG2r5mcl4byMr7+o8tnXJfp/58Ka3HJbX3up/ds7r2+NgxyOvWHmtJf39a9y2lv+7UpHXzfg/t+1DyurXHWlKun37ubnykXKa8Pz82t++W50NqO6f2+JoZ6jvf7v97Ka3LtY1t1xf5hnKp7drjuaA1Nf12LqW2Tr/NsfTXLTP2HL5mTO8nPQ/K19o1r9t+UluXpOMwpuVY1ZL2ZcnU+riUtF46BkPJy9UeyynbG8oSz4fUV5K2eezfUuv2lSn3bY5y/ZRaHznXHJe37fualn6XTn4e1R6bm7wfaY7bf6zWX54LD21HfjytW3t8yeTtSH2t1d8ax3xq8jYsvR3lsbsmrecg70M/Y+vldlMuLTslub1Sbr//c235dN+121P2kfT7SNLtMnP7S+v2b6fUXvdl0uNLvabT+mVqy+QMLXdpPbmcfO5Tao/vPek5wnTbFCbLZdLPA5n6ZM3LdytP/nfOC2PKJDO1Xw6stWXGMnX9tjfv5+2kF1G6L6U2EJfJj+flc/Lj5c/9LPkmNmdoO5ZOeVym/nwprccltVfuY3/fh1Jbd2r6+9Oyb3mZ/rpTk9btb3u5f7WMrTsltfW7Oz72J/2ckx/Pj83te8rrJPdV3i5TPrZ0htqf2m/r8m1j2/TCUWsuF/DqxcEs/dyafjuXUlsn3ZeVbdfSX7fM2PlZckxP/aTXS/73mtdtP6mtS9JxGJMef9u2aecnrbNkan1cSlqvPJ75+OaU919aZixLPB9SX1na7pZ/W7cvp1y+31+6PZRSuj3UZj/XHJe3fr9mrL+1ko9P7bG5Se2lpDlu/7Faf3kuPLQd+fG0bu3xpVM+Z2qPX5s1jvnUrLWPud2552rq+mm5flrWL5dd8hiU/Sb5vrKPJPebHkvyMunf/vItye2VbSa5rVJeJq87p7+Ucp30c3qdlu1eSut74KGkvnJqj9dSW2fK+vI16fil85hTW2bJ9Pvrn7/8eH/Z/nJTktZlusHC5Cp//CY9ltO/3c/rw9OerG99v60z9d+pfaVMmWSm9tOAOndQnbp+25v3txddTrqdU94/lLxsv83y31qWfBObk7clJ21fbblrk/d9zs+X0npcUnvl8e3v+1Bq607NlP1JKZefum4/ad3+tpf7V8vYulNSW7+742N/0s855TIpc/ue8jrJ29H/eey+pTLU9tQ+W5dvG9umF/Vac6nt2uPpviz93Jp+O5dSWyfdl5Vt19JftzVLjunpeZBfvzm15eYktZX1+/hMW2HybTvbj1leZ6nU+riUtF7ax3y7v+/l/ZeWGcs1z4d+f3NTa7tMuUz6eY5+P5f6nntc3rbva8b6WjP959ESyccuzXH7j9X6y3Phoe3Ij899rbQktZ23bWg7piS3Mze1NpdM3tc1junctpfYpiltpGXy8rXH5yb3neU+SuU2JuUyU7cpLVsmrZ+N9Z1N7S8nr5PXr73ex3LpdX8pqd+U2mNjyevldee0IW9Jxy6fw2vOZWvyeSv7y/eVy+T7y+XyfWV7rUnrMd1oYXLRP36T7i8fy7dreZfaqvUxlLx8t+bkf6f2lTJlkpnaTwNqHlRry4xl6vqt25bayilffOX9Qxl6sebHa4+lrP0mNidvX14m/Tu0za0p25j686W0HpfUXtqf2mMpef+rj6XfzTiy7qVM2Z+Uctmp6/aT1p277Uvsd3/97o6z9PctjWTp37nbPeV1kvrIqT2eUi5TZmzZ2mP9jLVRu38orcu3HJdrimyXcqnt2uPpvjnpt3MptXX6bY6lv25rlhzTc9JrZupz6FJSm5ek45Cl5XOy/jFLqfXVT9qXJVPrYyzlviyRWh85c58Pue1rXdq+8vHc59z02yzv62fOccn9dHv1JWN9rZn0/Fu677yfaY7bfyz3N5T+8il5rjzntXIp+TU41v+c5Pbmptbmkkl9rHE8c/Ixbe1j6vJDmdPvNX3ndcv1889jymXKdpL8c9lPLeU6WW43PZ7k5Url40lrf/3kvtK//fXL7RjL3PfRqe2c2uNlasuV6/cfG0p/nX5q6yyVWn9lauuUqa1TprbOpaT18rkvU1t2qeQ+y/vS7XIfyu2q3Z9vT0lal+li/vhNuq92f5Yf7y0z9cnw1vfbOv1/02Nzk9vvZ8okM7VTFhbnpFy/1keZ1m1LL5ycscfO34h9XqSGMraNS72JLY9Nzuf2fr2/1sal5Pby+tf8fClTz9nQfuV97t8/ts6U5P4vtVMu07rOpaT1p+zD64jwfjyu6Ttve2on//GbMv3lX/u9su+W50Perjnt5/TXbW1rqO98u//vpbQu13Jczser5VPrM6e2fEpt2bHMXSf9EZ2UqX3P6S9nqTE9JT0P3rY7vXbmHbuhpDYvSf1N0bp9ab9aUlu3TOtyOXkMSqndN3T/0LJl8jL9zHk+pPbejufbv2kf5/ybjG1byqXHp6Zsb6ztqccltZXS7dGXLL0PKbm/NVLrr0xeLs1x+4+lc9tvo5xLl/f3H0/r1h6fk9RW3pahfq9Jbn9uam1ek9Rm3telj+VQcp+X+mpdriVz2srr1FJbPic9XvZTtpN+rsnLpX+z/jq5ndzuUPJypXxfeX9attS/3dpfP7mfct18O7VZLjuUKe+Fy6T2W/tIycuX69TuG0u5fC21dZZKrb8ytXXK1NYpU1vnUsrznM977TymZfJj5fL95VqS2yrvK9stlxm6P9+ekrQu063/OybT7ZwhA8tMfTLk5bs1z/5N9+eBbGrGtmHKJPOabein5bis80Yx5e001ZYrs9RxG0vqo0x/MMkDSnn/lPTby//O/flSphyX1ObQvuXj8XH79ZXw9npq3Zax5H261Fb5eMvyLUlttO7HGvud2rpUmHzts8vrz91jc/ue+nyo3d+atH5O7fGx1NaZ017rsi3HpSwufY5d05P1f671mVOuX6a27FjmrnOvhcmpz6daUpvZW/u13H5hsvz3Usp9q903dP/QsmXyMv1MfT6ktrLy57SPc/4d27aUS49PSb+tsbbnHZevSfcvuQ85ud01UuuvTF4uzXH7j6Xz2m8jz4WH2s6Pp3Vrj09JaiNvw1B/95Zyf3OWOJYtyX0P9Xfp8amZ015ep5ba8jnp8bRuVrZT3l9K6/UfK5fPj1/qO6VcLivvb9XaXz9pnZzcxpx2Wt8Ll0n9pdQeG0ter5/asv20Ll8uNyW1tnJal5uSa9pM6+Tznm7nc98/j7n98vF8u1yuNbV1c5v9ZYbuz7enJK3LdLdVmOyZ+mR46/ttnfxvui8NYHMztg1TJpnXbkeZluOyzhvFlLdTVVuuNdduWzmA5NSWuzbl4JRv55S3W3++lDlvWlL67ZfH5O0V8TmJaN2WS8n7VWuvf//YsnMytN9l1tjvrqHX9Nsq70995vuv7XvK82GJ/Zubob6nblPr8i3HpSwufY5d05P1f671OZb+Orn9OSnbaUl/nX57l1KuO5Q1rjflz2WmPq/KpNfjJamPLI81tWRp+Vpf/aTtbsnQ8uX9tZ+HUm5z7b6h+4eWLZOX6WfK86HWbpL2bc6/SWqj1ldOv79rUmu7f1/OnGt8tzdfMtbHtRnarzmZ0lZeNs1x+4+lc9tvJ8+Fh9rPj6d1a4+3JK2b+x7q596Tj0E+Dunf2nJLZ6i/NbZjaptpubnbkde5Vvr1RKm915832I68/7W2x5LWKTN1u3Pm9D+3r5S0bj+15fppXb5cbkpqbeW0Ljclc9tMy/fPV/k8GLo/r5dTLtea3Ebe7vJ2f5mh+/PtKUnrMt26f/wm/TyWcpmKqU+GvHy35sftXMybk0v9T51899uemtbtSlnjjeJb3k5XbbnWXLNt+ViUA0e+v3/fEkltlu32b1/KlOXnHJfU9ti+58fL49a6PZeS2xpqr3y8TG3ZqUntjO13uc/X7nfXwFnSJyb7faf7y9tL9D3l+ZD7GErrcilluy0ZW2dKm63LtRyXz/FqndT6HEt/nXQ7K9ttSdlOS/rrpNtZ2e5QynWHcu31Jp37Wr/5/nLZdLv1udJPej1ektqfor99Q0nb3JLaumWmLl+ORbX7htKybF6mnynPh9ROX9qva/4d27aUS4+3pt9Ouj3W9tTXSW6v26OPjLW/VC7tR0umtpGXT3Pc2uNTk+fK6TlRe3wsaZ2UvE1z2piT3N/c1NpcMvmYRB2Pfn9r9T+l3bRMXr72eEvy+kuZe0zmbsfc/pbMnG1Iy0dvd+7zUr/lclNSayundbkpmdtmWj6ds6H0l6utO6XPsp30c76dk+/rL99fLt+Xl5uStB7TrffHb9K/YymXGZDaqvUxlLe+39ZJP+dC3py09D118t1vf2rW2rZLeXuh5jeMb6estlxrrtm2tO9pe2oDRX6sf/81qfU1pY/a+kOZc1xS2/n5kfsqkx+rpdbelNT6a02tvSlJbeT96LddPlZLrb2xdCudJRcmU3J/6b5LfdfaHsuU50Pqt3Z/SvnY2HIplx6vpWWdtExtufK+oZ/7aTkun+PVOqn1OZb+Oul2VrbbkrKdlvTXSbezst2hlOsO5ZoxPZ3rt9fI137fHvu6/WPPj7H0X5Nf89b3FP3tG0ra5pbU1h1Ky/Ll/tXuG0rLsnmZfqY8H1I7SdqXJf5NxrYt5dLjOanNfsrHy3byz2NtT32dpLZyur16zVj7Syb3W3vsUuasm+e26d/acZ+a1rlyP2ndvP3p59oyayX3Oze1NpdMeWxqj6+R3Gf5b225KUlt9NPadl72mmOQ28i358rrz92WqduRl0vrtByrNXPNPtfuXyupv1pal7uUfjtlasun1JYdS62NlNqytaRl0/kaS162fzv3Vd7Xkv46/W1It4eWL5ftLzclaV2mW+eP31xKUv48ID9JWpOXT//mIt6ctPY7dfLd7+NShtbvP1bLNW8U+3l7keY3jG+nrbZca1q2rTwOZcYGiTyYXDOQ1JLam9vmlHWvOWepj/6x6h+L2jJlG3OT97GWsWXKNuYmtdPfp5Sy/doyZRuX0q1QvX9O3+X6l9LyfEjt59QeTymXGVsuZe6ytcdrqS2fb/f/HUrb+NFWLJqTOW331/kcT6enbKcl/XX67V1Kue5Qrhm7Uh/lOU8/537Ln3P6yy+d1H5Wvnb7yfrbN5S0zS2prTuUluVr2z6UqeuU/ZSZ8nxI7WRpf5b4d2zbUi49ntO19CXl47mdsr2xtqe+TlJb/dSWWytz+rxmO9P5y+svkVofU5LbSduVUltmyeR+hlJuSy21NpdM6mOpYzslud+l9jHvQz9j7afHci4t25rczlx5W2ptT0nrdizV3xKZux1pH1Jqj62R3F8/Q8tde3+ZvEw/tWXHUmsjpbZsLelc5edY7f7yXJbLpX9ry6yR3FftsblJbTLd+r9j8gpTnyT5yVsWAKdmSp9TJ9/9fi5laP3+Y7Vc80axTHrTdZ50Xt7SH2Ra07JtaR+ntp8HlrnbNZTU3tw2p6y71DkbSzo+/dSWWyP5WJSpLbdGIvY77U/X8GvK++f2O+X5EHks+5nTd//859stbbWNH23FojmZ0/b5GPqW2nKXMme9fr9T2mhd9pqxK/XRfy7kfsufc/rLL53U/hT97RtK2uaWtCxfLpN/Hkp/3CnHon6Glrl0fz9Tng+pnSTtyxL/JmPblnLp8dbUjsNY21NfJ7n9Wj9RmdJ3xHam8xx9LPJ+pb5TasusnS32u5+8DUttR9ne0qn1N5S8Hf1zm26XyW33l7smud2pltyO3NaYpfd7btJ2pNQea0nah5za40untb+hZabeXyYvc2m5KZnaZlpu6LmTz2U+n+Wy+efy/nLdpbNGH6lNpru7wmRZ/Jua1jcYOVMn3+d9Xc7Q+v3HarnmjWKZdEzOk87LW9KLrrbOpbRsW9rHqe2vNXildufu65R1lzpnl5KOUT+15dZIPh5lasutkYj97hp9Tf/+Of1OeT5EHsd+rum7fA60ttM2fkwby6dkibbnthHdd+uy14xdqY/y3Kefc7/55/RvTn/5pZPanyJv66WU+zCW2rpDaVm+P+aU41A/Q8tcur+fKc+H1E6W9meJf8e2LaXch2vTb7e83c/U10mtjy3Ssh1R25rO8VbHJO9j2oba42tmy/3Oyduw1P6ndlqT+21Nrb+hpOUvtV8+XmtjbnLb+fYlebklz0Nua8yS/V2T8ljNTdqPnNrjtczd99a+hpaZen+ZvMyl5aZkSptpmXS+as+d8rH8ePlzvl0um/4t21gyZX9LJbXJdOv+8ZsrTX2SpOWvSa3NsUydfCtMvmWpbSuTB5WWYzM3qY+p+zxlnTWOy1DysSpTW26N5GNSprbcGonY767R1/Tvn9rvlOdD5DHsJ7rvluPSWiyakyXanttGdN+ty14zdqU+yudQ+rnsN9/OWfv5VvbVmlo7taRtv5TaekNpWb4/3kwZg8bWLe/vZ8rzIbWztLFtS7n0eGvKdlranPo6WWo7l0jalqHtGXts6aTn/JbHJfU99XW6RLbe75St9j1lzb7zsR3L2vud+7gkb2utjblp6TvqGAzdn1N7fE7SvpSZ+nhrWtuY2s+UNqe0eymtbZbnrH/e0rr9x/vJ7feXvdTv3OR+ao/NTWqT6db74zcLWPpJsnTmTDKXSq39Mte8USzz9U3YR91l9gCx1LaVycdlrUErJ7Xf2seUZVPWOC5jKZ9PObXl1kg+NmVqy62RiP3uGn1N//4pfbc8H2rHccnU+sypLb9kan2mtByXKcWiqVmi7bltRPfduuw1Y1c616mfMmPn/54zdb9blq+NOTm15cvU1ilTWydlyvOh1u4SqfWVc+nx1uR2Wtub+jrpml08tX5aUzu2tfvWzNt4EddfP6nvLcan6P3O/ZVJ922x7ym5/9pj95J8zMfkZWrrz00+v5cScfxr/daWWzJpv2qpLTs1S7c3JWv0vUabt5C0P0s/11KbTLfOH79ZSMSAdE2ueTO2dpbatv4bxnR6c+YOTGsct/RciRgoUx9TU2unli2eT+m4lakts1bmHqclErHfXcPV+1v7nvJ8qB2/pe8bSnTfLccljVW1+5fIEm3PbSO679Zlrx270jkvU1vmEdI/Di2ptVOmP96UqS1fprZOmdo6KUtcy1L7U41tU5nW5S7l0nHoZ4tr/NIp93nq/i+R9JyP7rNM6rvldbd0ovc795f+zaktF5Wtjntkase8lqWfB7U+hlJbX4ZTO4ZlausslVp/ZWrrlKmtU6a2zl6T9meN1xXTrfI7JpdMrY9byS1PMpfatvTG9Dy3W5hMWXuwTO1PTa2dWrZ6Pm35Wpt6jJbMlvvd0veU50PtGC5931Ci+245Ll/HrWVT63NKam22ptbelNTaHEutjX62GrvkcvJYU0tt+TK1dcrU1klZ4vlQ668ltbb6qa03N7X2h3Ivr5O5+79E0vVhi35zUt+XrlFrJHq/tz7O/Wx13COTj3lLauvL7SWd07HU1lkqtf7K1NYpU1unTG2dPSbtyxqvq9Qu0y1emHyk3PIk07btL46LlPF8qMdxub04J1LG86Eex0VEROT+ozA5z+J//OaRcsuTTNu2vzguUsbzoR7H5fbinEgZz4d6HBcREZH7j8LkPIv/8RsREREREREREZFHisLkPIv/8RsREREREREREZFHisLkPH7HpIiIiIiIiIiIyBVRmJxHYVJEREREREREROSKKEzOozApIiIiIiIiIiJyRRQm5/koTKYDKCIiIiIiIiIiIrJ2vhQm//W//tciIiIiIiIiIiIiq+U//af/VC9MAgAAAACsRWESAAAAAAinMAkAAAAAhFOYBAAAAADCKUwCAAAAAOEUJgEAAACAcAqTAAAAAEA4hUkAAAAAIJzCJAAAAAAQLhcmf/SjHylMAgAAAAAxFCYBAAAAgHAKkwAAAABAOIVJAAAAACCcwiQAAAAAEE5hEgAAAAAIpzAJAAAAAIRTmAQAAAAAwilMAgAAAADhFCYBAAAAgHAKkwAAAABAOIVJAAAAACCcwiQAAAAAEE5hEgAAAAAIpzAJAAAAAIRTmAQAAAAAwilMAgAAAADhcmHyT//0TxUmAQAAAIAYPjEJAAAAAIRTmAQAAAAAwilMAgAAAADhFCYBAAAAgHAKkwAAAABAOIVJAAAAACCcwiQAAAAAEE5hEgAAAAAIpzAJAAAAAIRTmAQAAAAAwilMAgAAAADhFCYBAAAAgHAKkwAAAABAOIVJAAAAACCcwiQAAAAAEC4XJn/+858rTAIAAAAAMXxiEgAAAAAIpzAJAAAAAIRTmAQAAAAAwuXC5B/8wR8oTAIAAAAAMXJh8g//8A8VJgEAAACAGL7KDQAAAACEU5gEAAAAAMIpTAIAAAAA4RQmAQAAAIBwCpMAAAAAQDiFSQAAAAAgnMIkAAAAABBOYRIAAAAACKcwCQAAAACEU5gEAAAAAMIpTAIAAAAA4RQmAQAAAIBwCpMAAAAAQDiFSQAAAAAgnMIkAAAAABBOYRIAAAAACKcwCQAAAACEU5gEAAAAAMIpTAIAAAAA4RQmAQAAAIBwCpMAAAAAQDiFSQAAAAAgnMIkAAAAABBOYRIAAAAACKcwCQAAAACEU5gEAAAAAMIpTAIAAAAA4RQmAQAAAIBwCpMAAAAAQDiFSQAAAAAgnMIkAAAAABBOYRIAAAAACKcwCQAAAACEy4XJn/3s5wqTAAAAAECMXJj8/vvvFSYBAAAAgBgKkwAAAABAOIVJAAAAACCcwiQAAAAAEE5hEgAAAAAIpzAJAAAAAIRTmAQAAAAAwilMAgAAAADhFCYBAAAAgHAKkwAAAABAOIVJAAAAACCcwiQAAAAAEE5hEgAAAAAIpzAJAAAAAIRTmAQAAAAAwilMAgAAAADhFCYBAAAAgHAKkwAAAABAOIVJAAAAACCcwiQAAAAAEE5hEgAAAAAIpzAJAAAAAIRTmAQAAAAAwilMAgAAAADhFCYBAAAAgHAKkwAAAABAOIVJAAAAACCcwiQAAAAAEE5hEgAAAAAIpzAJAAAAAIRTmAQAAAAAwilMAgAAAADhFCYBAAAAgHAKkwDswrdvfy53EAAAgExhEoBdUNTaP+cQAAAoKUwCsAuKWvvnHAIAACWFSQB2QVFr/5xDAACgpDAJwC4oau2fcwgAAJQUJgHYBUWt/XMOAQCAksIkALugqLV/ziEAAFBSmARgFxS19s85BAAASgqTAOyCotb+OYcAwNr+4Z/+v9j8d5Hr8ugUJgHYBUWt/XMOAYC1VYuHa6ZSaBKZkkenMAnALihq7Z9zCACsrVo8XDOVQpPIlDw6hUkAdkFRa/+cQwBgbdXi4ZqpFJpEpuTRKUwCsAuKWvvnHFLz7dv8AEBftXi4ZiqFJpEpeXQKkwDsgqLW/jmH1NQKjq0BgL5q8XDNVApNIlPy6BQmAdgFRa39cw6pqRUcWwMAfdXi4ZrpFZn+7jd/dfqbfyjv+8fT3/zVX59+84/Fff/wX09/9Zt/PP3DP/796b/0H2tKpc2lkrbtr/7qPf/19He1ZcrM3gfJeXQKkwDsgqLW/jmH1NQKjq0BgL5q8XDN9AtNueiYb78W7v7q9F/+7r9/3Pff/u6vz25Pz0qFyddtLYqR3e3fnBVZZY08OoVJAHZBUWv/nENqagXH1gBAX7V4uGb6haZU3Pvrvz/9t/fbqQj5N3/X3fdRrPzvp9/89bVFxZUKk6moWmy7xOTRKUwCsAuKWvvnHFJTKzi2BgD6qsXDNfOl0FQWHvPPqZCYP4nY/zkv+/7z331+lfrsU5Xvn7x8u//vzwuTxWMp+avk518r7xUz0zrlJzs/lun1+3H/0LZV9uEfym295pOhj5FHpzAJwC4oau2fc0hNreDYGgDoqxYP10yl0PRZEPzH09+8fwLx737zXrw7+6p3v6j3V5+Pvf6ux7KA+VlkTJ/C/Kveeh8FyNciZaWv7uf/8tefXyEf/jp5KqaeFzgvb1tvH/KnLstteV1Wanl0CpNAuNqbS3mk/PnssG+1c9qW/nNIRERk2XA/qsXDNVMpNH0UBIvCYC4EnhcE+0W9sohX3E4FvrOvWPceK38vZJePwmix3mthNH2S8fV2w9fJX9stCqxD2zb481u+/jEg6efRKUwC4Uz+mCMVqNg355CafnFgSgCWYDy5L9Xi4ZqpFJpyQfDv0u+XLD/J+Ju/7xUEx4p6xe2iwFh9bKgwWX6V/KMg2S37pb16Xj+Z+VpYHdm2wZ9T3j59qTA5nkenMAmEM/ljDkWt/XMOqSkLjVMDsATjyX2pFg/XTKXQ9Pl16H4xL91XFhHHinr9xz4LfJe/yv3Zx+snNHtf4f6b3/zX+te4/+Hvi/7f9uFtuUvbdr4tH21XiqbyNY9OYRIIZ/LHHIpa++ccUlMWGqcGYAnGk/tSLR6umUqhKeW1eNj7VGL6JOPH72l8zVCBr3L79fc6psJmKvyN/fGbso38WH/Z3jIfeSss5n4+t3Vs277+/De/SYXTtzZ8WvJyHp3CJBDO5I85FLX2zzmkpiw0Tg3AEown96VaPFwzlULT46ZfwJSWPDqFSSCcyR9zKGrtn3NITVlonBqAJRhP7ku1eLhmKoWmx43C5Jw8OoVJIJzJH3Moau2fc0hNWWicGoAlGE/uS7V4uGYqhabHjcLknDw6hUkgnMkfcyhq7Z9zSE1ZaJwagCUYT+5LtXi4ZiqFJpEpeXQKk0A4kz/mUNTaP+eQqVwvgAjGmvtSLR6umUqhSWRKHp3CJBDO5I85FLX2zzlkKtcLIIKx5r5Ui4drplJoEpmSR6cwCYQz+WMORa39cw6ZyvUCiGCsuS/V4uGaqRSaRKbk0SlMAuFM/phDUWv/nEOmcr0AIhhrALajMAmEM/ljDkWt/XMOmcr1AohgrAHYjsIkEM7kjzkUtfbPOWQq1wsggrEGYDsKk0A4kz/mUNTaP+eQqVwvgAjGGoDtKEwC4Uz+mENRa/+cQ6ZyvQAiGGsAtqMwCYQz+WMORa39cw6ZyvUCiGCsAdiOwiQQzuSPORS19s85ZCrXCyCCsQZgOwqTQDiTP+ZQ1No/55CpXC+ACMYagO0oTALhTP6YQ1Fr/5xDpnK9ACIYawC2ozAJhDP5Y45U1JL9B6ZwvQAiGGsAtqMwCYQz+QOghesFEMFYA7AdhUkgnMkfAC1cL4AIxhqA7ShMAuFM/gBo4XoBRDDWAGxHYRIIZ/IHQAvXCyCCsQZgOwqTQDiTPwBauF4AEYw1ANtRmATCmfyxey8vp5f3H4H1uF4AEYw1ANtRmATCmfyxZy9Ph+45fDw9v98G1uN6AUQw1gBsR2ESCGfyxz69nJ6PqSj5bVeFyZeXbrufn1/zdDyejmd5+ngsLedToNwa1wsggrEGYDsKk0A4kz925+X5dDykgmTODRcmu219Oh5Oh49tnZpu3VSwfFGmZHvdUxJgdcYagO0oTALhTP6I8fL2KcD3zPbyVCny3V5h8uX5qVc8XSCH4+npWYGS7XRPQ4DVGWsAtqMwCYQz+WM9L6fnp+PIpwUPp+PTc/NXlt9+n2StndsqTH5+xXydHI7txwyW1D39AFZnrAHYjsIkEM7kj3W8nJ5aPzGYPgk4Wmm71NbtFCafj7XtWyHHvfxWTe5J99QDWJ2xBmA7CpNAOJM/ljehKPmRw6laa/vy+yRruZHC5POxsm3r5TBezYXFdU87gNUZawC2ozAJhDP5Y2nDX7m+lMPZJydfnse+Bl7mFgqTz6djddvWzO39bk3uW/e0A1idsQZgOwqTQDiTP5Z1ZYHu8HR66f436fc0vq6zseBPS+b4RjeRuqccwOqMNQDbUZgEwpn8saT5n5b8zGHC18Bv5evMl3635OH1L2o/v/1V8vd1hr395fLnp/SXvS8cT5VJAnVPOYDVGWsAtqMwCYQz+WNJYX/8pfe1722N/U7N4+n52u1Mv2ez2naXW/i0KA+je8oBrM5YA7AdhUkgnMkfyxn/ozeH49unBp+7PHU/T/lk5Flurhg3XDhc7AONg18V93smidM95QBWZ6wB2I7CJBDO5I/lDBUmhz81OPWr37f5l6iHCpNLFg0j+oBx3VMOYHXGGoDtKEwC4Uz+WE69eHapmNj29e9b+up2n8Ikj6F7ygGszlgDsB2FSSCcyR/LqRXPGgqKl/6i9c3/HsWhoqGvcnNfuqccwOqMNQDbUZgEwpn8sZxaga6hcPbydDp8We8tt/nV7b6x3615OD1d+ddvXp6Hj48/fkOk7ikHsDpjDcB2FCaBcCZ/LGdmYbK63vUFvUiXv45+OB2fnl7/8M/Ly8tb3tf99H5/l48/EFRtq8hiH8mEy7qnHMDqjDUA21GYBMKZ/LGcJQuTO/uK8qWvo68UdUkidU85gNUZawC2ozAJhDP5YzkPXJgc/Tr3SvE1boJ1TzuA1RlrALajMAmEM/ljOfWvZB+Ox9NxNN0ys9bLuZECXfCnJn1akmjd0w5gdcYagO0oTALhTP5YTq0wGZHb+XTly9Ohsn3LZx9/FIh70z31AFZnrAHYjsIkEM7kj+UoTCZrFycVJdlK9/QDWJ2xBmA7CpNAOJM/lqMw+eGlOxaHZQuUh0O3n2qSbKh7GgKszlgDsB2FSSCcyR/LUZj84uXl9Px0PB1mFilTMfL49Jyagc11T0mA1RlrALajMAmEM/ljOQqTl72cXlKx8vl5IG+Pq0Nyi7qXG8DqjDUA21GYBMKZ/LEchclwipgE6l5uAKsz1gBsR2ESCGfyx3IUJiO9/ZGdBy7KEq57uQGszlgDsB2FSSCcyR/szcvp+Zh/Z6XCJHFcL4AIxhqA7ShMAuFM/mBHXv/at0+Lsg3XCyCCsQZgOwqTQDiTP1jb+x+0ec9sL0+nw0dBUmGSeK4XQARjDcB2FCaBcCZ/sIaX0/PTsVJIzDmcjk/PzX+45u33SdbaUZgkTveUA1idsQZgOwqTQDiTP1jay+np7OvWIzkcT0+j1clLbSlMEqd7ygGszlgDsB2FSSCcyR8saUJR8iOH07FWXfzy+yRrUZgkTveUA1idsQZgOwqTQDiTP1jO8FeuL+Vw9snJl+exr4GXUZgkTveUA1idsQZgOwqTQDiTP1jK8+n4UTCckcPT6aX73/NxQnHzdR2I0T3lAFZnrAHYjsIkEM7kD5Yx/9OSnzlM+Br4YfyXU8LiuqcdwOqMNQDbUZgEwpn8wTKej/UC4vI5/9o3ROmefgCrM9YAbEdhEghn8gdLGP+jN4fj8fT0/Hx67vLU/Tzlk5Fn8dVtNtQ9BQFWZ6wB2I7CJBDO5A+WMFSYPJ6eByqJU7/67avbbK17GgKszlgDsB2FSSCcyR8sof6Hby4VE9u+/u2r29yG7ukIsDpjDcB2FCaBcCZ/sIRaYbKhoPh87K3Ti69uc0O6pyTA6ow1ANtRmATCmfzBEmqFyWN37wUvT6fDl/Xe4qvb3JruaQmwOmMNwHYUJoFwJn+whJmFyaFPWg79YkrYUPf0BFidsQZgOwqTQDiTP1jCkoXJlvUgXvf0BFidsQZgOwqTQDiTP1iCwiT3r3t6AqzOWAOwHYVJIJzJHyyh/pXsw/F4Oo6mW2bWejn+OA5xuqcnwOqMNQDbUZgEwpn8wRJqhcmI+HQlcbqnHMDqjDUA21GYBMKZ/MESFCa5f91TDmB1xhqA7ShMAuFM/mAJCpPcv+4pB7A6Yw3AdhQmgXAmf7AEhUnuX/eUA1idsQZgOwqTQDiTP1iCwiT3r3vKAazOWAOwHYVJIJzJHyxBYZL71z3lAFZnrAHYjsIkEM7kD5agMMn9655yAKsz1gBsR2ESCGfyB0AL1wsggrEGYDsKk0A4kz8AWrheABGMNQDbUZgEwpn8AdDC9QKIYKwB2I7CJBDO5A+AFq4XQARjDcB2FCaBcCZ/ALRwvQAiGGsAtqMwCYQz+QOghesFEMFYA7AdhUkgnMkfAC1cL4AIxhqA7ShMAuFM/gBo4XoBRDDWAGxHYRIIZ/IHQAvXCyCCsQZgOwqTQDiTPwBauF4AEYw1ANtRmATCmfwB0ML1AohgrAHYjsIkEM7kD4AWrhdABGMNwHYUJoFwJn8AtHC9ACIYawC2ozAJhDP5A6CF6wUQwVgDsB2FSSCcyR8ALVwvgAjGGoDtKEwC4Uz+AGjhegFEMNYAbEdhEghn8gdAC9cLIIKxBmA7CpNAOJM/AFq4XgARjDUA21GYBMKZ/AHQwvUCiGCsAdiOwiQQzuQPgBauF0AEYw3AdhQmgXAmfwC0cL0AIhhrALajMAmEM/kDoIXrBRDBWAOwHYVJIJzJHwAtXC+ACMYagO0oTALhTP4AaOF6AUQw1gBsR2ESCGfyB0AL1wsggrEGYDsKk0A4kz8AWrheABGMNQDbUZgEwpn8AdDC9QKIYKwB2I7CJBDO5A+AFq4XQARjDcB2FCaBcCZ/ALRwvQAiGGsAtqMwCYQz+QOghesFEMFYA7AdhUkgnMkfAC1cL4AIxhqA7ShMAuFM/gBo4XoBRDDWAGxHYRIIZ/IHQAvXCyCCsQZgOwqTQDiTPwBauF4AEYw1ANtRmATCmfzN8/LyfHo6Hk6Hw6E7ht/O0913OD6dnp5f3pcG2D/XCyDCt29//v7Til5eTs9Px9MxzdkOvXlcnssdusefnk9zp3PmisAeKUwC4bq50e17eTod+hO6IoenGZO652O1rbccTkNNvjw/dZPY2jpDOZyOJp3AHeiGNIDVrVmYnD6Py+nmc0/Pp5YZnbkisGcKk0C4bj60Ay+np7EJ3uGpaaJYej5W2skZaO/lqfJfvBtzOD6/twKwT91QBrC6dQqT3VzyOH8e95lUoByedZorAnunMAmE6+ZBuzA+0Rv+hGPd8+lYbecttU9gXjPRzJn1yU6AG9ENYwCrW7ww+TI+75ucgQKiuSJwDxQmgXDdHGgflvw699SvcV/ouz1TC6gAt6MbxgBWt2xhcuGiZEqtMGmuCNwJhUkgXDcH2onlvs499Wvco8tPja/pADvVDWEAq1uuMHlh7jg3lbmcuSJwLxQmgXDd/Gc/Zv7BmnMTv8Z98b+Ad/0Wv7A8/cLzi8u3VlABbkg3hAGsbqnCZPNXqw/H17nc2fTspbvdzTurf7G7Xzg0VwTuiMIkEK6b/+zI9N8N+cXo5PHY9XDu0qS2+h+1Rwuofn8QsE/d8AWwumUKky1f4W77a9ivBcpyvd7kz1wRuCcKk0C4bu6zK3P+mnZpdPL4ZeY49+vjy/8VcYCtdcMXwOqWKEy2fFqyWjAcVMztzlY0VwTui8IkEK6b++zLVV/nHp8Efp2gzv+E5viE+OsnMwFuXTd8Aazu+sLkhaJfl7mfSHw+dvO7swmjuSJwXxQmgXDd3Gdnrvg698SvcY8vf+G/tF9VQAW4Pd3wBbC6qwuTF3/n44JFP3NF4M4oTALhurnP7sz9Ove0r3F3rpkwXjNRBbhB3dAFsLqrC5MXfn9jdc43l7kicGcUJoFw3bxnf0YngUP/FXzq17g7JpsAH7qhC2B11xYmL/1+yUXnYOaKwJ1RmATCdfOeHRr/Ond1Ijc6+RsoZs4qgGZXfOUc4AZ1QxfA6q4tTI5+s2bpr0ibKwJ3RmESCNfNe3ZpdNJZqUxO/hp357pfSm6yCdyXbujq8ufVACzl2jElsjBprgjcG4VJINxu31BO+i/UM77G3THZBGhTFil3e10BbsK1Y8h4YfLS/G0ac0Xg3ihMAuH2+wZyfDJ3Vmyc8zXujskmwDwKlMBc6xYmfWISYIzCJBBuz28cW7/OPTppHPq4ZOL3BgFcRYESmGpPhUlzReDeKEwC4Xb9hrFpMjjva9yvRtv3lxYBWilQAq2uHSvGP8W48BzMXBG4MwqTQLh9v1Fs+Dr3zK9xvzLZBFiUAiVwydVjxOj8rcuSkzBzReDOKEwC4fb+BvHS17Rnf407uWbCeM1EFeDOKU4CQ64eHy7M3y5/xXoCc0XgzihMAuF2/+ZwdEJ4OB0Gv8bdMuGb/7t/rvtl6AD3T3ESqLl+bBj/NT4pc39/4+v87qzaaK4I3BeFSSDc/t8YXp58VnN46ta85ELbg23MXQ/gcShMAjVLjA3jRb+UqZ9IfDk9H9/bPCtMmisC90VhEgh3D28ML08+v6b1v5Rfarv6FZ0Lv9vIX1kEeKM4CfQtMi5c/Dp3yqGbx12ek708P52OZRGxN/kzVwTuicIkEO4u3hQ2TT7LTPiv5BfbPp/UpsnrpeXNNQE+KU4CpaXGhOdjbR5WyeF4eurmci9n87Pudr8gmdOvNJorAndEYRIIdx9vCCd+nXvi12OaJ7Yt8dUcgC8UJ4FsufFg/Pc/zk7lI5DmisC9UJgEwt3Lm8EpX+ee/PWYyZ/IHIr/Ag4wRHESSBYdCxabwxWpfTfbXBG4EwqTQLi7eSPYPCGcN+Gb83ss+/H7ggCGKUwCyeJjwdLFyeovjTRXBO6DwiSwqjTRa8k+NX6d+4qvx3z8NcYZOQxMYgH4tN9rELCUVcaBl+f674ucnPE/mGOuCOydwiRwlbK4WEur2rplblXLf6m+9r9Ev/7C8kkT27a/+AiAwiSw7jjw8nycOI97z/sfyGlhrgjsmcIkMNkWBcMt+mxy8as6y/3enpeX59PT8dBNPL8WQ9N9h+NT8wQWgE83d20BQoWMAWke93Q8HdOcrTePe83rXO7YLfM8+5s25orAHilMAk1uqTB4S9sCwP65nsBjMwYAbEdhEhi0hwLgHrYRgNvnOgKPy+sfYDsKk8AXey307XW7Adie6wc8Lq9/gO0oTAIf7qWwdy/7AUAc1w14XF7/ANtRmATCC3lRfUXvFwD75XoBj8vrH2A7CpPwwLYq3EX3udV+ArAvrhXwmLz2AbajMAkPaOtC3VZ9b73fANw21wh4TF77ANtRmIQHcwsTr623weQTgBrXB3hMXvsA21GYhAdyK5OuW9gOE1AA+lwb4DF57QNsR2ESHsQtTbhuZVtMQgHoc22Ax+N1D7AdhUl4ALc22bql7TERBaDkugCPx+seYDsKk3DH0iTrFidat7ZNt3qcAIh3q9eDl5fn09PxcDocDt02fjtPd9/h+HR6en55XxqYwjwQYDufhcl/oTAJ9+SWJ1i3um0mpQCPrf068Hw69ouDRQ5PyxUIX56fTsdDvZ96DqejAiVMYg4IsJ2PwuThf1GYhHtx65OrW94+E1OAx3VrhcmXp8qnIxtzOD6/twJcYv4HsJ1cmPzxn/wrhUm4B3uYWN36NpqcAjymWypMXlOUzFnyk5twz8z9ALaTC5O/978rTMLu7WVStYftNEEFeDw3U5h8eTodKu1Oz+GkNgmXmfcBbCcXJv/5n/6RwiTs2Z4mVHvZVpNUgMdyK4XJ52O93VnxlW64yJwPYDu5MPnz/9Vf5YZdU5hcnkkqwGO5icLkxU9LHs7++nb64zgXl/epSRhlzgewnVyY/On3CpOwW1tNplK/0Ym2RZ8AbKN9zF+vMHnpd0tWPwD5fKwum+N3TbI35dzvngPAZ2Hye4VJ2Kc9Tmr2ts0mjgD3b9pYv1Zh8uX0dKi3+ZrDU7dEzdz1AAC2pTAJO7bXgpliKgC35jYKk/PbHf+k5bFrGQDg9ihMwk7tuVCmoArALZk+vq9UmLzw+yVH/47N6Ne5/Z5JAOA2KUzCDu29QKaoCsAtuZnC5DXFxWuKmgAAG1GYhB1SmNyOwiTA/VGYBADYhsIk7Mw9FMYUVgG4FfPG9C0Kk5d+T+RK2wQAsCKFSdgZhcntKUwCLC+NrS1Z2rw21ykCXvcHbBQmAYD9UZiEHVnjDdkW7mE/7uVcAGwljaNlWvXXm7Ju3/x1FSYBAJagMAk7cs2br1tyD/txL+cCIFoaP5ceQ3ObU9q9bhsUJgEAlqAwCTux9Ju4Ld3LvtzTOQFYWxozI8bNln6u346VioB+xyQA8GAUJmEnIt7MRbmXfbmncwKwljRWbjFeDvW5zLZsUZj0V7kBgPujMAk7cG8FsHvan3s7NwBL2nqMTP33t2GZbVKYBABYgsIk7MC9Fb/uaX/u7dwAXCOPienfWxofy+1axkqFyWuKi9cUNQEANqIwCTfult7YLeXe9ukezxHAXGlMvMVxcdltWuv3Oc5v97o/nAO3JY8j9x4AFCbh5pm03D7nCOBNOR7e0tiYt2W5bVqrMPlyejrU23zN4albombuekBiLgewHYVJuHEmSrfPOQKoS+PjlmNkv//ltmWtwuSlTz4OfJ179Gvc120PPIItxymAR5cLkz/+k3+lMAm3xiRpP5wrgGHRY2Tqb6jPZbZlvcLkpd8zmX5f5PH5s/2X58vLq0vCOPM4gO3kwuQf/ukfKUzCrTFJ2g/nCmBcGicjxsqWPq7fjvHC5NT0C5nPx/pys+Jr3HCReRzAdnyVG26YSdJ+OFcAbdJ4WWYpU9u7ru91C5OXPzXZGp+WhBZLjkUATKMwCTfKBGl/nDOA6dLYWWaKueslc9b5tHJhsnPpd022xO+WhDbXjQcAXENhEm6UCdL+OGcA10tjaWuuNb+N9QuTyfNxfnHyUP0rOUDNEuMJAPMoTMKNMkHaH+cMYH/mjd0xhcnk9Y/bHOrr1XP+x3GAy8zhALajMAk3yORov5w7gH259cJk9vLyfHo6Hk6Hw9dPUab7Dsen05OCJMxi/gawHYVJuEEmR/vl3AHsj7EbHpsxAGA7CpNwg0yO9su5A9gfYzc8NmMAwHYUJuEGmRztl3MHsE/Gb3hcXv8A21GYhBtkcrRfzh3APhm/4XF5/QNsR2ESbpDJ0X45dwD7ZPyGx+X1D7AdhUm4QSZH++XcAeyXMRwek9c+wHYUJuHGmBjtm/MHsF/GcHhMXvsA21GYhBtjYrR/ziHAPhm/4TF57QNsR2ESboyJ0f45hwD7ZPyGx+S1D7AdhUm4MSZG++ccAuyT8Rsek9c+wHYUJuHGmBjtn3MIsF/GcHg8XvcA21GYhBtjYrR/ziHAfhnD4fGEvO5fXk7PT8fT8XA4HQ7fuj57eb2/e/zp+fT88r4OwANQmIQb4w3R/jmHAPtlDIfHs+br/uX56XSsFSIv5vBapFSjBO6dwiTcGG+I9s85BNgvYzg8nnVe9y+np+Oha7tWdJySVKBUngTul8Ik3BhviPbPOQTYJ+M3PKbFX/svz6djtcg4M8fn94YB7o/CJNwYb4r2zzkE2CfjNzymZV/7CxclUxQmgTumMAk3xpuifXP+APbLGA6PabnX/svpadbvk7wQhUngjilMwg3yxmi/nDuA/TKGw2Na6rX/8tT4OyUPx9PT88v5H7Z56W4/H+t/sVthErhjCpNwg7wx2i/nDmC/jOHwmJZ57bd8hftwOj5f/kM2rwXKcj2FSeCOKUzCDfLGaL+cO4B9Mn7D41ri9d/yaclp9cXia+EKk8AdU5iEG+TN0X45dwD7ZPyGx3X96//y75Y8PF3+pGTN8/GgMAncNYVJuEHeHO2XcwewT8ZveFxXv/5fns6/ev0lx5PSIkCdwiTcIG+O9su5A9gfYzc8tqvHgOdj10atIPken3gEGKQwCTfIG6T9cu4A9sfYDY/t2jHg0u+XVJcEGKYwCTfKm6T9cc4A9sfYDVw7Djwf6wXJtxxOM3+9JMBDUJiEG+WN0v44ZwD7Y+wGFCYBtqMwCTfKG6X9cc4Apknj5rW5xrXrA/fh2rFgvDDpD98AjFGYhBvmDdN+OFcA7dKYudS4Obct4zaQXTse+MQkwHwKk3DDvGnaD+cK4LI0Vq41Xk5t27gNZNeOBwqTAPMpTMIN86ZpP5wrgGFpjIwaJ1v6MmYDpWvHBH+VG2A+hUm4cd483T7nCKAujY9bjZFDfRuzgb6rx4XnY9dGvSj5GpVJgEEKk3DjvIG6fc4RwJtyPLyVsfEWtwm4LVePDS9Pp0OtIPkRfwAHYIjCJNw4b6Jun3ME8CmNibc2Lt7iNgG34/rx4eX0dKgVJD9zmPmLJl+/Ju4Tl8AdU5iEHfBm6nY5NwDn8rh4K+Nj2o5b2ybgtiwxNlz6PZPT/wjOy+n5+N6mwiRwxxQmYQe8kbpdzg3Ap/6YuPUYWevfuA30LTIuXPw6d8rhdHy+XJ18eX46HctPYCpMAndMYRJ2whup2+OcAFyWxsro8XKsT2M30LfUuPB8LIqJYzkcT0/PL6eXsxpld7tfkMxRmATumMIk7IQ3UrfHOQFoFzFmpj5a+jF+A6XlxoTn07FfVFwiCpPAHVOYhB3xRup2OBcA06Wxc43xc067xnEgW3Q8aPpK98QoTAJ3TGESdsSbqNvhXADMl8bQJcbRa9sxlgPJ4mPB0sVJhUngjilMws54E7U95wBgGWk8HUvNpcenWqodYL9WGQdenuu/L3Jy2v5gDsBeKUzCzngDtT3nACBGGm/7WdoabQL78u3b+w8reHk+ng5zCpTvfyAH4N4pTMIOeRO1Hcce4L7MG9fH/8DF4UkxAfake9mu7+X59PR0PB0Ph/rXvNP9x2O3zPPJCAI8EoVJ2CHFse049gD3Z/rYrjAJ96R72QKwEYVJ2CkFsniOOcB9UpiEx9a9bAHYiMIk7JhCWRzHGuB+KUzCY+tetgBsRGESdk7BbH2OMcD9mzbWK0zCPeletgBsRGES7oDC2XocW4DHoDAJj6t72QKwEYVJuBNbFNBSn9GJFN0fANtqH/cVJuGedC9bADaiMAl3QhFteY4pwGNRmITH1L1sAdiIwiTcEYW05TiWAI9HYRIeU/eyBWAjCpNwZxTUrucYAjwmhUl4TN3LFoCNKEzCHVJYm8+xA3hcCpPwmLqXLQAbUZiEO6XANp1jBvDYFCbhMXUvWwA2ojAJdyy9wVJsu8xxAiBRmITH1L1sAdiIwiQ8AEW3YY4NAKW264LCJNyT7mULwEYUJuFBKMB95ZgA0KcwCY+ne9kCsBGFSXggCnGfHAsAahQm4fF0L1sANqIwCQ9GQc4xAKCu/fqgMAn3pHvZArARhUl4QOmN1yMW5x51vwFoozAJj6l72QKwEYVJeGCPUqhTkASghcIkPKbuZQvARhQmgW4ydp+FOwVJAKZQmITH1L1sAdiIwiTw4V4KeQqSAEw17bqhMAn3pHvZArARhUngi70W9hQkAZhLYRIeV/eyBWAjuTD5s5/9XGESOJcLfbdc7NvDNgJw+6ZdRxQm4Z50L1sANpILkz/60Y8UJoFht1QAvKVtAWD/pl9PFCbhnnQvWwA2ojAJTLZFYXCLPgF4DNOvLeOFyalRyIRtdS9DADaiMAlcpSwY1tKqtm4ZAFjL9OuMwiTck+5lCMBGFCaBVfULjEMBgC3MuwYpTMI96V6GAGxEYRIIpxAJwK1QmAS6lyEAG1GYBMLtojD58nQ69N44lpn1JvL5WG3rLYeT96UAseZfjxQm4Z50L0MANqIwCYTbxycmX05Ph/obyNccnrolpnk+VtrJmdEeAPNddy1SmIR70r0MAdiIwiQQbh+FyfShycPZG8fzTP2E4/ibWG9KAeLs5ToExOimYgBsRGESCLebN4RLfp3b17gBbobCJFDqpmMAbERhEgi3nzeEy32d29e4AW6DoiTQ103HANiIwiQQbldvChf5pKOvcQPcAkVJoKabjgGwEYVJINy+3hguUFQc/Ur4sesBgLUpSgJDuikZABtRmATC7e3N4bVfwx79IzpHZUmANaVrjqIkMKabkgGwEYVJINzu3iBe9XXu8d9TqS4JsB4FSaBFNyUDYCMKk0C4/b1RvOLr3L7GDbAJRUmgVTctA2AjCpNAuD2+WZz7dW5f4waIla4xipLAFN20DICNKEwC4Xb5hnH069xDn3z0NW6ACLkYqSAJzNFNywDYiMIkEG6fbxzHv85dLTL6GjfAKspCpGIkcK1uagbARhQmgXB7nfyNfp27Upn0NW6A63TDZZfzIqRCJLC0NNYAsA2FSSDcbid/k77O7WvcANfqhkuA1RlrALajMAmE2+/kb8LXuX2NG+Bq3ZAJsDpjDcB2FCaBcHue/LV+ndvXuAGu1w2ZAKsz1gBsR2ESCLfryV/T17l9jRtgCd2QCbA6Yw3AdhQmgXD7nvw1fJ3b17gBFtENmwCrM9YAbEdhEgi398nfpa9p+xo3wDK6YRNgdcYagO0oTALhdj/5G/1E5OF0GPwa9+H09PLeBgAXdUMnwOqMNQDbUZgEwu1/8jf+OyQHc3jq1gSgVTd0AqzOWAOwHYVJINw9TP5Gv649kIOPSwJM0g2dAKsz1gBsR2ESCHcXk7/Rr3PX4mvcAFN1wyfA6ow1ANtRmATC3cfkb+LXuX2NG2CybvgEWJ2xBmA7uTD5s5/9XGESiHEvk78pX+f2NW6A6brhE2B1xhqA7eTC5Pfff68wCcS4m8lf89e5fY0bYI5uCAVYnbEGYDsKk0C4+5n8NX6d29e4AWbphlCA1RlrALajMAmEu6fJX8vXuX2NG2CebggFWJ2xBmA7CpNAuLua/F38OrevcQPM1Q2jAKsz1gBsR2ESCGfyB0AL1wsggrEGYDsKk0A4kz8AWrheABGMNQDbUZgEwpn8AdDC9QKIYKwB2I7CJBDO5A+AFq4XQARjDcB2FCaBcCZ/ALRwvQAiGGsAtqMwCYQz+QOghesFEMFYA7AdhUkgnMkfAC1cL4AIxhqA7ShMAuFM/gBo4XoBRDDWAGxHYRIIZ/IHQAvXCyCCsQZgOwqTQDiTPwBauF4AEYw1ANtRmATCmfwB0ML1AohgrAHYjsIkEM7kD4AWrhdABGMNwHYUJoFwJn8AtHC9ACIYawC2ozAJhDP5A6CF6wUQwVgDsJ1cmPyjP/mXCpNADJM/AFq4XgARjDUA2/GJSSCcyR8ALVwvgAjGGoDtKEwC4Uz+AGjhegFEMNYAbMdXuYFwJn8AtHC9ACIYawC28/GJyZ//vsIkEMPkD4AWrhdABGMNwHY+v8r9uwqTQAyTPwBauF4AEYw1ANvxVW4gnMkfAC1cL4AIxhqA7fjjN0A4kz8AWrheABGMNQDbUZgEwpn8AdDC9QKIYKwB2I7CJBDO5A+AFq4XQARjDcB2FCaBcCZ/ALRwvQAiGGsAtqMwCYQz+QOghesFEMFYA7AdhUkgnMkfAC1cL4AIxhqA7ShMAuFM/gBo4XoBRDDWAGxHYRIIZ/IHQAvXCyCCsQZgOwqTQDiTPwBauF4AEYw1ANvJhck/+pN/oTAJxDD5A6CF6wUQwVgDsJ1cmPyXCpNAFJM/AFq4XgARjDUA21GYBMKZ/AHQwvUCiGCsAdiOwiQQzuQPgBauF0AEYw3AdhQmgXAmfwC0cL0AIhhrALajMAmEM/kDoIXrBRDBWAOwHYVJIJzJHwAtXC+ACMYagO0oTALhTP4AaOF6AUQw1gBsR2ESCGfyB0AL1wsggrEGYDtnhck/+7M/U5gEVmfyB0AL1wsggrEGYDsKk0A4kz8AWrheABGMNQDbUZgEwpn8AdDC9QKIYKwB2E4uTP6RwiQQxeQPgBauF0AEYw3AdnJh8vvvv1eYBGKY/AHQwvUCiGCsAdiOwiQQzuQPgBauF0AEYw3AdhQmgXAmfwC0cL0AIhhrALajMAmEM/kDoIXrBRDBWAOwHYVJIJzJHwAtXC+ACMYagO0oTALhTP4AaOF6AUQw1gBsR2ESCGfyB0AL1wsggrEGYDsKk0A4kz8AWrheABGMNQDbUZgEwpn8AdDC9QKIYKwB2I7CJBDO5A+AFq4XQARjDcB2FCaBcCZ/ALRwvQAiGGsAtqMwCYQz+QOghesFEMFYA7AdhUkgnMkfAC1cL4AIxhqA7ShMAuFM/gBo4XoBRDDWAGxHYRIIZ/IHQAvXCyCCsQZgOwqTQDiTPwBauF4AEYw1ANtRmATCmfwB0ML1AohgrAHYjsIkEM7kD4AWrhdABGMNwHYUJoFwJn8AtHC9ACIYawC2ozAJhDP5A6CF6wUQwVgDsB2FSSCcyR8ALVwvgAjGGoDtKEwC4Uz+AGjhegFEMNYAbOesMPnzn/+BwiSwOpM/AFq4XgARjDUA2zkrTP6zf/bPFCaB1Zn8AdDC9QKIYKwB2M5ZYfJHv/29wiSwOpM/AFq4XgARjDUA2zkrTP727yhMAusz+QOghesFEMFYA7CdXmHyxwqTwOpM/gBo4XoBRDDWAGznvDD5vcIksD6TPwBauF4AEYw1ANs5K0z+zvc/UZgEVmfyB0AL1wsggrEGYDsKk0A4kz8AWrheABGMNQDbOS9M/lhhElifyR8ALVwvgAjGGoDtKEwC4Uz+AGjhegFEMNYAbEdhEghn8gdAC9cLIIKxBmA7uTD5R//z7ypMAjFM/gBo4XoBRDDWAGznozD5v/1+Kkz+VGESWJ3JHwAtXC+ACMYagO30PjGpMAmsz+QPgBauF0AEYw3Adnq/Y1JhElifyR8ALVwvgAjGGoDtKEwC4Uz+AGjhegFEMNYAbEdhEghn8gdAC9cLIIKxBmA7CpNAOJM/AFq4XgARjDUA21GYBMKZ/AHQwvUCiGCsAdiOwiQQzuQPgBauF0AEYw3AdhQmgXAmfwC0cL0AIhhrALajMAmEM/kDoIXrBRDBWAOwHYVJIJzJHwAtXC+ACMYagO0oTALhTP4AaOF6AUQw1gBsR2ESCGfyB0AL1wsggrEGYDsKk0A4kz8AWrheABGMNQDbUZgEwpn8AdDC9QKIYKwB2I7CJBDO5A+AFq4XQARjDcB2FCaBcCZ/ALRwvQAiGGsAtqMwCYQz+QOghesFEMFYA7Cds8Lkd999pzAJrM7kD4AWrhdABGMNwHZ8YhIIZ/IHQAvXCyCCsQZgOwqTQDiTPwBauF4AEYw1ANtRmATCmfwB0ML1AohgrAHYjsIkEM7kD4AWrhdABGMNwHYUJoFwJn8AtHC9ACIYawC2ozAJhDP5A6CF6wUQwVgDsB2FSSCcyR8ALVwvgAjGGoDtKEwC4Uz+AGjhegFEMNYAbEdhEghn8gdAC9cLIIKxBmA7CpNAOJM/AFq4XgARjDUA21GYBMKZ/AHQwvUCiGCsAdiOwiQQzuQPgBauF0AEYw3AdhQmgXAmfwC0cL0AIhhrALajMAmEM/kDoIXrBRDBWAOwHYVJeEDfutlXmoA9cgC4zPXi/UAAq3v08QbgUSlMwoN61AmQiR/ANK4XQJRHfN0Za4BHpzAJD+zRJkImfgDzuF4AUR7p9WesAVCYhIf3KBMiEz+A67heAFEe4XVorAF4ozAJ3P3EyMQPYBmuF0CUe349GmsAPilMAq/udYJk4gewLNcLIMo9vi6NNQDnFCaBD/c2UTLxA1iH6wUQ5Z5en8YagK8UJoEz9zJhMvEDWJfrBRDlHl6nxhqAOoVJ4Iu9T5xM/ABiuF4AUfb8ejXWAAxTmASq9jqBMvEDiOV6AUTZ4+vWWAMwTmESGLS3iZSJH8A2XC+AKHt6/RprAC5TmARG7WVCZeIHsC3XCyDKHl7HxhqANgqTwEW3PrEy8QO4Da4XQJRbfj0bawDaKUwCTW51gmXiB3BbXC+AKLf4ujbWAEyjMAk0u7WJlokfwG1yvQCi3NLr21gDMJ3CJDDJrUy4TPwAbpvrBRDlFl7nxhqAeRQmgcm2nniZ+AHsg+sFEMFYA7BfCpPALFtNwEz8APbF9QKIYKwB2CeFSWC26ImYiR/APrleABGMNQD7ozAJXCVqQmbiB7BvrhdABGMNwL4oTAJXW3tiZuIHcB9cL4AIxhqA/VCYBBax1gTNxA/gvrheABGMNQD7oDAJLGbpiZqJH8B9cr0AIhhrAG6fwiSwqKUmbCZ+APfN9QKIYKwBuG0Kk8Dirp24mfgBPAbXCyCCsQbgdilMAquYO4Ez8QN4LK4XQARjDcBtUpgEVjN1ImfiB/CYXC+ACMYagNujMAmsqnVCZ+IH8NhcL4AIxhqA26IwCazu0sTOxA+AxPUCiGCsAbgdCpNAiKEJnokfACXXCyCCsQbgNihMAmH6Ez0TPwBqXC+ACMYagO0pTAKh8oTPxA+AMa4XQARjDcC2FCaBcCZ+ALRwvQAiGGsAtqMwCQAAAACEU5gEAAAAAMIpTAIAAAAA4RQmAQAAAIBwCpMAAAAAQDiFSQAAAAAgnMIkAAAAABBOYRIAAAAACKcwCQAAAACEU5gEAAAAAMIpTAIAAAAA4RQmAQAAAIBwCpMAAAAAQDiFSQAAAAAgnMIkAAAAABAuFyZ/9rOfK0wCAAAAADFyYfJHP/qRwiQAAAAAEENhEgAAAAAIpzAJAAAAAIRTmAQAAAAAwilMAgAAAADhFCYBAAAAgHAKkwAAAABAOIVJAAAAACCcwiQAAAAAEE5hEgAAAAAIpzAJAAAAAIRTmAQAAAAAwilMAgAAAADhFCYBAAAAgHAKkwAAAABAOIVJAAAAACCcwiQAAAAAEE5hEgAAAAAIpzAJAAAAAIRTmAQAAAAAwilMAgAAAADhFCYBAAAAgHAKkwAAAABAOIVJAAAAACCcwiQAAAAAEE5hEgAAAAAIpzAJAAAAAIRTmAQAAAAAwilMAgAAAADhFCYBAAAAgHC5MPmzn/1cYRIAAAAAiJELk99//73CJAAAAAAQQ2ESAAAAAAinMAkAAAAAhFOYBAAAAADCKUwCAAAAAOEUJgEAAACAcAqTAAAAAEA4hUkAAAAAIJzCJAAAAAAQTmESAAAAAAinMAkAAAAAhFOYBAAAAADCKUwCAAAAAOEUJgEAAACAcAqTAAAAAEA4hUkAAAAAIJzCJAAAAAAQTmESAAAAAAinMAkAAAAAhFOYBAAAAADCKUwCAAAAAOEUJgEAAACAcAqTAAAAAEA4hUkAAAAAIJzCJAAAAAAQTmESAAAAAAinMAkAAAAAhFOYBAAAAADCKUwCAAAAAOEUJgEAAACAcGeFye+++05hEgAAAABY3Vlh8qe/93OFSQAAAABgdQqTAAAAAEA4hUkAAAAAIJzCJAAAAAAQTmESAAAAAAinMAkAAAAAhFOYBAAAAADCKUwCAAAAAOEUJgEAAACAcAqTAAAAAEA4hUkAAAAAIJzCJAAAAAAQTmESAAAAAAinMAkAAAAAhFOYBAAAAADCKUwCAAAAAOEUJgEAAACAcAqTAAAAAEA4hUkAAAAAIJzCJAAAAAAQTmESAAAAAAinMAkAAAAAhFOYBAAAAADCKUwCAAAAAOEUJgEAAACAcAqTAAAAAEA4hUkAAAAAIJzCJAAAAAAQ7qww+d133ylMAgAAAACr84lJAAAAACCcwiQAAAAAEE5hEgAAAAAIpzAJAAAAAIRTmAQAAAAAwilMAgAAAADhFCYBAAAAgHAKkwAAAABAOIVJAAAAACCcwiQAAAAAEO6sMPndd98pTAIAAAAAqzsrTP7ot79XmAQAAAAAVqcwCQAAAACEU5gEAAAAAMIpTAIAAAAA4RQmAQAAAIBwCpMAAAAAQDiFSQAAAAAgnMIkAAAAABBOYRIAAAAACJcLk7/1P/8fCpMAAAAAQAyFSQAAAAAgnMIkAAAAABBOYRIAAAAACKcwCQAAAACEU5gEAAAAAMIpTAIAAAAA4RQmAQAAAIBwCpMAAAAAQDiFSQAAAAAgnMIkAAAAABBOYRIAAAAACKcwCQAAAACEU5gEAAAAAMKdFSa/++47hUkAAAAAYHVnhcmf/t7PFSYBAAAAgNUpTAIAAAAA4RQmAQAAAIBwCpMAAAAAQDiFSQAAAAAgnMIkAAAAABBOYRIAAAAACJcLkz/67d9RmAQAAAAAYnwWJr9XmAQAAAAAYuTC5G//jsIkAAAAABDkszD549O37777TmESAAAAAFjdR2Hy+x+fvqXvcytMAgAAAABry4XJ3/n+JwqTAAAAAEAMhUkAAAAAINxHYfLHCpMAAAAAQBCFSQAAAAAgnMIkAAAAABBOYRIAAAAACPdZmPypwiQAAAAAEENhEgAAAAAIpzAJAAAAAIRTmAQAAAAAwilMAgAAAADhFCYBAAAAgHAKkwAAAABAOIVJAAAAACCcwiQAAAAAEE5hEgAAAAAIpzAJAAAAAIRTmAQAAAAAwilMAgAAAADhFCYBAAAAgHAKkwAAAABAOIVJAAAAACCcwiQAAAAAEE5hEgAAAAAIpzAJAAAAAIRTmAQAAAAAwilMAgAAAADhFCYBAAAAgHAKkwAAAABAOIVJAAAAACCcwiQAAAAAEE5hEgAAAAAIpzAJAAAAAIRTmAQAAAAAwilMAgAAAADhFCYBAAAAgHAKkwAAAABAOIVJAAAAACCcwiQAAAAAEE5hEgAAAAAIpzAJAAAAAIRTmAQAAAAAwilMAgAAAADhFCYBAAAAgHAKkwAAAABAOIVJAAAAACCcwiQAAAAAEE5hEgAAAAAIpzAJAAAAAIRTmAQAAAAAwilMAgAAAADhFCYBAAAAgHAKkwAAAABAOIVJAAAAACCcwiQAAAAAEE5hEgAAAAAIpzAJAAAAAIRTmAQAAAAAwlULk+lOERERERERERERkTVzVpgEAAAAAIjyUZj8D//hP4iIiIiIiIiIiIiE5KMw+bd/+7ciIiIiIiIiIiIiIVGYFBERERERERERkYtJn3Ks3T83CpMiIiIiIiIiIiJyMQqTIiIiIiIiIiIiEh6FSREREREREREREQmPwqSIiIiIiIiIiIiER2FSREREREREREREwqMwKSIiIiIiIiIiIuFRmBQREREREREREZHwXFuY/Iu/+IvX5NsKkyIiIiIiIiIiInIxCpMiIiIiIiIiIiISHl/lFhERERERERERkfDMKUyWn5L0iUkRERERERERERGZHIVJERERERERERERCY+vcouIiIiIiIiIiEh4WguTQ5+SLH9OUZgUERERERERERGRi1GYFBERERERERERkfD4KreIiIiIiIiIiIjsPh+FSRH5mu++++7009/7eVPSsukFJSIiIiIiIiIiLfnp6f8Htx7pDqSE1iwAAAAASUVORK5CYII=;" parent="228" vertex="1">
                    <mxGeometry x="97.75027550581139" y="98.79896685320695" width="394.5018194862965" height="265.49576696800113" as="geometry"/>
                </mxCell>
                <mxCell id="159" value="" style="group" parent="skvkwWqHoztt7yABa-7v-1" vertex="1" connectable="0">
                    <mxGeometry x="1370" y="2786" width="960" height="514" as="geometry"/>
                </mxCell>
                <mxCell id="229" value="" style="rounded=0;whiteSpace=wrap;html=1;strokeWidth=5;fillColor=#38A3A5;strokeColor=#FFFFFF;" vertex="1" parent="159">
                    <mxGeometry x="-60" y="-70" width="1020" height="584" as="geometry"/>
                </mxCell>
                <mxCell id="104" value="" style="ellipse;whiteSpace=wrap;html=1;aspect=fixed;fontSize=29;strokeWidth=5;fillColor=#d5e8d4;strokeColor=#000000;" parent="159" vertex="1">
                    <mxGeometry x="113.40425531914894" y="61.53846153846154" width="61.53846153846154" height="61.53846153846154" as="geometry"/>
                </mxCell>
                <mxCell id="108" value="" style="ellipse;whiteSpace=wrap;html=1;aspect=fixed;fontSize=29;strokeWidth=5;fillColor=#d5e8d4;strokeColor=#000000;" parent="159" vertex="1">
                    <mxGeometry x="113.40425531914894" y="153.84615384615387" width="61.53846153846154" height="61.53846153846154" as="geometry"/>
                </mxCell>
                <mxCell id="112" value="" style="ellipse;whiteSpace=wrap;html=1;aspect=fixed;fontSize=29;strokeWidth=5;fillColor=#d5e8d4;strokeColor=#000000;" parent="159" vertex="1">
                    <mxGeometry x="113.40425531914894" y="246.15384615384616" width="61.53846153846154" height="61.53846153846154" as="geometry"/>
                </mxCell>
                <mxCell id="116" value="" style="ellipse;whiteSpace=wrap;html=1;aspect=fixed;fontSize=29;strokeWidth=5;fillColor=#d5e8d4;strokeColor=#000000;" parent="159" vertex="1">
                    <mxGeometry x="113.40425531914894" y="338.46153846153845" width="61.53846153846154" height="61.53846153846154" as="geometry"/>
                </mxCell>
                <mxCell id="120" value="" style="ellipse;whiteSpace=wrap;html=1;aspect=fixed;fontSize=29;strokeWidth=5;fillColor=#FFFFFF;" parent="159" vertex="1">
                    <mxGeometry x="287.87234042553195" y="107.6923076923077" width="61.53846153846154" height="61.53846153846154" as="geometry"/>
                </mxCell>
                <mxCell id="101" style="edgeStyle=none;rounded=0;orthogonalLoop=1;jettySize=auto;html=1;entryX=0;entryY=0;entryDx=0;entryDy=0;fontSize=29;strokeWidth=5;" parent="159" source="104" target="120" edge="1">
                    <mxGeometry relative="1" as="geometry"/>
                </mxCell>
                <mxCell id="105" style="edgeStyle=none;rounded=0;orthogonalLoop=1;jettySize=auto;html=1;entryX=0;entryY=0.5;entryDx=0;entryDy=0;fontSize=29;strokeWidth=5;" parent="159" source="108" target="120" edge="1">
                    <mxGeometry relative="1" as="geometry"/>
                </mxCell>
                <mxCell id="111" style="edgeStyle=none;rounded=0;orthogonalLoop=1;jettySize=auto;html=1;fontSize=29;strokeWidth=5;" parent="159" source="112" target="120" edge="1">
                    <mxGeometry relative="1" as="geometry"/>
                </mxCell>
                <mxCell id="115" style="edgeStyle=none;rounded=0;orthogonalLoop=1;jettySize=auto;html=1;fontSize=29;strokeWidth=5;" parent="159" source="116" target="120" edge="1">
                    <mxGeometry relative="1" as="geometry"/>
                </mxCell>
                <mxCell id="124" value="" style="ellipse;whiteSpace=wrap;html=1;aspect=fixed;fontSize=29;strokeWidth=5;fillColor=#FFFFFF;" parent="159" vertex="1">
                    <mxGeometry x="287.87234042553195" y="200" width="61.53846153846154" height="61.53846153846154" as="geometry"/>
                </mxCell>
                <mxCell id="102" style="edgeStyle=none;rounded=0;orthogonalLoop=1;jettySize=auto;html=1;entryX=0;entryY=0;entryDx=0;entryDy=0;fontSize=29;strokeWidth=5;" parent="159" source="104" target="124" edge="1">
                    <mxGeometry relative="1" as="geometry"/>
                </mxCell>
                <mxCell id="106" style="edgeStyle=none;rounded=0;orthogonalLoop=1;jettySize=auto;html=1;fontSize=29;strokeWidth=5;" parent="159" source="108" target="124" edge="1">
                    <mxGeometry relative="1" as="geometry"/>
                </mxCell>
                <mxCell id="110" style="edgeStyle=none;rounded=0;orthogonalLoop=1;jettySize=auto;html=1;fontSize=29;strokeWidth=5;" parent="159" source="112" target="124" edge="1">
                    <mxGeometry relative="1" as="geometry"/>
                </mxCell>
                <mxCell id="114" style="edgeStyle=none;rounded=0;orthogonalLoop=1;jettySize=auto;html=1;entryX=0;entryY=1;entryDx=0;entryDy=0;fontSize=29;strokeWidth=5;" parent="159" source="116" target="124" edge="1">
                    <mxGeometry relative="1" as="geometry"/>
                </mxCell>
                <mxCell id="128" value="" style="ellipse;whiteSpace=wrap;html=1;aspect=fixed;fontSize=29;strokeWidth=5;fillColor=#FFFFFF;" parent="159" vertex="1">
                    <mxGeometry x="287.87234042553195" y="292.3076923076923" width="61.53846153846154" height="61.53846153846154" as="geometry"/>
                </mxCell>
                <mxCell id="103" style="edgeStyle=none;rounded=0;orthogonalLoop=1;jettySize=auto;html=1;fontSize=29;strokeWidth=5;" parent="159" source="104" target="128" edge="1">
                    <mxGeometry relative="1" as="geometry"/>
                </mxCell>
                <mxCell id="107" style="edgeStyle=none;rounded=0;orthogonalLoop=1;jettySize=auto;html=1;fontSize=29;strokeWidth=5;" parent="159" source="108" target="128" edge="1">
                    <mxGeometry relative="1" as="geometry"/>
                </mxCell>
                <mxCell id="109" style="edgeStyle=none;rounded=0;orthogonalLoop=1;jettySize=auto;html=1;entryX=0;entryY=0.5;entryDx=0;entryDy=0;fontSize=29;strokeWidth=5;" parent="159" source="112" target="128" edge="1">
                    <mxGeometry relative="1" as="geometry"/>
                </mxCell>
                <mxCell id="113" style="edgeStyle=none;rounded=0;orthogonalLoop=1;jettySize=auto;html=1;entryX=0;entryY=1;entryDx=0;entryDy=0;fontSize=29;strokeWidth=5;" parent="159" source="116" target="128" edge="1">
                    <mxGeometry relative="1" as="geometry"/>
                </mxCell>
                <mxCell id="131" value="" style="ellipse;whiteSpace=wrap;html=1;aspect=fixed;fontSize=29;strokeWidth=5;fillColor=#dae8fc;strokeColor=#000000;" parent="159" vertex="1">
                    <mxGeometry x="462.3404255319149" y="107.6923076923077" width="61.53846153846154" height="61.53846153846154" as="geometry"/>
                </mxCell>
                <mxCell id="117" style="edgeStyle=none;rounded=0;orthogonalLoop=1;jettySize=auto;html=1;entryX=0;entryY=0.5;entryDx=0;entryDy=0;fontSize=29;strokeWidth=5;" parent="159" source="120" target="131" edge="1">
                    <mxGeometry relative="1" as="geometry"/>
                </mxCell>
                <mxCell id="122" style="edgeStyle=none;rounded=0;orthogonalLoop=1;jettySize=auto;html=1;fontSize=29;strokeWidth=5;" parent="159" source="124" target="131" edge="1">
                    <mxGeometry relative="1" as="geometry"/>
                </mxCell>
                <mxCell id="126" style="edgeStyle=none;rounded=0;orthogonalLoop=1;jettySize=auto;html=1;entryX=0;entryY=1;entryDx=0;entryDy=0;fontSize=29;strokeWidth=5;" parent="159" source="128" target="131" edge="1">
                    <mxGeometry relative="1" as="geometry"/>
                </mxCell>
                <mxCell id="134" value="" style="ellipse;whiteSpace=wrap;html=1;aspect=fixed;fontSize=29;strokeWidth=5;fillColor=#dae8fc;strokeColor=#000000;" parent="159" vertex="1">
                    <mxGeometry x="462.3404255319149" y="200" width="61.53846153846154" height="61.53846153846154" as="geometry"/>
                </mxCell>
                <mxCell id="119" style="edgeStyle=none;rounded=0;orthogonalLoop=1;jettySize=auto;html=1;entryX=0;entryY=0;entryDx=0;entryDy=0;fontSize=29;strokeWidth=5;" parent="159" source="120" target="134" edge="1">
                    <mxGeometry relative="1" as="geometry"/>
                </mxCell>
                <mxCell id="121" style="edgeStyle=none;rounded=0;orthogonalLoop=1;jettySize=auto;html=1;entryX=0;entryY=0.5;entryDx=0;entryDy=0;fontSize=29;strokeWidth=5;" parent="159" source="124" target="134" edge="1">
                    <mxGeometry relative="1" as="geometry"/>
                </mxCell>
                <mxCell id="127" style="edgeStyle=none;rounded=0;orthogonalLoop=1;jettySize=auto;html=1;entryX=0;entryY=1;entryDx=0;entryDy=0;fontSize=29;strokeWidth=5;" parent="159" source="128" target="134" edge="1">
                    <mxGeometry relative="1" as="geometry"/>
                </mxCell>
                <mxCell id="137" value="" style="ellipse;whiteSpace=wrap;html=1;aspect=fixed;fontSize=29;strokeWidth=5;fillColor=#FFFFFF;" parent="159" vertex="1">
                    <mxGeometry x="462.3404255319149" y="292.3076923076923" width="61.53846153846154" height="61.53846153846154" as="geometry"/>
                </mxCell>
                <mxCell id="118" style="edgeStyle=none;rounded=0;orthogonalLoop=1;jettySize=auto;html=1;entryX=0;entryY=0;entryDx=0;entryDy=0;fontSize=29;strokeWidth=5;" parent="159" source="120" target="137" edge="1">
                    <mxGeometry relative="1" as="geometry"/>
                </mxCell>
                <mxCell id="123" style="edgeStyle=none;rounded=0;orthogonalLoop=1;jettySize=auto;html=1;fontSize=29;strokeWidth=5;" parent="159" source="124" target="137" edge="1">
                    <mxGeometry relative="1" as="geometry"/>
                </mxCell>
                <mxCell id="125" style="edgeStyle=none;rounded=0;orthogonalLoop=1;jettySize=auto;html=1;fontSize=29;strokeWidth=5;" parent="159" source="128" target="137" edge="1">
                    <mxGeometry relative="1" as="geometry"/>
                </mxCell>
                <mxCell id="138" value="" style="ellipse;whiteSpace=wrap;html=1;aspect=fixed;fontSize=29;strokeWidth=5;fillColor=#fff2cc;strokeColor=#000000;" parent="159" vertex="1">
                    <mxGeometry x="636.8085106382979" y="153.84615384615387" width="61.53846153846154" height="61.53846153846154" as="geometry"/>
                </mxCell>
                <mxCell id="129" style="edgeStyle=none;rounded=0;orthogonalLoop=1;jettySize=auto;html=1;entryX=0;entryY=0;entryDx=0;entryDy=0;fontSize=29;strokeWidth=5;" parent="159" source="131" target="138" edge="1">
                    <mxGeometry relative="1" as="geometry"/>
                </mxCell>
                <mxCell id="132" style="edgeStyle=none;rounded=0;orthogonalLoop=1;jettySize=auto;html=1;entryX=0;entryY=0.5;entryDx=0;entryDy=0;fontSize=29;strokeWidth=5;" parent="159" source="134" target="138" edge="1">
                    <mxGeometry relative="1" as="geometry"/>
                </mxCell>
                <mxCell id="136" style="edgeStyle=none;rounded=0;orthogonalLoop=1;jettySize=auto;html=1;fontSize=29;strokeWidth=5;" parent="159" source="137" target="138" edge="1">
                    <mxGeometry relative="1" as="geometry"/>
                </mxCell>
                <mxCell id="139" value="" style="ellipse;whiteSpace=wrap;html=1;aspect=fixed;fontSize=29;strokeWidth=5;fillColor=#fff2cc;strokeColor=#000000;" parent="159" vertex="1">
                    <mxGeometry x="636.8085106382979" y="246.15384615384616" width="61.53846153846154" height="61.53846153846154" as="geometry"/>
                </mxCell>
                <mxCell id="130" style="edgeStyle=none;rounded=0;orthogonalLoop=1;jettySize=auto;html=1;fontSize=29;strokeWidth=5;" parent="159" source="131" target="139" edge="1">
                    <mxGeometry relative="1" as="geometry"/>
                </mxCell>
                <mxCell id="133" style="edgeStyle=none;rounded=0;orthogonalLoop=1;jettySize=auto;html=1;entryX=0;entryY=0.5;entryDx=0;entryDy=0;fontSize=29;strokeWidth=5;" parent="159" source="134" target="139" edge="1">
                    <mxGeometry relative="1" as="geometry"/>
                </mxCell>
                <mxCell id="135" style="edgeStyle=none;rounded=0;orthogonalLoop=1;jettySize=auto;html=1;entryX=0;entryY=1;entryDx=0;entryDy=0;fontSize=29;strokeWidth=5;" parent="159" source="137" target="139" edge="1">
                    <mxGeometry relative="1" as="geometry"/>
                </mxCell>
                <mxCell id="140" value="Input Layer" style="text;html=1;align=center;verticalAlign=middle;resizable=0;points=[];autosize=1;strokeColor=none;fillColor=none;fontSize=29;fontStyle=1" parent="159" vertex="1">
                    <mxGeometry x="74.14893617021276" width="170" height="40" as="geometry"/>
                </mxCell>
                <mxCell id="141" value="Hidden Layers" style="text;html=1;align=center;verticalAlign=middle;resizable=0;points=[];autosize=1;strokeColor=none;fillColor=none;fontSize=29;fontStyle=1" parent="159" vertex="1">
                    <mxGeometry x="314.0425531914894" y="46.15384615384615" width="220" height="40" as="geometry"/>
                </mxCell>
                <mxCell id="142" value="Output Layer" style="text;html=1;align=center;verticalAlign=middle;resizable=0;points=[];autosize=1;strokeColor=none;fillColor=none;fontSize=29;fontStyle=1" parent="159" vertex="1">
                    <mxGeometry x="593.1914893617021" y="92.3076923076923" width="200" height="40" as="geometry"/>
                </mxCell>
                <mxCell id="143" value="" style="ellipse;whiteSpace=wrap;html=1;aspect=fixed;fontSize=29;strokeWidth=5;fillColor=#dae8fc;strokeColor=#000000;" parent="159" vertex="1">
                    <mxGeometry x="287.87234042553195" y="107.6923076923077" width="61.53846153846154" height="61.53846153846154" as="geometry"/>
                </mxCell>
                <mxCell id="144" value="" style="ellipse;whiteSpace=wrap;html=1;aspect=fixed;fontSize=29;strokeWidth=5;fillColor=#dae8fc;strokeColor=#000000;" parent="159" vertex="1">
                    <mxGeometry x="287.87234042553195" y="200" width="61.53846153846154" height="61.53846153846154" as="geometry"/>
                </mxCell>
                <mxCell id="145" value="" style="ellipse;whiteSpace=wrap;html=1;aspect=fixed;fontSize=29;strokeWidth=5;fillColor=#dae8fc;strokeColor=#000000;" parent="159" vertex="1">
                    <mxGeometry x="287.87234042553195" y="292.3076923076923" width="61.53846153846154" height="61.53846153846154" as="geometry"/>
                </mxCell>
                <mxCell id="146" value="" style="ellipse;whiteSpace=wrap;html=1;aspect=fixed;fontSize=29;strokeWidth=5;fillColor=#dae8fc;strokeColor=#000000;" parent="159" vertex="1">
                    <mxGeometry x="462.3404255319149" y="292.3076923076923" width="61.53846153846154" height="61.53846153846154" as="geometry"/>
                </mxCell>
                <mxCell id="147" style="edgeStyle=none;rounded=0;orthogonalLoop=1;jettySize=auto;html=1;entryX=0;entryY=0.5;entryDx=0;entryDy=0;fontSize=29;strokeWidth=5;" parent="159" edge="1">
                    <mxGeometry relative="1" as="geometry">
                        <mxPoint x="43.61702127659575" y="92.3076923076923" as="sourcePoint"/>
                        <mxPoint x="113.40425531914894" y="91.86923076923065" as="targetPoint"/>
                    </mxGeometry>
                </mxCell>
                <mxCell id="148" style="edgeStyle=none;rounded=0;orthogonalLoop=1;jettySize=auto;html=1;entryX=0;entryY=0.5;entryDx=0;entryDy=0;fontSize=29;strokeWidth=5;" parent="159" edge="1">
                    <mxGeometry relative="1" as="geometry">
                        <mxPoint x="43.61702127659575" y="184.83076923076905" as="sourcePoint"/>
                        <mxPoint x="113.40425531914894" y="184.39230769230772" as="targetPoint"/>
                    </mxGeometry>
                </mxCell>
                <mxCell id="149" style="edgeStyle=none;rounded=0;orthogonalLoop=1;jettySize=auto;html=1;entryX=0;entryY=0.5;entryDx=0;entryDy=0;fontSize=29;strokeWidth=5;" parent="159" edge="1">
                    <mxGeometry relative="1" as="geometry">
                        <mxPoint x="43.61702127659575" y="277.0307692307691" as="sourcePoint"/>
                        <mxPoint x="113.40425531914894" y="276.5923076923075" as="targetPoint"/>
                    </mxGeometry>
                </mxCell>
                <mxCell id="150" style="edgeStyle=none;rounded=0;orthogonalLoop=1;jettySize=auto;html=1;entryX=0;entryY=0.5;entryDx=0;entryDy=0;fontSize=29;strokeWidth=5;" parent="159" edge="1">
                    <mxGeometry relative="1" as="geometry">
                        <mxPoint x="43.61702127659575" y="369.5538461538462" as="sourcePoint"/>
                        <mxPoint x="113.40425531914894" y="369.1153846153846" as="targetPoint"/>
                    </mxGeometry>
                </mxCell>
                <mxCell id="151" style="edgeStyle=none;rounded=0;orthogonalLoop=1;jettySize=auto;html=1;entryX=0;entryY=0.5;entryDx=0;entryDy=0;fontSize=29;strokeWidth=5;" parent="159" edge="1">
                    <mxGeometry relative="1" as="geometry">
                        <mxPoint x="706.5957446808511" y="184.72307692307683" as="sourcePoint"/>
                        <mxPoint x="776.3829787234043" y="184.28461538461517" as="targetPoint"/>
                    </mxGeometry>
                </mxCell>
                <mxCell id="152" style="edgeStyle=none;rounded=0;orthogonalLoop=1;jettySize=auto;html=1;entryX=0;entryY=0.5;entryDx=0;entryDy=0;fontSize=29;strokeWidth=5;" parent="159" edge="1">
                    <mxGeometry relative="1" as="geometry">
                        <mxPoint x="706.5957446808511" y="277.2461538461539" as="sourcePoint"/>
                        <mxPoint x="776.3829787234043" y="276.80769230769226" as="targetPoint"/>
                    </mxGeometry>
                </mxCell>
                <mxCell id="153" value="&lt;b&gt;X&lt;sub&gt;1&lt;/sub&gt;&lt;/b&gt;" style="text;html=1;align=center;verticalAlign=middle;resizable=0;points=[];autosize=1;strokeColor=none;fillColor=none;fontSize=29;" parent="159" vertex="1">
                    <mxGeometry y="165.3846153846154" width="50" height="50" as="geometry"/>
                </mxCell>
                <mxCell id="154" value="&lt;b&gt;X&lt;sub&gt;2&lt;/sub&gt;&lt;/b&gt;" style="text;html=1;align=center;verticalAlign=middle;resizable=0;points=[];autosize=1;strokeColor=none;fillColor=none;fontSize=29;" parent="159" vertex="1">
                    <mxGeometry y="257.6923076923077" width="50" height="50" as="geometry"/>
                </mxCell>
                <mxCell id="155" value="&lt;b&gt;X&lt;sub&gt;3&lt;/sub&gt;&lt;/b&gt;" style="text;html=1;align=center;verticalAlign=middle;resizable=0;points=[];autosize=1;strokeColor=none;fillColor=none;fontSize=29;" parent="159" vertex="1">
                    <mxGeometry y="350" width="50" height="50" as="geometry"/>
                </mxCell>
                <mxCell id="156" value="&lt;b&gt;Y&lt;sub&gt;0&lt;/sub&gt;&lt;/b&gt;" style="text;html=1;align=center;verticalAlign=middle;resizable=0;points=[];autosize=1;strokeColor=none;fillColor=none;fontSize=29;" parent="159" vertex="1">
                    <mxGeometry x="776.3829787234043" y="165.3846153846154" width="50" height="50" as="geometry"/>
                </mxCell>
                <mxCell id="157" value="&lt;b&gt;Y&lt;sub&gt;1&lt;/sub&gt;&lt;/b&gt;" style="text;html=1;align=center;verticalAlign=middle;resizable=0;points=[];autosize=1;strokeColor=none;fillColor=none;fontSize=29;" parent="159" vertex="1">
                    <mxGeometry x="776.3829787234043" y="257.6923076923077" width="50" height="50" as="geometry"/>
                </mxCell>
                <mxCell id="158" value="&lt;b&gt;X&lt;sub&gt;0&lt;/sub&gt;&lt;/b&gt;" style="text;html=1;align=center;verticalAlign=middle;resizable=0;points=[];autosize=1;strokeColor=none;fillColor=none;fontSize=29;" parent="159" vertex="1">
                    <mxGeometry y="73.07692307692308" width="50" height="50" as="geometry"/>
                </mxCell>
            </root>
        </mxGraphModel>
    </diagram>
</mxfile>